{"glyphs":{"0":{"ha":863,"x_min":67,"x_max":797,"o":"m 433 -19 q 241 32 324 -19 q 113 186 159 83 q 67 446 67 290 q 113 706 67 603 q 241 860 159 809 q 433 910 324 910 q 622 860 540 910 q 750 706 704 809 q 797 446 797 603 q 750 186 797 290 q 622 32 704 83 q 433 -19 540 -19 m 433 117 q 589 202 534 117 q 644 446 644 287 q 589 691 644 605 q 433 776 534 776 q 275 691 331 776 q 220 446 220 605 q 275 202 220 287 q 433 117 331 117 z "},"1":{"ha":485,"x_min":60,"x_max":351,"o":"m 238 898 l 351 898 l 351 0 l 203 0 l 203 722 q 132 693 168 703 q 60 683 97 683 l 60 825 q 151 848 107 831 q 238 898 194 865 z "},"2":{"ha":830,"x_min":85,"x_max":752,"o":"m 85 0 l 85 147 q 108 275 85 223 q 177 363 132 327 q 289 424 222 398 l 470 494 q 562 556 532 519 q 592 649 592 594 q 552 743 592 706 q 438 781 512 781 q 319 747 367 781 q 265 647 272 713 l 100 647 q 147 793 103 734 q 266 881 191 851 q 436 910 341 910 q 597 876 525 910 q 710 782 668 842 q 752 642 752 722 q 727 522 752 574 q 652 431 701 469 q 528 363 602 392 l 344 291 q 260 241 287 269 q 233 167 233 212 l 233 135 l 746 135 l 746 0 l 85 0 z "},"3":{"ha":851,"x_min":66,"x_max":776,"o":"m 428 -19 q 294 0 359 -19 q 177 57 229 19 q 96 150 126 94 q 66 278 66 206 l 220 278 q 250 191 223 228 q 323 136 277 155 q 428 117 369 117 q 566 158 517 117 q 616 263 616 200 q 595 333 616 303 q 533 380 575 363 q 423 396 490 396 l 310 396 l 310 513 l 401 513 q 535 549 487 513 q 584 647 584 585 q 543 739 584 701 q 422 776 502 776 q 306 750 357 776 q 240 657 256 724 l 86 657 q 141 802 96 747 q 256 884 185 858 q 415 910 327 910 q 584 879 510 910 q 701 792 658 847 q 744 663 744 736 q 706 544 744 594 q 594 468 667 494 q 726 386 676 441 q 776 249 776 332 q 733 110 776 171 q 612 16 690 50 q 428 -19 534 -19 z "},"4":{"ha":812,"x_min":32,"x_max":790,"o":"m 492 903 l 634 903 l 634 330 l 790 330 l 790 203 l 634 203 l 634 0 l 488 0 l 488 203 l 32 203 l 32 316 l 492 903 m 494 681 l 208 316 l 494 316 l 494 681 z "},"5":{"ha":801,"x_min":83,"x_max":739,"o":"m 406 -19 q 241 14 313 -19 q 126 109 168 47 q 83 262 84 172 l 232 262 q 282 153 232 190 q 406 117 333 117 q 537 168 488 117 q 587 294 587 219 q 392 442 587 442 l 129 442 l 169 893 l 694 893 l 694 758 l 289 758 l 318 802 l 291 524 l 277 538 q 355 550 310 546 q 433 553 400 553 q 656 487 574 553 q 739 294 739 420 q 698 136 739 207 q 582 23 657 65 q 406 -19 508 -19 z "},"6":{"ha":829,"x_min":67,"x_max":758,"o":"m 439 -19 q 244 40 328 -19 q 114 200 160 99 q 67 431 67 301 q 114 691 67 583 q 248 854 162 798 q 449 910 333 910 q 601 878 535 910 q 706 788 667 846 q 749 653 744 731 l 590 653 q 549 743 582 710 q 454 776 516 776 q 279 680 343 776 q 215 416 215 583 q 216 367 215 394 q 221 315 217 340 q 268 453 231 403 q 360 524 306 503 q 473 545 414 545 q 620 509 556 545 q 721 409 685 472 q 758 263 758 345 q 717 115 758 178 q 605 17 677 52 q 439 -19 533 -19 m 439 117 q 556 158 508 117 q 604 268 604 200 q 556 381 604 340 q 439 422 508 422 q 356 402 393 422 q 298 348 319 383 q 276 268 276 313 q 323 158 276 200 q 439 117 370 117 z "},"7":{"ha":680,"x_min":33,"x_max":656,"o":"m 67 0 l 481 751 l 33 751 l 33 893 l 656 893 l 656 752 l 266 0 l 67 0 z "},"8":{"ha":885,"x_min":70,"x_max":815,"o":"m 442 -19 q 247 15 330 -19 q 117 108 163 49 q 70 241 70 167 q 105 351 70 306 q 198 421 139 397 q 332 446 258 446 q 382 442 358 446 q 435 430 405 438 l 435 392 q 325 373 373 392 q 250 323 277 354 q 224 255 224 292 q 253 181 224 212 q 332 133 282 149 q 442 117 381 117 q 607 147 551 117 q 662 226 662 178 q 634 290 662 264 q 558 335 607 317 l 306 432 q 213 481 260 449 q 133 558 165 512 q 101 669 101 605 q 141 796 101 742 q 258 880 181 850 q 442 910 334 910 q 616 877 539 910 q 738 788 693 844 q 783 657 783 731 q 755 559 783 604 q 673 486 726 514 q 542 459 619 459 q 497 463 518 459 q 450 475 476 467 l 450 519 q 540 535 499 519 q 605 580 581 551 q 630 647 630 608 q 606 715 630 686 q 540 760 582 744 q 442 776 498 776 q 347 761 390 776 q 279 720 304 746 q 254 663 254 695 q 280 601 254 625 q 354 559 306 578 l 612 459 q 763 372 710 422 q 815 233 815 322 q 772 103 815 160 q 644 14 728 46 q 442 -19 561 -19 z "},"9":{"ha":835,"x_min":79,"x_max":768,"o":"m 407 -19 q 244 17 316 -19 q 130 117 172 53 q 88 265 88 181 l 242 265 q 289 157 244 197 q 403 117 333 117 q 528 161 480 117 q 598 287 576 206 q 619 476 619 367 q 618 519 619 499 q 614 564 617 540 q 566 440 602 488 q 477 370 530 392 q 362 348 424 348 q 216 384 280 348 q 116 484 152 420 q 79 629 79 547 q 119 777 79 714 q 231 875 159 840 q 395 910 302 910 q 542 878 474 910 q 661 787 610 847 q 740 645 711 728 q 768 462 768 563 q 728 207 768 315 q 609 40 689 99 q 407 -19 529 -19 m 397 472 q 479 491 442 472 q 539 545 517 511 q 561 622 561 578 q 513 734 561 693 q 395 775 464 775 q 279 734 326 775 q 232 622 232 693 q 280 512 232 552 q 397 472 327 472 z "},"\r":{"ha":833,"x_min":0,"x_max":0,"o":""}," ":{"ha":345,"x_min":0,"x_max":0,"o":""}," ":{"ha":345,"x_min":0,"x_max":0,"o":""},",":{"ha":334,"x_min":35,"x_max":293,"o":"m 145 -178 l 35 -123 q 113 -73 80 -101 q 156 -7 146 -44 q 95 22 120 -1 q 69 81 69 44 q 98 146 69 119 q 172 172 127 172 q 260 132 228 172 q 293 38 293 92 q 254 -84 293 -24 q 145 -178 215 -143 z "},".":{"ha":284,"x_min":35,"x_max":247,"o":"m 35 87 q 65 159 35 130 q 140 189 94 189 q 216 159 185 189 q 247 87 247 130 q 216 16 247 44 q 140 -12 185 -12 q 65 16 94 -12 q 35 87 35 45 z "},";":{"ha":409,"x_min":76,"x_max":334,"o":"m 185 -178 l 76 -123 q 153 -73 120 -101 q 197 -7 186 -44 q 135 22 160 -1 q 110 81 110 44 q 139 146 110 119 q 213 172 167 172 q 301 132 268 172 q 333 38 333 92 q 294 -84 333 -24 q 185 -178 256 -143 m 117 534 q 146 607 117 577 q 221 636 176 636 q 298 607 267 636 q 328 534 328 577 q 298 463 328 492 q 221 435 267 435 q 146 464 176 435 q 117 534 117 492 z "},":":{"ha":359,"x_min":73,"x_max":284,"o":"m 72 117 q 102 189 72 160 q 176 219 131 219 q 253 189 222 219 q 284 117 284 160 q 253 46 284 74 q 176 17 222 17 q 102 46 131 17 q 72 117 72 75 m 72 534 q 102 607 72 577 q 176 636 131 636 q 253 607 222 636 q 284 534 284 577 q 253 463 284 492 q 176 435 222 435 q 102 464 131 435 q 72 534 72 492 z "},"-":{"ha":508,"x_min":60,"x_max":447,"o":"m 60 350 l 60 479 l 447 479 l 447 350 l 60 350 z "},"–":{"ha":708,"x_min":76,"x_max":632,"o":"m 76 350 l 76 479 l 632 479 l 632 350 l 76 350 z "},"—":{"ha":1049,"x_min":76,"x_max":974,"o":"m 76 350 l 76 479 l 974 479 l 974 350 l 76 350 z "},"!":{"ha":401,"x_min":100,"x_max":311,"o":"m 142 287 l 125 906 l 285 906 l 267 287 l 142 287 m 205 -12 q 130 16 159 -12 q 100 88 100 44 q 130 160 100 131 q 205 189 159 189 q 281 160 250 189 q 311 88 311 131 q 281 16 311 44 q 205 -12 250 -12 z "},"a":{"ha":799,"x_min":78,"x_max":685,"o":"m 556 0 l 538 158 l 538 433 q 506 545 538 510 q 403 581 474 581 q 332 569 363 581 q 284 534 301 557 q 267 476 267 510 l 105 476 q 141 599 105 552 q 245 668 178 646 q 403 690 312 690 q 551 662 488 690 q 650 577 615 635 q 685 428 685 519 l 685 0 l 556 0 m 334 -19 q 192 11 249 -19 q 107 90 135 41 q 78 194 78 138 q 112 302 78 259 q 207 366 146 345 q 348 388 267 388 q 452 378 403 388 q 551 355 502 369 l 551 267 q 465 288 512 281 q 377 296 417 296 q 276 273 316 296 q 236 194 236 249 q 268 124 236 153 q 369 95 300 95 q 459 118 422 95 q 517 176 497 141 q 538 245 538 210 l 573 245 q 545 114 573 174 q 465 18 518 54 q 334 -19 411 -19 z "},"b":{"ha":844,"x_min":133,"x_max":770,"o":"m 465 -19 q 348 16 401 -19 q 264 121 295 51 q 233 294 233 191 l 281 294 q 305 199 281 240 q 366 137 328 159 q 445 115 404 115 q 534 143 494 115 q 597 220 574 170 q 620 339 620 271 q 597 454 620 405 q 534 530 574 503 q 444 557 494 557 q 364 536 401 557 q 303 476 326 515 q 281 380 281 437 l 233 380 q 263 549 233 480 q 347 654 292 618 q 476 690 401 690 q 624 647 557 690 q 730 525 690 603 q 770 339 770 446 q 729 150 770 231 q 618 26 688 70 q 465 -19 549 -19 m 133 0 l 133 951 l 281 951 l 281 163 l 231 0 l 133 0 z "},"c":{"ha":730,"x_min":67,"x_max":660,"o":"m 381 -19 q 227 25 299 -19 q 111 149 155 69 q 67 336 67 228 q 111 528 67 449 q 227 649 155 608 q 381 690 299 690 q 493 669 444 690 q 577 615 542 649 q 633 539 612 581 q 660 453 653 497 l 510 448 q 464 526 497 496 q 380 557 431 557 q 301 533 338 557 q 240 461 263 510 q 217 336 217 413 q 238 215 217 265 q 297 141 260 166 q 380 115 334 115 q 479 148 447 115 q 510 235 510 180 l 660 235 q 628 107 660 165 q 533 15 595 49 q 381 -19 470 -19 z "},"d":{"ha":844,"x_min":74,"x_max":712,"o":"m 378 -19 q 225 26 294 -19 q 115 150 156 70 q 74 339 74 231 q 114 525 74 446 q 220 647 153 603 q 368 690 287 690 q 497 654 442 690 q 582 549 552 618 q 611 380 611 480 l 563 380 q 540 476 563 437 q 480 536 517 515 q 400 557 443 557 q 309 530 349 557 q 247 454 269 503 q 224 339 224 405 q 247 220 224 271 q 310 143 270 170 q 399 115 349 115 q 477 137 440 115 q 539 199 515 159 q 563 294 563 240 l 611 294 q 580 121 611 191 q 495 16 548 51 q 378 -19 442 -19 m 590 0 l 563 163 l 563 951 l 712 951 l 712 0 l 590 0 z "},"e":{"ha":730,"x_min":67,"x_max":667,"o":"m 378 -19 q 221 26 292 -19 q 109 150 151 70 q 67 335 67 230 q 108 525 67 446 q 220 647 150 605 q 378 690 291 690 q 514 658 457 690 q 606 572 572 626 q 654 449 641 517 q 657 308 667 381 l 185 308 l 185 390 l 553 390 l 522 369 q 518 440 524 405 q 497 506 513 476 q 453 553 481 535 q 380 572 424 572 q 289 544 326 572 q 233 471 252 517 q 214 369 214 425 l 214 309 q 232 202 214 249 q 286 128 250 155 q 378 101 323 101 q 466 126 431 101 q 510 200 501 151 l 660 200 q 612 85 650 135 q 514 9 574 36 q 378 -19 454 -19 z "},"f":{"ha":501,"x_min":68,"x_max":505,"o":"m 170 0 l 170 759 q 198 875 170 830 q 272 941 226 919 q 372 962 317 962 q 438 957 403 962 q 505 945 472 953 l 476 831 q 439 841 458 838 q 401 845 419 845 q 362 838 381 845 q 331 810 343 830 q 319 756 319 791 l 319 0 l 170 0 m 68 572 l 68 671 l 447 671 l 447 572 l 68 572 z "},"g":{"ha":801,"x_min":26,"x_max":775,"o":"m 385 -347 q 193 -316 273 -347 q 69 -234 113 -285 q 26 -123 26 -183 q 80 -10 26 -50 q 215 29 133 29 l 318 -13 q 210 -41 248 -13 q 172 -116 172 -68 q 228 -197 172 -166 q 385 -228 284 -228 q 514 -207 459 -228 q 598 -150 568 -185 q 628 -76 628 -115 q 610 -31 628 -49 q 553 -13 592 -13 l 318 -13 q 196 8 250 -13 q 111 66 142 30 q 80 146 80 102 q 103 218 80 188 q 167 265 127 249 q 256 281 207 281 l 291 231 q 251 223 271 231 q 220 198 232 215 q 208 158 208 182 q 232 110 208 128 q 318 92 256 92 l 553 92 q 716 52 657 92 q 775 -67 775 13 q 728 -201 775 -137 q 593 -306 681 -265 q 385 -347 506 -347 m 397 204 q 253 234 317 204 q 150 319 188 265 q 111 447 111 374 q 150 575 111 520 q 253 660 188 630 q 397 690 317 690 q 538 660 474 690 q 641 575 602 630 q 681 447 681 520 q 641 319 681 374 q 538 234 602 265 q 397 204 474 204 m 397 308 q 500 348 465 308 q 535 447 535 388 q 500 547 535 509 q 397 585 465 585 q 294 547 331 585 q 258 447 258 509 q 294 348 258 388 q 397 308 331 308 m 629 582 l 561 619 q 588 724 561 678 q 660 794 614 769 q 763 819 706 819 l 754 676 q 661 653 694 676 q 629 582 629 630 z "},"h":{"ha":858,"x_min":133,"x_max":745,"o":"m 598 0 l 598 393 q 559 516 598 474 q 456 557 520 557 q 364 528 403 557 q 302 443 324 499 q 281 305 281 387 l 230 305 q 262 517 230 432 q 353 646 294 603 q 494 690 413 690 q 632 653 576 690 q 717 549 688 616 q 745 393 745 483 l 745 0 l 598 0 m 133 0 l 133 951 l 281 951 l 281 0 l 133 0 z "},"i":{"ha":444,"x_min":125,"x_max":311,"o":"m 218 804 q 150 828 174 804 q 125 892 125 851 q 150 956 125 932 q 218 980 174 980 q 286 956 261 980 q 311 892 311 932 q 286 828 311 851 q 218 804 261 804 m 144 0 l 144 673 l 292 673 l 292 0 l 144 0 z "},"j":{"ha":457,"x_min":-110,"x_max":323,"o":"m 230 804 q 163 828 188 804 q 138 892 138 851 q 163 956 138 932 q 230 980 188 980 q 298 956 273 980 q 323 892 323 932 q 298 828 323 851 q 230 804 273 804 m 83 -347 q -16 -334 30 -347 q -110 -301 -62 -322 l -106 -173 q -30 -205 -69 -192 q 48 -217 10 -217 q 130 -186 101 -217 q 158 -82 158 -155 l 158 674 l 305 674 l 305 -85 q 245 -286 305 -226 q 83 -347 186 -347 z "},"k":{"ha":810,"x_min":133,"x_max":781,"o":"m 133 0 l 133 951 l 281 951 l 281 0 l 133 0 m 260 408 l 563 671 l 765 671 l 260 253 l 260 408 m 600 0 l 295 426 l 438 459 l 781 0 l 600 0 z "},"l":{"ha":413,"x_min":133,"x_max":281,"o":"m 133 0 l 133 951 l 281 951 l 281 0 l 133 0 z "},"m":{"ha":1313,"x_min":133,"x_max":1202,"o":"m 1053 0 l 1053 393 q 1014 516 1053 474 q 912 557 976 557 q 789 494 833 557 q 745 310 745 432 l 682 310 q 701 484 682 412 q 757 601 721 556 q 842 668 792 647 q 951 690 891 690 q 1089 653 1033 690 q 1173 549 1144 616 q 1202 393 1202 483 l 1202 0 l 1053 0 m 133 0 l 133 671 l 261 671 l 278 551 q 366 654 310 619 q 494 690 421 690 q 632 653 576 690 q 717 549 688 616 q 745 393 745 483 l 745 0 l 598 0 l 598 393 q 559 516 598 474 q 456 557 520 557 q 364 528 403 557 q 302 443 324 499 q 281 305 281 387 l 281 0 l 133 0 z "},"n":{"ha":858,"x_min":133,"x_max":745,"o":"m 598 0 l 598 393 q 559 516 598 474 q 456 557 520 557 q 364 528 403 557 q 302 443 324 499 q 281 305 281 387 l 230 305 q 262 517 230 432 q 353 646 294 603 q 494 690 413 690 q 632 653 576 690 q 717 549 688 616 q 745 393 745 483 l 745 0 l 598 0 m 133 0 l 133 671 l 261 671 l 281 532 l 281 0 l 133 0 z "},"o":{"ha":778,"x_min":67,"x_max":712,"o":"m 390 -19 q 226 21 299 -19 q 110 139 153 60 q 67 335 67 217 q 110 533 67 454 q 226 650 153 611 q 390 690 299 690 q 553 650 481 690 q 669 533 626 611 q 712 335 712 454 q 669 139 712 217 q 553 21 626 60 q 390 -19 481 -19 m 385 110 q 479 136 439 110 q 541 213 519 163 q 563 335 563 263 q 519 503 563 445 q 395 562 475 562 q 301 536 342 562 q 239 459 261 510 q 217 335 217 409 q 261 168 217 226 q 385 110 306 110 z "},"p":{"ha":837,"x_min":133,"x_max":770,"o":"m 460 -19 q 333 14 385 -19 q 252 110 280 46 q 224 272 224 175 l 281 272 q 303 187 281 222 q 361 134 325 152 q 439 115 398 115 q 524 140 483 115 q 593 213 566 164 q 620 336 620 262 q 597 455 620 405 q 533 531 574 504 q 442 557 492 557 q 361 537 399 557 q 302 479 324 517 q 281 386 281 441 l 224 386 q 257 557 224 490 q 344 657 290 624 q 465 690 399 690 q 614 647 544 690 q 727 526 683 605 q 770 336 770 447 q 726 145 770 224 q 612 24 683 66 q 460 -19 541 -19 m 133 -328 l 133 671 l 254 671 l 281 508 l 281 -328 l 133 -328 z "},"q":{"ha":837,"x_min":67,"x_max":799,"o":"m 378 -19 q 225 24 297 -19 q 110 145 154 66 q 67 336 67 224 q 110 526 67 447 q 223 647 153 605 q 371 690 292 690 q 492 657 437 690 q 580 557 547 624 q 613 386 613 490 l 556 386 q 534 479 556 441 q 475 537 512 517 q 396 557 439 557 q 304 531 344 557 q 240 455 264 504 q 217 336 217 405 q 243 213 217 262 q 312 140 270 164 q 398 115 353 115 q 474 134 438 115 q 533 187 510 152 q 556 272 556 222 l 588 272 q 566 120 588 185 q 498 18 544 55 q 378 -19 451 -19 m 755 -347 q 601 -260 647 -319 q 556 -96 556 -201 l 556 508 l 607 671 l 703 671 l 703 -106 q 711 -174 703 -149 q 741 -212 720 -198 q 799 -237 762 -226 l 755 -347 z "},"r":{"ha":533,"x_min":133,"x_max":526,"o":"m 133 0 l 133 673 l 281 673 l 281 0 l 133 0 m 242 297 q 270 514 242 428 q 348 641 299 599 q 460 683 397 683 q 495 681 479 683 q 526 674 511 678 l 523 526 q 483 534 504 531 q 444 538 461 538 q 352 509 389 538 q 298 427 316 481 q 281 297 281 374 l 242 297 z "},"s":{"ha":732,"x_min":73,"x_max":658,"o":"m 380 -19 q 215 8 283 -19 q 110 85 147 35 q 73 203 74 135 l 210 203 q 253 124 213 149 q 363 99 294 99 q 431 110 401 99 q 478 141 461 122 q 495 185 495 161 q 472 235 495 217 q 399 268 449 253 l 258 317 q 134 392 177 345 q 91 503 91 438 q 166 638 91 587 q 367 690 242 690 q 565 635 495 690 q 636 497 634 580 l 495 497 q 460 553 492 533 q 367 574 428 574 q 279 550 311 574 q 247 495 247 526 q 340 415 247 441 l 491 359 q 615 291 572 333 q 658 185 658 249 q 624 86 658 133 q 526 10 589 40 q 380 -19 463 -19 z "},"t":{"ha":540,"x_min":45,"x_max":503,"o":"m 353 -19 q 248 3 295 -19 q 172 70 200 25 q 143 183 143 115 l 143 851 l 291 851 l 291 188 q 375 99 291 99 q 425 104 400 99 q 482 122 450 110 l 503 17 q 429 -8 465 2 q 353 -19 393 -19 m 45 572 l 45 671 l 482 671 l 482 572 l 45 572 z "},"u":{"ha":863,"x_min":117,"x_max":730,"o":"m 582 673 l 730 673 l 730 0 l 582 0 l 582 673 m 117 673 l 265 673 l 265 259 q 300 153 265 189 q 397 117 335 117 q 491 144 449 117 q 558 224 533 172 q 582 351 582 276 l 625 351 q 593 150 625 231 q 504 28 561 69 q 372 -12 447 -12 q 241 14 299 -12 q 150 97 183 40 q 117 245 117 153 l 117 673 z "},"v":{"ha":715,"x_min":19,"x_max":695,"o":"m 19 671 l 189 671 l 364 126 l 351 126 l 526 671 l 695 671 l 440 0 l 274 0 l 19 671 z "},"w":{"ha":1040,"x_min":19,"x_max":1017,"o":"m 19 671 l 173 671 l 326 147 l 310 147 l 456 636 l 588 636 l 733 146 l 717 146 l 869 671 l 1017 671 l 797 0 l 651 0 l 507 460 l 530 460 l 388 0 l 242 0 l 19 671 z "},"x":{"ha":752,"x_min":26,"x_max":725,"o":"m 26 0 l 285 335 l 26 673 l 208 673 l 380 447 l 544 673 l 725 673 l 467 335 l 724 0 l 544 0 l 370 227 l 208 0 l 26 0 z "},"y":{"ha":684,"x_min":-2,"x_max":666,"o":"m 28 671 l 195 671 l 385 129 l 357 129 l 515 671 l 666 671 l 410 -126 q 316 -293 373 -240 q 177 -347 260 -347 q 87 -335 131 -347 q -2 -301 43 -324 l -2 -169 q 71 -206 35 -194 q 142 -217 106 -217 q 203 -197 178 -217 q 248 -143 229 -177 q 278 -66 266 -108 l 299 0 l 28 671 z "},"z":{"ha":679,"x_min":78,"x_max":603,"o":"m 78 0 l 78 120 l 440 551 l 78 551 l 78 671 l 603 671 l 603 551 l 251 120 l 603 120 l 603 0 l 78 0 z "},"A":{"ha":849,"x_min":32,"x_max":816,"o":"m 32 0 l 337 893 l 522 893 l 816 0 l 660 0 l 594 203 l 256 203 l 189 0 l 32 0 m 294 315 l 558 315 l 427 716 l 294 315 z "},"B":{"ha":890,"x_min":133,"x_max":803,"o":"m 133 0 l 133 893 l 485 893 q 655 861 588 893 q 755 776 722 829 q 788 657 788 722 q 746 527 788 581 q 625 451 703 472 q 717 413 676 441 q 780 342 757 385 q 803 247 803 299 q 788 160 803 203 q 737 80 773 116 q 640 22 701 44 q 487 0 579 0 l 133 0 m 281 129 l 483 129 q 606 164 567 129 q 644 255 644 199 q 604 347 644 312 q 483 381 564 381 l 281 381 l 281 129 m 281 765 l 281 510 l 479 510 q 595 544 555 510 q 636 640 636 578 q 597 731 636 697 q 481 765 557 765 l 281 765 z "},"C":{"ha":872,"x_min":67,"x_max":808,"o":"m 453 -19 q 249 38 335 -19 q 114 200 162 95 q 67 449 67 305 q 117 703 67 600 q 254 858 167 806 q 453 910 342 910 q 693 836 606 910 q 808 642 781 761 l 649 613 q 575 731 626 686 q 453 776 524 776 q 339 740 390 776 q 257 631 288 704 q 226 449 226 558 q 252 274 226 349 q 329 158 278 199 q 453 117 379 117 q 597 166 545 117 q 649 293 649 215 l 808 293 q 765 125 808 194 q 642 18 722 56 q 453 -19 562 -19 z "},"D":{"ha":943,"x_min":133,"x_max":866,"o":"m 133 893 l 414 893 q 651 838 550 893 q 809 683 753 783 q 866 446 866 583 q 809 211 866 311 q 651 55 753 110 q 414 0 550 0 l 133 0 l 133 893 m 281 760 l 281 132 l 414 132 q 570 173 504 132 q 671 285 635 214 q 707 446 707 356 q 671 608 707 538 q 570 719 635 678 q 414 760 504 760 l 281 760 z "},"E":{"ha":805,"x_min":131,"x_max":698,"o":"m 131 0 l 131 893 l 698 893 l 698 765 l 279 765 l 279 512 l 673 512 l 673 384 l 279 384 l 279 129 l 698 129 l 698 0 l 131 0 z "},"F":{"ha":750,"x_min":133,"x_max":690,"o":"m 133 0 l 133 893 l 690 893 l 690 765 l 281 765 l 281 513 l 657 513 l 657 386 l 281 386 l 281 0 l 133 0 z "},"G":{"ha":927,"x_min":67,"x_max":824,"o":"m 455 -19 q 259 39 347 -19 q 119 199 171 96 q 67 440 67 301 q 99 639 67 551 q 189 786 131 726 q 323 879 247 847 q 488 910 400 910 q 691 859 608 910 q 824 698 774 808 l 675 660 q 589 747 637 717 q 481 776 540 776 q 353 736 411 776 q 260 620 295 695 q 226 440 226 544 q 256 272 226 344 q 340 158 285 199 q 467 117 394 117 q 574 144 527 117 q 649 223 622 171 q 676 349 676 274 l 712 349 q 685 154 712 237 q 602 26 658 72 q 455 -19 545 -19 m 699 0 l 676 201 l 676 353 l 469 358 l 469 453 l 819 453 l 819 0 l 699 0 z "},"H":{"ha":965,"x_min":133,"x_max":832,"o":"m 133 893 l 281 893 l 281 515 l 685 515 l 685 893 l 832 893 l 832 0 l 685 0 l 685 385 l 281 385 l 281 0 l 133 0 l 133 893 z "},"I":{"ha":413,"x_min":133,"x_max":281,"o":"m 133 0 l 133 893 l 281 893 l 281 0 l 133 0 z "},"J":{"ha":600,"x_min":19,"x_max":491,"o":"m 19 39 l 19 188 q 125 141 73 156 q 222 126 176 126 q 314 163 285 126 q 342 273 342 200 l 342 893 l 491 893 l 491 273 q 459 103 491 167 q 368 10 426 40 q 234 -19 310 -19 q 121 -2 174 -19 q 19 39 67 14 z "},"K":{"ha":890,"x_min":133,"x_max":876,"o":"m 648 893 l 851 893 l 267 294 l 267 498 l 648 893 m 433 522 l 876 0 l 685 0 l 330 426 l 433 522 m 133 893 l 282 893 l 282 0 l 133 0 l 133 893 z "},"L":{"ha":676,"x_min":133,"x_max":656,"o":"m 281 893 l 281 129 l 656 129 l 656 0 l 133 0 l 133 893 l 281 893 z "},"M":{"ha":1203,"x_min":133,"x_max":1071,"o":"m 133 893 l 344 893 l 612 327 l 599 327 l 866 893 l 1071 893 l 1071 0 l 922 0 l 922 726 l 945 726 l 653 102 l 556 102 l 266 723 l 281 723 l 281 0 l 133 0 l 133 893 z "},"N":{"ha":983,"x_min":130,"x_max":850,"o":"m 130 893 l 295 893 l 714 228 l 702 228 l 702 893 l 850 893 l 850 0 l 697 0 l 254 699 l 278 699 l 278 0 l 130 0 l 130 893 z "},"O":{"ha":933,"x_min":67,"x_max":867,"o":"m 467 -19 q 260 33 350 -19 q 118 189 169 85 q 67 447 67 292 q 118 706 67 603 q 260 860 169 809 q 467 910 350 910 q 674 859 584 910 q 816 704 765 807 q 867 447 867 601 q 816 187 867 290 q 674 32 765 83 q 467 -19 584 -19 m 467 116 q 647 201 581 116 q 714 448 714 286 q 647 691 714 605 q 467 778 581 778 q 287 691 354 778 q 220 447 220 604 q 287 201 220 285 q 467 116 354 116 z "},"P":{"ha":796,"x_min":128,"x_max":751,"o":"m 128 0 l 128 893 l 436 893 q 668 819 585 893 q 751 610 751 744 q 668 404 751 478 q 436 330 585 330 l 278 330 l 278 0 l 128 0 m 278 459 l 436 459 q 557 501 516 459 q 599 610 599 544 q 557 722 599 679 q 436 765 516 765 l 278 765 l 278 459 z "},"Q":{"ha":939,"x_min":67,"x_max":867,"o":"m 467 -19 q 260 33 350 -19 q 118 189 169 85 q 67 447 67 292 q 118 706 67 603 q 260 860 169 809 q 467 910 350 910 q 674 859 584 910 q 816 704 765 807 q 867 447 867 601 q 816 187 867 290 q 674 32 765 83 q 467 -19 584 -19 m 738 -244 q 616 -209 672 -244 q 517 -109 560 -174 l 425 28 l 546 80 l 626 -42 q 673 -84 647 -72 q 724 -98 699 -97 q 792 -89 760 -98 q 859 -65 824 -80 l 859 -219 q 798 -239 827 -233 q 738 -244 768 -244 m 467 116 q 647 201 581 116 q 714 448 714 286 q 647 691 714 605 q 467 778 581 778 q 287 691 354 778 q 220 447 220 604 q 287 201 220 285 q 467 116 354 116 z "},"R":{"ha":881,"x_min":133,"x_max":813,"o":"m 133 0 l 133 893 l 457 893 q 699 819 615 893 q 783 622 783 744 q 699 427 783 501 q 457 353 615 353 l 281 353 l 281 0 l 133 0 m 620 0 l 378 415 l 537 415 l 813 0 l 620 0 m 281 453 l 443 453 q 583 497 535 453 q 631 609 631 540 q 587 723 631 680 q 457 765 543 765 l 281 765 l 281 453 z "},"S":{"ha":872,"x_min":92,"x_max":780,"o":"m 436 -19 q 267 14 344 -19 q 143 111 190 46 q 92 276 95 176 l 237 276 q 264 186 237 222 q 336 134 291 151 q 435 117 381 117 q 530 132 489 117 q 595 174 572 147 q 618 237 618 201 q 589 314 618 285 q 497 363 559 342 l 326 429 q 165 522 221 469 q 110 669 110 575 q 194 843 110 776 q 431 910 278 910 q 657 842 576 910 q 749 655 738 774 l 603 655 q 552 743 594 710 q 431 776 511 776 q 314 745 356 776 q 272 665 272 713 q 298 601 272 624 q 381 556 325 577 l 574 484 q 726 389 672 447 q 780 242 780 331 q 740 105 780 164 q 623 14 700 47 q 436 -19 547 -19 z "},"T":{"ha":726,"x_min":8,"x_max":718,"o":"m 8 765 l 8 893 l 718 893 l 718 765 l 404 765 l 437 799 l 437 0 l 289 0 l 289 799 l 322 765 l 8 765 z "},"U":{"ha":944,"x_min":117,"x_max":828,"o":"m 117 893 l 265 893 l 265 333 q 323 168 265 219 q 473 117 381 117 q 622 168 565 117 q 680 333 680 219 l 680 893 l 828 893 l 828 333 q 785 142 828 221 q 663 22 742 63 q 473 -19 583 -19 q 282 22 362 -19 q 160 142 203 63 q 117 333 117 221 l 117 893 z "},"V":{"ha":821,"x_min":25,"x_max":797,"o":"m 402 161 l 641 893 l 797 893 l 486 0 l 331 0 l 25 893 l 182 893 l 418 161 l 402 161 z "},"W":{"ha":1294,"x_min":15,"x_max":1277,"o":"m 15 893 l 181 893 l 401 131 l 363 131 l 583 824 l 683 824 l 908 140 l 873 140 l 1111 893 l 1277 893 l 968 0 l 813 0 l 629 549 l 646 549 l 460 0 l 305 0 l 15 893 z "},"X":{"ha":933,"x_min":51,"x_max":878,"o":"m 53 0 l 368 444 l 51 893 l 233 893 l 467 559 l 674 893 l 853 893 l 549 447 l 878 0 l 694 0 l 451 328 l 232 0 l 53 0 z "},"Y":{"ha":799,"x_min":10,"x_max":788,"o":"m 10 893 l 187 893 l 412 495 l 381 495 l 613 893 l 788 893 l 469 368 l 469 0 l 321 0 l 321 368 l 10 893 z "},"Z":{"ha":858,"x_min":101,"x_max":772,"o":"m 101 0 l 101 129 l 628 810 l 628 756 l 101 758 l 101 893 l 772 893 l 772 765 l 272 117 l 267 138 l 772 135 l 772 0 l 101 0 z "},"'":{"ha":232,"x_min":42,"x_max":190,"o":"m 42 940 l 190 940 l 170 617 l 60 617 l 42 940 z "},"ʼ":{"ha":307,"x_min":50,"x_max":308,"o":"m 160 547 l 50 603 q 127 653 94 625 q 171 719 160 681 q 109 748 135 725 q 84 807 84 770 q 113 872 84 845 q 187 898 142 898 q 275 858 242 898 q 308 764 308 818 q 269 642 308 701 q 160 547 230 583 z "},"‘":{"ha":353,"x_min":50,"x_max":308,"o":"m 172 542 q 108 561 135 542 q 65 612 81 581 q 50 681 50 644 q 92 802 50 744 q 204 895 134 860 l 308 838 q 231 788 264 817 q 185 722 199 760 q 249 694 224 716 q 274 635 274 673 q 245 570 274 597 q 172 542 217 542 z "},"’":{"ha":353,"x_min":35,"x_max":291,"o":"m 138 542 l 35 600 q 112 650 78 622 q 156 716 145 678 q 93 744 118 722 q 68 803 68 767 q 98 869 68 843 q 172 895 128 895 q 236 876 210 895 q 277 826 263 857 q 291 757 291 794 q 249 636 291 693 q 138 542 208 579 z "},"(":{"ha":538,"x_min":101,"x_max":494,"o":"m 388 1037 l 494 960 q 361 793 414 877 q 281 620 308 708 q 255 438 255 532 q 315 168 255 297 q 494 -83 374 40 l 388 -162 q 172 120 242 -32 q 101 438 101 272 q 172 756 101 604 q 388 1037 242 908 z "},")":{"ha":538,"x_min":43,"x_max":437,"o":"m 151 -162 l 43 -83 q 223 168 163 40 q 283 438 283 297 q 256 620 283 532 q 176 793 229 708 q 43 960 123 877 l 151 1037 q 366 756 295 908 q 437 438 437 604 q 406 222 437 326 q 310 21 374 117 q 151 -162 247 -76 z "},"+":{"ha":749,"x_min":25,"x_max":724,"o":"m 301 682 l 448 682 l 448 406 l 724 406 l 724 276 l 448 276 l 448 0 l 301 0 l 301 276 l 25 276 l 25 406 l 301 406 l 301 682 z "},"−":{"ha":749,"x_min":25,"x_max":724,"o":"m 25 407 l 724 407 l 724 278 l 25 278 l 25 407 z "},"=":{"ha":695,"x_min":110,"x_max":585,"o":"m 110 269 l 585 269 l 585 142 l 110 142 l 110 269 m 110 554 l 585 554 l 585 426 l 110 426 l 110 554 z "},"$":{"ha":933,"x_min":92,"x_max":842,"o":"m 478 -19 q 331 -1 401 -19 q 207 53 261 17 q 123 145 153 90 q 92 276 92 201 l 237 276 q 267 185 237 220 q 352 133 297 149 q 485 117 408 117 q 592 134 550 117 q 655 179 634 151 q 675 241 675 208 q 647 315 675 284 q 566 364 619 346 l 470 399 l 470 528 l 636 471 q 790 381 738 436 q 842 237 842 326 q 803 115 842 173 q 683 19 764 56 q 478 -19 603 -19 m 414 -136 l 414 1014 l 521 1014 l 521 -136 l 414 -136 m 444 398 l 351 429 q 173 522 235 468 q 111 669 111 575 q 201 843 111 776 q 463 910 292 910 q 705 841 622 910 q 808 655 789 772 l 662 655 q 600 747 651 710 q 460 783 549 783 q 319 750 367 783 q 272 664 272 716 q 296 600 272 624 q 372 558 320 576 l 444 529 l 444 398 z "},"?":{"ha":710,"x_min":35,"x_max":660,"o":"m 244 256 l 244 313 q 258 413 244 374 q 302 479 272 451 q 383 532 332 506 q 452 575 427 555 q 488 616 478 594 q 498 667 498 638 q 460 745 498 715 q 356 776 422 776 q 239 743 280 776 q 190 655 198 710 l 35 655 q 124 840 44 770 q 351 910 203 910 q 516 878 447 910 q 623 790 585 845 q 660 666 660 734 q 624 544 660 594 q 510 455 588 494 q 438 410 464 431 q 402 365 413 390 q 392 301 392 340 l 392 256 l 244 256 m 322 -19 q 246 10 275 -19 q 217 81 217 39 q 246 152 217 123 q 321 182 275 182 q 398 153 367 182 q 428 81 428 124 q 398 10 428 40 q 322 -19 367 -19 z "},"£":{"ha":821,"x_min":30,"x_max":770,"o":"m 73 90 l 73 132 q 146 162 124 132 q 168 254 168 192 l 168 612 q 201 775 168 709 q 297 876 235 842 q 444 910 358 910 q 619 852 553 910 q 702 677 685 793 l 556 677 q 519 751 550 726 q 444 776 488 776 q 350 736 385 776 q 316 612 316 697 l 316 264 q 264 132 316 174 q 73 90 212 90 m 30 0 l 30 132 l 473 132 q 572 159 542 132 q 610 243 603 187 l 770 243 q 700 65 766 129 q 474 0 633 0 l 30 0 m 49 385 l 49 485 l 558 485 l 558 385 l 49 385 z "},"`":{"ha":485,"x_min":67,"x_max":419,"o":"m 347 777 l 67 1009 l 167 1090 l 419 835 l 347 777 z "},"´":{"ha":485,"x_min":67,"x_max":419,"o":"m 138 777 l 67 835 l 319 1090 l 419 1009 l 138 777 z "},"à":{"ha":799,"x_min":78,"x_max":685,"o":"m 556 0 l 538 158 l 538 433 q 506 545 538 510 q 403 581 474 581 q 332 569 363 581 q 284 534 301 557 q 267 476 267 510 l 105 476 q 141 599 105 552 q 245 668 178 646 q 403 690 312 690 q 551 662 488 690 q 650 577 615 635 q 685 428 685 519 l 685 0 l 556 0 m 334 -19 q 192 11 249 -19 q 107 90 135 41 q 78 194 78 138 q 112 302 78 259 q 207 366 146 345 q 348 388 267 388 q 452 378 403 388 q 551 355 502 369 l 551 267 q 465 288 512 281 q 377 296 417 296 q 276 273 316 296 q 236 194 236 249 q 268 124 236 153 q 369 95 300 95 q 459 118 422 95 q 517 176 497 141 q 538 245 538 210 l 573 245 q 545 114 573 174 q 465 18 518 54 q 334 -19 411 -19 m 503 777 l 223 1009 l 323 1090 l 575 835 l 503 777 z "},"è":{"ha":730,"x_min":67,"x_max":667,"o":"m 378 -19 q 221 26 292 -19 q 109 150 151 70 q 67 335 67 230 q 108 525 67 446 q 220 647 150 605 q 378 690 291 690 q 514 658 457 690 q 606 572 572 626 q 654 449 641 517 q 657 308 667 381 l 185 308 l 185 390 l 553 390 l 522 369 q 518 440 524 405 q 497 506 513 476 q 453 553 481 535 q 380 572 424 572 q 289 544 326 572 q 233 471 252 517 q 214 369 214 425 l 214 309 q 232 202 214 249 q 286 128 250 155 q 378 101 323 101 q 466 126 431 101 q 510 200 501 151 l 660 200 q 612 85 650 135 q 514 9 574 36 q 378 -19 454 -19 m 469 777 l 189 1009 l 289 1090 l 541 835 l 469 777 z "},"ò":{"ha":778,"x_min":67,"x_max":712,"o":"m 390 -19 q 226 21 299 -19 q 110 139 153 60 q 67 335 67 217 q 110 533 67 454 q 226 650 153 611 q 390 690 299 690 q 553 650 481 690 q 669 533 626 611 q 712 335 712 454 q 669 139 712 217 q 553 21 626 60 q 390 -19 481 -19 m 385 110 q 479 136 439 110 q 541 213 519 163 q 563 335 563 263 q 519 503 563 445 q 395 562 475 562 q 301 536 342 562 q 239 459 261 510 q 217 335 217 409 q 261 168 217 226 q 385 110 306 110 m 494 777 l 213 1009 l 313 1090 l 565 835 l 494 777 z "},"À":{"ha":849,"x_min":32,"x_max":816,"o":"m 32 0 l 337 893 l 522 893 l 816 0 l 660 0 l 594 203 l 256 203 l 189 0 l 32 0 m 294 315 l 558 315 l 427 716 l 294 315 m 536 998 l 256 1230 l 356 1311 l 608 1056 l 536 998 z "},"È":{"ha":805,"x_min":131,"x_max":698,"o":"m 131 0 l 131 893 l 698 893 l 698 765 l 279 765 l 279 512 l 673 512 l 673 384 l 279 384 l 279 129 l 698 129 l 698 0 l 131 0 m 507 998 l 226 1230 l 326 1311 l 578 1056 l 507 998 z "},"ù":{"ha":863,"x_min":117,"x_max":730,"o":"m 582 673 l 730 673 l 730 0 l 582 0 l 582 673 m 117 673 l 265 673 l 265 259 q 300 153 265 189 q 397 117 335 117 q 491 144 449 117 q 558 224 533 172 q 582 351 582 276 l 625 351 q 593 150 625 231 q 504 28 561 69 q 372 -12 447 -12 q 241 14 299 -12 q 150 97 183 40 q 117 245 117 153 l 117 673 m 547 777 l 267 1009 l 367 1090 l 619 835 l 547 777 z "},"á":{"ha":799,"x_min":78,"x_max":685,"o":"m 556 0 l 538 158 l 538 433 q 506 545 538 510 q 403 581 474 581 q 332 569 363 581 q 284 534 301 557 q 267 476 267 510 l 105 476 q 141 599 105 552 q 245 668 178 646 q 403 690 312 690 q 551 662 488 690 q 650 577 615 635 q 685 428 685 519 l 685 0 l 556 0 m 334 -19 q 192 11 249 -19 q 107 90 135 41 q 78 194 78 138 q 112 302 78 259 q 207 366 146 345 q 348 388 267 388 q 452 378 403 388 q 551 355 502 369 l 551 267 q 465 288 512 281 q 377 296 417 296 q 276 273 316 296 q 236 194 236 249 q 268 124 236 153 q 369 95 300 95 q 459 118 422 95 q 517 176 497 141 q 538 245 538 210 l 573 245 q 545 114 573 174 q 465 18 518 54 q 334 -19 411 -19 m 355 774 l 283 833 l 536 1088 l 635 1006 l 355 774 z "},"é":{"ha":730,"x_min":67,"x_max":667,"o":"m 378 -19 q 221 26 292 -19 q 109 150 151 70 q 67 335 67 230 q 108 525 67 446 q 220 647 150 605 q 378 690 291 690 q 514 658 457 690 q 606 572 572 626 q 654 449 641 517 q 657 308 667 381 l 185 308 l 185 390 l 553 390 l 522 369 q 518 440 524 405 q 497 506 513 476 q 453 553 481 535 q 380 572 424 572 q 289 544 326 572 q 233 471 252 517 q 214 369 214 425 l 214 309 q 232 202 214 249 q 286 128 250 155 q 378 101 323 101 q 466 126 431 101 q 510 200 501 151 l 660 200 q 612 85 650 135 q 514 9 574 36 q 378 -19 454 -19 m 322 774 l 250 833 l 503 1088 l 602 1006 l 322 774 z "},"ó":{"ha":778,"x_min":67,"x_max":712,"o":"m 390 -19 q 226 21 299 -19 q 110 139 153 60 q 67 335 67 217 q 110 533 67 454 q 226 650 153 611 q 390 690 299 690 q 553 650 481 690 q 669 533 626 611 q 712 335 712 454 q 669 139 712 217 q 553 21 626 60 q 390 -19 481 -19 m 385 110 q 479 136 439 110 q 541 213 519 163 q 563 335 563 263 q 519 503 563 445 q 395 562 475 562 q 301 536 342 562 q 239 459 261 510 q 217 335 217 409 q 261 168 217 226 q 385 110 306 110 m 346 774 l 274 833 l 527 1088 l 626 1006 l 346 774 z "},"ú":{"ha":863,"x_min":117,"x_max":730,"o":"m 582 673 l 730 673 l 730 0 l 582 0 l 582 673 m 117 673 l 265 673 l 265 259 q 300 153 265 189 q 397 117 335 117 q 491 144 449 117 q 558 224 533 172 q 582 351 582 276 l 625 351 q 593 150 625 231 q 504 28 561 69 q 372 -12 447 -12 q 241 14 299 -12 q 150 97 183 40 q 117 245 117 153 l 117 673 m 399 774 l 327 833 l 580 1088 l 679 1006 l 399 774 z "},"Á":{"ha":849,"x_min":32,"x_max":816,"o":"m 32 0 l 337 893 l 522 893 l 816 0 l 660 0 l 594 203 l 256 203 l 189 0 l 32 0 m 294 315 l 558 315 l 427 716 l 294 315 m 388 996 l 316 1054 l 569 1309 l 668 1228 l 388 996 z "},"É":{"ha":805,"x_min":131,"x_max":698,"o":"m 131 0 l 131 893 l 698 893 l 698 765 l 279 765 l 279 512 l 673 512 l 673 384 l 279 384 l 279 129 l 698 129 l 698 0 l 131 0 m 358 996 l 287 1054 l 540 1309 l 639 1228 l 358 996 z "},"Ì":{"ha":413,"x_min":31,"x_max":382,"o":"m 133 0 l 133 893 l 281 893 l 281 0 l 133 0 m 311 998 l 31 1230 l 131 1311 l 383 1056 l 311 998 z "},"Í":{"ha":413,"x_min":92,"x_max":443,"o":"m 133 0 l 133 893 l 281 893 l 281 0 l 133 0 m 163 996 l 91 1054 l 344 1309 l 443 1228 l 163 996 z "},"Ò":{"ha":933,"x_min":67,"x_max":867,"o":"m 467 -19 q 260 33 350 -19 q 118 189 169 85 q 67 447 67 292 q 118 706 67 603 q 260 860 169 809 q 467 910 350 910 q 674 859 584 910 q 816 704 765 807 q 867 447 867 601 q 816 187 867 290 q 674 32 765 83 q 467 -19 584 -19 m 467 116 q 647 201 581 116 q 714 448 714 286 q 647 691 714 605 q 467 778 581 778 q 287 691 354 778 q 220 447 220 604 q 287 201 220 285 q 467 116 354 116 m 574 998 l 294 1230 l 394 1311 l 646 1056 l 574 998 z "},"Ó":{"ha":933,"x_min":67,"x_max":867,"o":"m 467 -19 q 260 33 350 -19 q 118 189 169 85 q 67 447 67 292 q 118 706 67 603 q 260 860 169 809 q 467 910 350 910 q 674 859 584 910 q 816 704 765 807 q 867 447 867 601 q 816 187 867 290 q 674 32 765 83 q 467 -19 584 -19 m 467 116 q 647 201 581 116 q 714 448 714 286 q 647 691 714 605 q 467 778 581 778 q 287 691 354 778 q 220 447 220 604 q 287 201 220 285 q 467 116 354 116 m 426 996 l 355 1054 l 608 1309 l 707 1228 l 426 996 z "},"Ù":{"ha":944,"x_min":117,"x_max":828,"o":"m 117 893 l 265 893 l 265 333 q 323 168 265 219 q 473 117 381 117 q 622 168 565 117 q 680 333 680 219 l 680 893 l 828 893 l 828 333 q 785 142 828 221 q 663 22 742 63 q 473 -19 583 -19 q 282 22 362 -19 q 160 142 203 63 q 117 333 117 221 l 117 893 m 576 998 l 296 1230 l 396 1311 l 648 1056 l 576 998 z "},"Ú":{"ha":944,"x_min":117,"x_max":828,"o":"m 117 893 l 265 893 l 265 333 q 323 168 265 219 q 473 117 381 117 q 622 168 565 117 q 680 333 680 219 l 680 893 l 828 893 l 828 333 q 785 142 828 221 q 663 22 742 63 q 473 -19 583 -19 q 282 22 362 -19 q 160 142 203 63 q 117 333 117 221 l 117 893 m 428 996 l 356 1054 l 609 1309 l 708 1228 l 428 996 z "},"ˆ":{"ha":613,"x_min":67,"x_max":547,"o":"m 154 767 l 67 836 l 306 1049 l 547 836 l 459 767 l 280 933 l 332 933 l 154 767 z "},"â":{"ha":799,"x_min":78,"x_max":685,"o":"m 556 0 l 538 158 l 538 433 q 506 545 538 510 q 403 581 474 581 q 332 569 363 581 q 284 534 301 557 q 267 476 267 510 l 105 476 q 141 599 105 552 q 245 668 178 646 q 403 690 312 690 q 551 662 488 690 q 650 577 615 635 q 685 428 685 519 l 685 0 l 556 0 m 334 -19 q 192 11 249 -19 q 107 90 135 41 q 78 194 78 138 q 112 302 78 259 q 207 366 146 345 q 348 388 267 388 q 452 378 403 388 q 551 355 502 369 l 551 267 q 465 288 512 281 q 377 296 417 296 q 276 273 316 296 q 236 194 236 249 q 268 124 236 153 q 369 95 300 95 q 459 118 422 95 q 517 176 497 141 q 538 245 538 210 l 573 245 q 545 114 573 174 q 465 18 518 54 q 334 -19 411 -19 m 247 760 l 159 830 l 399 1043 l 639 830 l 551 760 l 372 927 l 424 927 l 247 760 z "},"ê":{"ha":730,"x_min":67,"x_max":667,"o":"m 378 -19 q 221 26 292 -19 q 109 150 151 70 q 67 335 67 230 q 108 525 67 446 q 220 647 150 605 q 378 690 291 690 q 514 658 457 690 q 606 572 572 626 q 654 449 641 517 q 657 308 667 381 l 185 308 l 185 390 l 553 390 l 522 369 q 518 440 524 405 q 497 506 513 476 q 453 553 481 535 q 380 572 424 572 q 289 544 326 572 q 233 471 252 517 q 214 369 214 425 l 214 309 q 232 202 214 249 q 286 128 250 155 q 378 101 323 101 q 466 126 431 101 q 510 200 501 151 l 660 200 q 612 85 650 135 q 514 9 574 36 q 378 -19 454 -19 m 213 760 l 125 830 l 365 1043 l 605 830 l 517 760 l 338 927 l 390 927 l 213 760 z "},"ô":{"ha":778,"x_min":67,"x_max":712,"o":"m 390 -19 q 226 21 299 -19 q 110 139 153 60 q 67 335 67 217 q 110 533 67 454 q 226 650 153 611 q 390 690 299 690 q 553 650 481 690 q 669 533 626 611 q 712 335 712 454 q 669 139 712 217 q 553 21 626 60 q 390 -19 481 -19 m 385 110 q 479 136 439 110 q 541 213 519 163 q 563 335 563 263 q 519 503 563 445 q 395 562 475 562 q 301 536 342 562 q 239 459 261 510 q 217 335 217 409 q 261 168 217 226 q 385 110 306 110 m 237 760 l 149 830 l 389 1043 l 629 830 l 542 760 l 363 927 l 415 927 l 237 760 z "},"û":{"ha":863,"x_min":117,"x_max":730,"o":"m 582 673 l 730 673 l 730 0 l 582 0 l 582 673 m 117 673 l 265 673 l 265 259 q 300 153 265 189 q 397 117 335 117 q 491 144 449 117 q 558 224 533 172 q 582 351 582 276 l 625 351 q 593 150 625 231 q 504 28 561 69 q 372 -12 447 -12 q 241 14 299 -12 q 150 97 183 40 q 117 245 117 153 l 117 673 m 290 760 l 203 830 l 442 1043 l 683 830 l 595 760 l 416 927 l 468 927 l 290 760 z "},"Â":{"ha":849,"x_min":32,"x_max":816,"o":"m 32 0 l 337 893 l 522 893 l 816 0 l 660 0 l 594 203 l 256 203 l 189 0 l 32 0 m 294 315 l 558 315 l 427 716 l 294 315 m 279 982 l 192 1051 l 431 1265 l 672 1051 l 584 982 l 405 1149 l 457 1149 l 279 982 z "},"Ê":{"ha":805,"x_min":131,"x_max":698,"o":"m 131 0 l 131 893 l 698 893 l 698 765 l 279 765 l 279 512 l 673 512 l 673 384 l 279 384 l 279 129 l 698 129 l 698 0 l 131 0 m 249 982 l 162 1051 l 401 1265 l 642 1051 l 554 982 l 375 1149 l 427 1149 l 249 982 z "},"Î":{"ha":413,"x_min":-33,"x_max":447,"o":"m 133 0 l 133 893 l 281 893 l 281 0 l 133 0 m 53 982 l -34 1051 l 206 1265 l 446 1051 l 358 982 l 179 1149 l 231 1149 l 53 982 z "},"Ô":{"ha":933,"x_min":67,"x_max":867,"o":"m 467 -19 q 260 33 350 -19 q 118 189 169 85 q 67 447 67 292 q 118 706 67 603 q 260 860 169 809 q 467 910 350 910 q 674 859 584 910 q 816 704 765 807 q 867 447 867 601 q 816 187 867 290 q 674 32 765 83 q 467 -19 584 -19 m 467 116 q 647 201 581 116 q 714 448 714 286 q 647 691 714 605 q 467 778 581 778 q 287 691 354 778 q 220 447 220 604 q 287 201 220 285 q 467 116 354 116 m 317 982 l 230 1051 l 469 1265 l 710 1051 l 622 982 l 443 1149 l 495 1149 l 317 982 z "},"Û":{"ha":944,"x_min":117,"x_max":828,"o":"m 117 893 l 265 893 l 265 333 q 323 168 265 219 q 473 117 381 117 q 622 168 565 117 q 680 333 680 219 l 680 893 l 828 893 l 828 333 q 785 142 828 221 q 663 22 742 63 q 473 -19 583 -19 q 282 22 362 -19 q 160 142 203 63 q 117 333 117 221 l 117 893 m 319 982 l 232 1051 l 472 1265 l 712 1051 l 624 982 l 445 1149 l 497 1149 l 319 982 z "},"˜":{"ha":602,"x_min":67,"x_max":535,"o":"m 126 781 l 67 817 q 120 941 83 897 q 208 985 158 985 q 249 978 228 985 q 310 951 270 971 q 365 924 347 931 q 399 916 382 916 q 438 933 419 916 q 472 985 458 949 l 535 944 q 504 859 525 896 q 456 802 483 822 q 402 781 429 781 q 354 791 378 781 q 289 821 330 800 q 239 846 254 840 q 208 852 223 852 q 166 837 186 852 q 126 781 146 822 z "},"&":{"ha":1320,"x_min":126,"x_max":1248,"o":"m 1041 -19 q 923 9 978 -19 q 806 93 868 36 l 361 493 q 287 585 315 533 q 259 693 259 637 q 294 802 259 753 q 394 879 328 851 q 553 908 460 908 q 706 879 642 908 q 805 803 770 851 q 840 696 840 755 q 810 587 840 635 q 721 499 781 538 q 571 428 662 460 l 492 501 q 599 556 559 528 q 658 613 640 583 q 676 678 676 643 q 642 752 676 723 q 553 781 608 781 q 455 749 489 781 q 422 672 422 717 q 438 608 422 638 q 490 545 455 578 l 924 157 q 973 123 951 135 q 1026 112 994 112 q 1085 137 1060 112 q 1113 218 1110 162 l 1248 218 q 1193 45 1244 109 q 1041 -19 1142 -19 m 490 -19 q 348 2 414 -19 q 232 59 282 22 q 155 146 183 97 q 126 253 126 195 q 213 415 126 360 q 456 482 299 469 l 501 400 q 340 355 390 390 q 289 261 289 320 q 313 188 289 221 q 382 135 337 155 q 492 115 427 115 q 638 147 571 115 q 762 236 706 179 q 864 370 819 294 q 944 535 910 447 l 1044 480 q 954 280 1008 371 q 830 122 900 188 q 675 18 760 55 q 490 -19 590 -19 z "},"@":{"ha":1390,"x_min":93,"x_max":1322,"o":"m 780 -287 q 498 -243 624 -287 q 281 -119 372 -199 q 142 69 190 -39 q 93 306 93 178 q 143 547 93 437 q 281 739 192 657 q 490 865 370 820 q 751 910 610 910 q 987 872 882 910 q 1167 764 1092 833 q 1282 602 1242 694 q 1322 404 1322 510 q 1295 242 1322 313 q 1220 120 1267 170 q 1116 44 1174 70 q 996 18 1058 18 q 894 43 935 18 q 842 112 853 68 l 835 134 q 771 52 812 86 q 663 18 730 18 q 546 50 599 18 q 461 140 493 83 q 430 275 430 198 q 456 405 430 344 q 527 511 482 465 q 632 583 573 557 q 756 609 691 609 q 899 556 847 609 q 951 394 951 502 l 951 203 q 964 149 951 166 q 1001 132 976 132 q 1075 162 1035 132 q 1144 252 1115 192 q 1172 402 1172 313 q 1124 596 1172 511 q 982 729 1075 681 q 757 778 889 778 q 548 740 642 778 q 385 636 453 703 q 280 480 317 569 q 243 288 243 391 q 306 52 243 154 q 489 -109 369 -51 q 780 -167 609 -167 l 780 -287 m 687 138 q 770 167 738 138 q 832 251 803 197 l 832 393 q 815 467 832 440 q 754 495 797 495 q 667 468 711 495 q 594 391 624 440 q 564 276 564 342 q 599 172 564 207 q 687 138 634 138 z "},"¨":{"ha":572,"x_min":67,"x_max":505,"o":"m 414 792 q 350 817 376 792 q 324 878 324 842 q 350 940 324 915 q 414 965 376 965 q 479 940 453 965 q 505 878 505 915 q 479 817 505 842 q 414 792 453 792 m 157 792 q 92 817 117 792 q 67 876 67 842 q 92 939 67 915 q 157 963 117 963 q 223 939 197 963 q 249 876 249 915 q 223 817 249 842 q 157 792 197 792 z "},"ä":{"ha":799,"x_min":78,"x_max":685,"o":"m 556 0 l 538 158 l 538 433 q 506 545 538 510 q 403 581 474 581 q 332 569 363 581 q 284 534 301 557 q 267 476 267 510 l 105 476 q 141 599 105 552 q 245 668 178 646 q 403 690 312 690 q 551 662 488 690 q 650 577 615 635 q 685 428 685 519 l 685 0 l 556 0 m 334 -19 q 192 11 249 -19 q 107 90 135 41 q 78 194 78 138 q 112 302 78 259 q 207 366 146 345 q 348 388 267 388 q 452 378 403 388 q 551 355 502 369 l 551 267 q 465 288 512 281 q 377 296 417 296 q 276 273 316 296 q 236 194 236 249 q 268 124 236 153 q 369 95 300 95 q 459 118 422 95 q 517 176 497 141 q 538 245 538 210 l 573 245 q 545 114 573 174 q 465 18 518 54 q 334 -19 411 -19 m 527 792 q 463 817 490 792 q 437 878 437 842 q 463 940 437 915 q 527 965 490 965 q 592 940 566 965 q 618 878 618 915 q 592 817 618 842 q 527 792 566 792 m 270 792 q 205 817 231 792 q 180 876 180 842 q 205 939 180 915 q 270 963 231 963 q 336 939 310 963 q 362 876 362 915 q 336 817 362 842 q 270 792 310 792 z "},"ë":{"ha":730,"x_min":67,"x_max":667,"o":"m 378 -19 q 221 26 292 -19 q 109 150 151 70 q 67 335 67 230 q 108 525 67 446 q 220 647 150 605 q 378 690 291 690 q 514 658 457 690 q 606 572 572 626 q 654 449 641 517 q 657 308 667 381 l 185 308 l 185 390 l 553 390 l 522 369 q 518 440 524 405 q 497 506 513 476 q 453 553 481 535 q 380 572 424 572 q 289 544 326 572 q 233 471 252 517 q 214 369 214 425 l 214 309 q 232 202 214 249 q 286 128 250 155 q 378 101 323 101 q 466 126 431 101 q 510 200 501 151 l 660 200 q 612 85 650 135 q 514 9 574 36 q 378 -19 454 -19 m 493 792 q 429 817 456 792 q 403 878 403 842 q 429 940 403 915 q 493 965 456 965 q 558 940 532 965 q 584 878 584 915 q 558 817 584 842 q 493 792 532 792 m 236 792 q 171 817 197 792 q 146 876 146 842 q 171 939 146 915 q 236 963 197 963 q 302 939 276 963 q 328 876 328 915 q 302 817 328 842 q 236 792 276 792 z "},"ö":{"ha":778,"x_min":67,"x_max":712,"o":"m 390 -19 q 226 21 299 -19 q 110 139 153 60 q 67 335 67 217 q 110 533 67 454 q 226 650 153 611 q 390 690 299 690 q 553 650 481 690 q 669 533 626 611 q 712 335 712 454 q 669 139 712 217 q 553 21 626 60 q 390 -19 481 -19 m 385 110 q 479 136 439 110 q 541 213 519 163 q 563 335 563 263 q 519 503 563 445 q 395 562 475 562 q 301 536 342 562 q 239 459 261 510 q 217 335 217 409 q 261 168 217 226 q 385 110 306 110 m 517 792 q 453 817 480 792 q 427 878 427 842 q 453 940 427 915 q 517 965 480 965 q 582 940 556 965 q 608 878 608 915 q 582 817 608 842 q 517 792 556 792 m 260 792 q 195 817 221 792 q 170 876 170 842 q 195 939 170 915 q 260 963 221 963 q 326 939 300 963 q 352 876 352 915 q 326 817 352 842 q 260 792 300 792 z "},"ü":{"ha":863,"x_min":117,"x_max":730,"o":"m 582 673 l 730 673 l 730 0 l 582 0 l 582 673 m 117 673 l 265 673 l 265 259 q 300 153 265 189 q 397 117 335 117 q 491 144 449 117 q 558 224 533 172 q 582 351 582 276 l 625 351 q 593 150 625 231 q 504 28 561 69 q 372 -12 447 -12 q 241 14 299 -12 q 150 97 183 40 q 117 245 117 153 l 117 673 m 571 792 q 507 817 533 792 q 481 878 481 842 q 507 940 481 915 q 571 965 533 965 q 636 940 610 965 q 662 878 662 915 q 636 817 662 842 q 571 792 610 792 m 314 792 q 249 817 274 792 q 224 876 224 842 q 249 939 224 915 q 314 963 274 963 q 380 939 353 963 q 406 876 406 915 q 380 817 406 842 q 314 792 353 792 z "},"Ä":{"ha":849,"x_min":32,"x_max":816,"o":"m 32 0 l 337 893 l 522 893 l 816 0 l 660 0 l 594 203 l 256 203 l 189 0 l 32 0 m 294 315 l 558 315 l 427 716 l 294 315 m 560 1013 q 496 1038 522 1013 q 469 1099 469 1063 q 496 1160 469 1135 q 560 1185 522 1185 q 625 1160 599 1185 q 651 1099 651 1135 q 625 1038 651 1063 q 560 1013 599 1013 m 303 1013 q 238 1038 263 1013 q 213 1097 213 1063 q 238 1160 213 1135 q 303 1184 263 1184 q 368 1160 342 1184 q 394 1097 394 1135 q 368 1038 394 1063 q 303 1013 342 1013 z "},"Ë":{"ha":805,"x_min":131,"x_max":698,"o":"m 131 0 l 131 893 l 698 893 l 698 765 l 279 765 l 279 512 l 673 512 l 673 384 l 279 384 l 279 129 l 698 129 l 698 0 l 131 0 m 530 1013 q 466 1038 492 1013 q 440 1099 440 1063 q 466 1160 440 1135 q 530 1185 492 1185 q 595 1160 569 1185 q 621 1099 621 1135 q 595 1038 621 1063 q 530 1013 569 1013 m 273 1013 q 208 1038 233 1013 q 183 1097 183 1063 q 208 1160 183 1135 q 273 1184 233 1184 q 339 1160 313 1184 q 365 1097 365 1135 q 339 1038 365 1063 q 273 1013 313 1013 z "},"Ï":{"ha":413,"x_min":-12,"x_max":426,"o":"m 133 0 l 133 893 l 281 893 l 281 0 l 133 0 m 334 1013 q 270 1038 297 1013 q 244 1099 244 1063 q 270 1160 244 1135 q 334 1185 297 1185 q 399 1160 373 1185 q 425 1099 425 1135 q 399 1038 425 1063 q 334 1013 373 1013 m 77 1013 q 12 1038 38 1013 q -13 1097 -13 1063 q 12 1160 -13 1135 q 77 1184 38 1184 q 143 1160 117 1184 q 169 1097 169 1135 q 143 1038 169 1063 q 77 1013 117 1013 z "},"Ö":{"ha":933,"x_min":67,"x_max":867,"o":"m 467 -19 q 260 33 350 -19 q 118 189 169 85 q 67 447 67 292 q 118 706 67 603 q 260 860 169 809 q 467 910 350 910 q 674 859 584 910 q 816 704 765 807 q 867 447 867 601 q 816 187 867 290 q 674 32 765 83 q 467 -19 584 -19 m 467 116 q 647 201 581 116 q 714 448 714 286 q 647 691 714 605 q 467 778 581 778 q 287 691 354 778 q 220 447 220 604 q 287 201 220 285 q 467 116 354 116 m 598 1013 q 534 1038 560 1013 q 508 1099 508 1063 q 534 1160 508 1135 q 598 1185 560 1185 q 663 1160 637 1185 q 689 1099 689 1135 q 663 1038 689 1063 q 598 1013 637 1013 m 341 1013 q 276 1038 301 1013 q 251 1097 251 1063 q 276 1160 251 1135 q 341 1184 301 1184 q 407 1160 381 1184 q 433 1097 433 1135 q 407 1038 433 1063 q 341 1013 381 1013 z "},"Ü":{"ha":944,"x_min":117,"x_max":828,"o":"m 117 893 l 265 893 l 265 333 q 323 168 265 219 q 473 117 381 117 q 622 168 565 117 q 680 333 680 219 l 680 893 l 828 893 l 828 333 q 785 142 828 221 q 663 22 742 63 q 473 -19 583 -19 q 282 22 362 -19 q 160 142 203 63 q 117 333 117 221 l 117 893 m 600 1013 q 536 1038 563 1013 q 510 1099 510 1063 q 536 1160 510 1135 q 600 1185 563 1185 q 665 1160 639 1185 q 691 1099 691 1135 q 665 1038 691 1063 q 600 1013 639 1013 m 343 1013 q 278 1038 303 1013 q 253 1097 253 1063 q 278 1160 253 1135 q 343 1184 303 1184 q 409 1160 383 1184 q 435 1097 435 1135 q 409 1038 435 1063 q 343 1013 383 1013 z "},"ì":{"ha":444,"x_min":42,"x_max":394,"o":"m 144 0 l 144 673 l 292 673 l 292 0 l 144 0 m 322 777 l 42 1009 l 142 1090 l 394 835 l 322 777 z "},"í":{"ha":444,"x_min":103,"x_max":454,"o":"m 144 0 l 144 673 l 292 673 l 292 0 l 144 0 m 174 774 l 102 833 l 355 1088 l 454 1006 l 174 774 z "},"î":{"ha":444,"x_min":-22,"x_max":458,"o":"m 144 0 l 144 673 l 292 673 l 292 0 l 144 0 m 65 760 l -22 830 l 217 1043 l 458 830 l 370 760 l 191 927 l 243 927 l 65 760 z "},"ï":{"ha":444,"x_min":-1,"x_max":437,"o":"m 144 0 l 144 673 l 292 673 l 292 0 l 144 0 m 346 792 q 282 817 308 792 q 256 878 256 842 q 282 940 256 915 q 346 965 308 965 q 411 940 385 965 q 437 878 437 915 q 411 817 437 842 q 346 792 385 792 m 89 792 q 24 817 49 792 q -1 876 -1 842 q 24 939 -1 915 q 89 963 49 963 q 155 939 128 963 q 181 876 181 915 q 155 817 181 842 q 89 792 128 792 z "},"<":{"ha":678,"x_min":61,"x_max":615,"o":"m 517 839 l 615 726 l 167 409 l 167 472 l 615 157 l 517 44 l 61 374 l 61 506 l 517 839 z "},">":{"ha":678,"x_min":63,"x_max":617,"o":"m 161 44 l 63 157 l 510 472 l 510 409 l 63 726 l 161 839 l 617 506 l 617 374 l 161 44 z "},"\"":{"ha":500,"x_min":43,"x_max":458,"o":"m 328 628 l 308 951 l 458 951 l 438 628 l 328 628 m 62 628 l 43 951 l 192 951 l 172 628 l 62 628 z "},"#":{"ha":921,"x_min":78,"x_max":860,"o":"m 189 45 l 208 230 l 78 230 l 87 328 l 219 328 l 243 556 l 111 556 l 121 653 l 253 653 l 273 836 l 412 836 l 392 653 l 588 653 l 608 836 l 746 836 l 727 653 l 860 653 l 850 556 l 716 556 l 693 328 l 826 328 l 817 230 l 683 230 l 663 45 l 524 45 l 544 230 l 347 230 l 328 45 l 189 45 m 358 328 l 553 328 l 578 556 l 382 556 l 358 328 z "},"*":{"ha":569,"x_min":72,"x_max":503,"o":"m 108 613 l 228 728 l 72 781 l 111 872 l 251 801 l 236 970 l 339 970 l 324 801 l 464 874 l 503 782 l 349 729 l 470 613 l 394 547 l 289 688 l 182 547 l 108 613 z "},"/":{"ha":639,"x_min":75,"x_max":581,"o":"m 75 -108 l 430 1029 l 581 1029 l 224 -108 l 75 -108 z "},"%":{"ha":1047,"x_min":85,"x_max":972,"o":"m 149 0 l 753 893 l 903 893 l 300 0 l 149 0 m 784 -15 q 693 8 735 -15 q 625 77 651 31 q 599 193 599 124 q 625 309 599 263 q 693 378 651 355 q 784 401 735 401 q 877 378 834 401 q 946 309 920 355 q 972 193 972 263 q 946 77 972 124 q 877 8 920 31 q 784 -15 834 -15 m 784 82 q 838 107 817 82 q 859 193 859 133 q 838 278 859 252 q 784 305 817 305 q 731 278 751 305 q 710 193 710 252 q 731 107 710 133 q 784 82 751 82 m 270 497 q 179 519 222 497 q 111 589 137 542 q 85 704 85 635 q 111 818 85 772 q 179 887 137 864 q 270 910 222 910 q 363 887 320 910 q 432 818 406 864 q 458 704 458 772 q 432 589 458 635 q 363 519 406 542 q 270 497 320 497 m 270 592 q 324 618 303 592 q 344 704 344 644 q 324 789 344 763 q 270 815 303 815 q 217 789 237 815 q 197 704 197 763 q 217 618 197 644 q 270 592 237 592 z "},"\\":{"ha":639,"x_min":58,"x_max":565,"o":"m 58 1029 l 413 -108 l 565 -108 l 208 1029 l 58 1029 z "},"|":{"ha":413,"x_min":133,"x_max":281,"o":"m 133 -169 l 133 1062 l 281 1062 l 281 -169 l 133 -169 z "},"[":{"ha":474,"x_min":133,"x_max":456,"o":"m 133 -180 l 133 1074 l 456 1074 l 456 940 l 281 940 l 281 -47 l 456 -47 l 456 -180 l 133 -180 z "},"]":{"ha":445,"x_min":-10,"x_max":314,"o":"m 313 -180 l 313 1074 l -10 1074 l -10 940 l 165 940 l 165 -47 l -10 -47 l -10 -180 l 313 -180 z "},"^":{"ha":699,"x_min":28,"x_max":678,"o":"m 28 313 l 294 831 l 413 831 l 678 313 l 515 313 l 325 717 l 381 717 l 192 313 l 28 313 z "},"_":{"ha":1049,"x_min":76,"x_max":974,"o":"m 76 0 l 76 129 l 974 129 l 974 0 l 76 0 z "},"{":{"ha":526,"x_min":100,"x_max":519,"o":"m 519 -210 q 323 -165 398 -210 q 213 -43 248 -121 q 178 133 178 34 l 178 260 q 169 341 178 318 q 132 363 159 363 l 100 363 l 100 512 l 132 512 q 169 534 159 512 q 178 615 178 556 l 178 743 q 213 920 178 843 q 323 1040 248 997 q 519 1084 398 1084 l 519 951 q 371 899 417 951 q 325 741 325 847 l 325 609 q 301 501 325 542 q 240 441 277 460 l 240 435 q 301 374 277 416 q 325 267 325 333 l 325 135 q 371 -24 325 28 q 519 -76 417 -76 l 519 -210 z "},"}":{"ha":526,"x_min":7,"x_max":426,"o":"m 7 -210 q 203 -165 128 -210 q 313 -43 278 -121 q 347 133 347 34 l 347 260 q 357 341 347 318 q 394 363 367 363 l 426 363 l 426 512 l 394 512 q 357 534 367 512 q 347 615 347 556 l 347 743 q 313 920 347 843 q 203 1040 278 997 q 7 1084 128 1084 l 7 951 q 155 899 109 951 q 201 741 201 847 l 201 609 q 225 501 201 542 q 286 441 249 460 l 286 435 q 225 374 249 416 q 201 267 201 333 l 201 135 q 155 -24 201 28 q 7 -76 109 -76 l 7 -210 z "},"~":{"ha":769,"x_min":78,"x_max":691,"o":"m 157 291 l 78 334 q 142 468 101 419 q 247 517 183 517 q 309 507 276 517 q 394 478 342 498 q 474 449 447 457 q 521 441 501 441 q 572 461 548 441 q 612 519 595 481 l 691 468 q 617 342 664 383 q 510 301 571 301 q 454 309 488 301 q 369 340 421 318 q 292 366 317 358 q 245 375 266 375 q 197 356 219 375 q 157 291 175 337 z "},"ã":{"ha":799,"x_min":78,"x_max":685,"o":"m 556 0 l 538 158 l 538 433 q 506 545 538 510 q 403 581 474 581 q 332 569 363 581 q 284 534 301 557 q 267 476 267 510 l 105 476 q 141 599 105 552 q 245 668 178 646 q 403 690 312 690 q 551 662 488 690 q 650 577 615 635 q 685 428 685 519 l 685 0 l 556 0 m 334 -19 q 192 11 249 -19 q 107 90 135 41 q 78 194 78 138 q 112 302 78 259 q 207 366 146 345 q 348 388 267 388 q 452 378 403 388 q 551 355 502 369 l 551 267 q 465 288 512 281 q 377 296 417 296 q 276 273 316 296 q 236 194 236 249 q 268 124 236 153 q 369 95 300 95 q 459 118 422 95 q 517 176 497 141 q 538 245 538 210 l 573 245 q 545 114 573 174 q 465 18 518 54 q 334 -19 411 -19 m 224 777 l 165 813 q 218 937 181 893 q 306 981 256 981 q 347 974 326 981 q 408 947 368 967 q 463 919 445 927 q 497 912 480 912 q 536 928 517 912 q 570 981 556 945 l 633 940 q 602 855 623 892 q 554 798 581 818 q 500 777 527 777 q 452 786 476 777 q 387 817 428 796 q 336 842 352 835 q 306 848 321 848 q 264 833 284 848 q 224 777 244 818 z "},"ñ":{"ha":858,"x_min":133,"x_max":745,"o":"m 598 0 l 598 393 q 559 516 598 474 q 456 557 520 557 q 364 528 403 557 q 302 443 324 499 q 281 305 281 387 l 230 305 q 262 517 230 432 q 353 646 294 603 q 494 690 413 690 q 632 653 576 690 q 717 549 688 616 q 745 393 745 483 l 745 0 l 598 0 m 133 0 l 133 671 l 261 671 l 281 532 l 281 0 l 133 0 m 267 784 l 207 820 q 261 944 224 900 q 349 988 298 988 q 389 981 368 988 q 450 953 410 974 q 505 926 488 934 q 539 919 522 919 q 578 935 559 919 q 613 988 598 952 l 675 947 q 644 862 665 899 q 597 805 624 825 q 542 784 569 784 q 494 793 518 784 q 429 824 470 803 q 379 849 394 842 q 349 855 363 855 q 306 840 326 855 q 267 784 286 825 z "},"õ":{"ha":778,"x_min":67,"x_max":712,"o":"m 390 -19 q 226 21 299 -19 q 110 139 153 60 q 67 335 67 217 q 110 533 67 454 q 226 650 153 611 q 390 690 299 690 q 553 650 481 690 q 669 533 626 611 q 712 335 712 454 q 669 139 712 217 q 553 21 626 60 q 390 -19 481 -19 m 385 110 q 479 136 439 110 q 541 213 519 163 q 563 335 563 263 q 519 503 563 445 q 395 562 475 562 q 301 536 342 562 q 239 459 261 510 q 217 335 217 409 q 261 168 217 226 q 385 110 306 110 m 215 777 l 156 813 q 209 937 172 893 q 297 981 247 981 q 338 974 317 981 q 399 947 359 967 q 453 919 436 927 q 488 912 471 912 q 527 928 508 912 q 561 981 547 945 l 624 940 q 593 855 614 892 q 545 798 572 818 q 491 777 518 777 q 443 786 467 777 q 378 817 419 796 q 327 842 343 835 q 297 848 312 848 q 255 833 275 848 q 215 777 235 818 z "},"Ã":{"ha":849,"x_min":32,"x_max":816,"o":"m 32 0 l 337 893 l 522 893 l 816 0 l 660 0 l 594 203 l 256 203 l 189 0 l 32 0 m 294 315 l 558 315 l 427 716 l 294 315 m 257 999 l 197 1035 q 251 1159 214 1115 q 339 1203 288 1203 q 380 1195 358 1203 q 440 1168 401 1188 q 495 1141 478 1149 q 529 1133 513 1133 q 569 1150 549 1133 q 603 1203 588 1167 l 665 1161 q 635 1076 656 1113 q 587 1019 614 1040 q 533 999 560 999 q 484 1008 508 999 q 419 1038 460 1017 q 369 1063 385 1057 q 339 1069 353 1069 q 297 1055 317 1069 q 257 999 276 1040 z "},"Ñ":{"ha":983,"x_min":130,"x_max":850,"o":"m 130 893 l 295 893 l 714 228 l 702 228 l 702 893 l 850 893 l 850 0 l 697 0 l 254 699 l 278 699 l 278 0 l 130 0 l 130 893 m 317 999 l 257 1035 q 311 1159 274 1115 q 399 1203 348 1203 q 439 1195 418 1203 q 500 1168 460 1188 q 555 1141 538 1149 q 589 1133 572 1133 q 628 1150 609 1133 q 663 1203 648 1167 l 725 1161 q 694 1076 715 1113 q 647 1019 674 1040 q 592 999 619 999 q 544 1008 568 999 q 479 1038 520 1017 q 429 1063 444 1057 q 399 1069 413 1069 q 356 1055 376 1069 q 317 999 336 1040 z "},"Õ":{"ha":933,"x_min":67,"x_max":867,"o":"m 467 -19 q 260 33 350 -19 q 118 189 169 85 q 67 447 67 292 q 118 706 67 603 q 260 860 169 809 q 467 910 350 910 q 674 859 584 910 q 816 704 765 807 q 867 447 867 601 q 816 187 867 290 q 674 32 765 83 q 467 -19 584 -19 m 467 116 q 647 201 581 116 q 714 448 714 286 q 647 691 714 605 q 467 778 581 778 q 287 691 354 778 q 220 447 220 604 q 287 201 220 285 q 467 116 354 116 m 296 999 l 236 1035 q 290 1159 253 1115 q 378 1203 327 1203 q 418 1195 397 1203 q 479 1168 440 1188 q 534 1141 517 1149 q 568 1133 551 1133 q 608 1150 588 1133 q 642 1203 627 1167 l 704 1161 q 674 1076 694 1113 q 626 1019 653 1040 q 572 999 599 999 q 523 1008 547 999 q 458 1038 499 1017 q 408 1063 424 1057 q 378 1069 392 1069 q 335 1055 356 1069 q 296 999 315 1040 z "},"Æ":{"ha":1210,"x_min":57,"x_max":1103,"o":"m 1103 893 l 1103 765 l 689 765 l 715 788 l 715 453 l 689 508 l 1077 508 l 1077 381 l 689 381 l 715 422 l 715 64 l 689 130 l 1103 130 l 1103 0 l 567 0 l 567 253 l 592 203 l 238 203 l 310 249 l 210 0 l 57 0 l 413 893 l 1103 893 m 592 315 l 567 273 l 565 786 l 592 765 l 478 765 l 537 820 l 322 280 l 281 315 l 592 315 z "},"Ă":{"ha":849,"x_min":32,"x_max":816,"o":"m 32 0 l 337 893 l 522 893 l 816 0 l 660 0 l 594 203 l 256 203 l 189 0 l 32 0 m 294 315 l 558 315 l 427 716 l 294 315 m 432 1026 q 276 1081 333 1026 q 219 1231 219 1136 l 338 1231 q 363 1151 338 1178 q 431 1123 388 1123 q 501 1151 476 1123 q 526 1231 526 1178 l 644 1231 q 587 1081 644 1136 q 432 1026 530 1026 z "},"Ā":{"ha":849,"x_min":32,"x_max":816,"o":"m 32 0 l 337 893 l 522 893 l 816 0 l 660 0 l 594 203 l 256 203 l 189 0 l 32 0 m 294 315 l 558 315 l 427 716 l 294 315 m 198 1153 l 665 1153 l 665 1032 l 198 1032 l 198 1153 z "},"Ą":{"ha":849,"x_min":32,"x_max":896,"o":"m 32 0 l 337 893 l 522 893 l 816 0 l 660 0 l 594 203 l 256 203 l 189 0 l 32 0 m 294 315 l 558 315 l 427 716 l 294 315 m 896 -228 q 805 -264 851 -251 q 713 -277 758 -277 q 593 -244 640 -277 q 547 -151 547 -212 q 585 -52 547 -100 q 698 27 623 -3 l 807 0 q 691 -58 734 -27 q 648 -126 648 -88 q 672 -165 648 -153 q 725 -177 695 -177 q 788 -167 756 -177 q 861 -135 819 -158 l 896 -228 z "},"Å":{"ha":849,"x_min":32,"x_max":816,"o":"m 32 0 l 337 893 l 522 893 l 816 0 l 660 0 l 594 203 l 256 203 l 189 0 l 32 0 m 294 315 l 558 315 l 427 716 l 294 315 m 432 967 q 353 989 389 967 q 296 1045 317 1010 q 274 1124 274 1081 q 296 1204 274 1168 q 353 1261 317 1240 q 432 1283 389 1283 q 511 1261 476 1283 q 569 1204 547 1240 q 590 1124 590 1168 q 569 1045 590 1081 q 511 989 547 1010 q 432 967 476 967 m 432 1067 q 473 1084 456 1067 q 490 1124 490 1101 q 473 1166 490 1149 q 432 1182 456 1182 q 392 1166 408 1182 q 375 1124 375 1149 q 392 1084 375 1101 q 432 1067 408 1067 z "},"Ć":{"ha":872,"x_min":67,"x_max":808,"o":"m 453 -19 q 249 38 335 -19 q 114 200 162 95 q 67 449 67 305 q 117 703 67 600 q 254 858 167 806 q 453 910 342 910 q 693 836 606 910 q 808 642 781 761 l 649 613 q 575 731 626 686 q 453 776 524 776 q 339 740 390 776 q 257 631 288 704 q 226 449 226 558 q 252 274 226 349 q 329 158 278 199 q 453 117 379 117 q 597 166 545 117 q 649 293 649 215 l 808 293 q 765 125 808 194 q 642 18 722 56 q 453 -19 562 -19 m 403 996 l 331 1054 l 584 1309 l 683 1228 l 403 996 z "},"Č":{"ha":872,"x_min":67,"x_max":808,"o":"m 453 -19 q 249 38 335 -19 q 114 200 162 95 q 67 449 67 305 q 117 703 67 600 q 254 858 167 806 q 453 910 342 910 q 693 836 606 910 q 808 642 781 761 l 649 613 q 575 731 626 686 q 453 776 524 776 q 339 740 390 776 q 257 631 288 704 q 226 449 226 558 q 252 274 226 349 q 329 158 278 199 q 453 117 379 117 q 597 166 545 117 q 649 293 649 215 l 808 293 q 765 125 808 194 q 642 18 722 56 q 453 -19 562 -19 m 451 994 l 211 1207 l 299 1276 l 476 1094 l 424 1094 l 603 1276 l 691 1207 l 451 994 z "},"Ç":{"ha":872,"x_min":67,"x_max":808,"o":"m 453 -19 q 249 38 335 -19 q 114 200 162 95 q 67 449 67 305 q 117 703 67 600 q 254 858 167 806 q 453 910 342 910 q 693 836 606 910 q 808 642 781 761 l 649 613 q 575 731 626 686 q 453 776 524 776 q 339 740 390 776 q 257 631 288 704 q 226 449 226 558 q 252 274 226 349 q 329 158 278 199 q 453 117 379 117 q 597 166 545 117 q 649 293 649 215 l 808 293 q 765 125 808 194 q 642 18 722 56 q 453 -19 562 -19 m 322 -253 l 344 -199 q 430 -225 392 -222 q 490 -216 467 -228 q 515 -181 513 -203 q 500 -144 517 -160 q 454 -116 483 -128 q 387 -96 424 -104 l 440 50 l 509 41 l 460 -92 l 438 -51 q 546 -83 504 -62 q 607 -131 588 -103 q 624 -189 626 -158 q 589 -253 621 -229 q 511 -286 558 -278 q 414 -286 464 -294 q 322 -253 363 -278 z "},"Ċ":{"ha":872,"x_min":67,"x_max":808,"o":"m 453 -19 q 249 38 335 -19 q 114 200 162 95 q 67 449 67 305 q 117 703 67 600 q 254 858 167 806 q 453 910 342 910 q 693 836 606 910 q 808 642 781 761 l 649 613 q 575 731 626 686 q 453 776 524 776 q 339 740 390 776 q 257 631 288 704 q 226 449 226 558 q 252 274 226 349 q 329 158 278 199 q 453 117 379 117 q 597 166 545 117 q 649 293 649 215 l 808 293 q 765 125 808 194 q 642 18 722 56 q 453 -19 562 -19 z "},"Ď":{"ha":943,"x_min":133,"x_max":866,"o":"m 133 893 l 414 893 q 651 838 550 893 q 809 683 753 783 q 866 446 866 583 q 809 211 866 311 q 651 55 753 110 q 414 0 550 0 l 133 0 l 133 893 m 281 760 l 281 132 l 414 132 q 570 173 504 132 q 671 285 635 214 q 707 446 707 356 q 671 608 707 538 q 570 719 635 678 q 414 760 504 760 l 281 760 m 476 994 l 236 1207 l 324 1276 l 501 1094 l 449 1094 l 628 1276 l 716 1207 l 476 994 z "},"Đ":{"ha":943,"x_min":31,"x_max":866,"o":"m 31 510 l 469 510 l 469 383 l 31 383 l 31 510 m 133 893 l 414 893 q 651 838 550 893 q 809 683 753 783 q 866 446 866 583 q 809 211 866 311 q 651 55 753 110 q 414 0 550 0 l 133 0 l 133 893 m 281 760 l 281 132 l 414 132 q 570 173 504 132 q 671 285 635 214 q 707 446 707 356 q 671 608 707 538 q 570 719 635 678 q 414 760 504 760 l 281 760 z "},"Δ":{"ha":849,"x_min":32,"x_max":816,"o":"m 32 0 l 337 893 l 522 893 l 816 0 l 660 0 l 427 716 l 189 0 l 32 0 m 117 0 l 117 129 l 717 129 l 717 0 l 117 0 z "},"∕":{"ha":390,"x_min":-197,"x_max":593,"o":"z "},"Ě":{"ha":805,"x_min":131,"x_max":698,"o":"m 131 0 l 131 893 l 698 893 l 698 765 l 279 765 l 279 512 l 673 512 l 673 384 l 279 384 l 279 129 l 698 129 l 698 0 l 131 0 m 406 994 l 167 1207 l 254 1276 l 432 1094 l 380 1094 l 559 1276 l 647 1207 l 406 994 z "},"Ė":{"ha":805,"x_min":131,"x_max":698,"o":"m 131 0 l 131 893 l 698 893 l 698 765 l 279 765 l 279 512 l 673 512 l 673 384 l 279 384 l 279 129 l 698 129 l 698 0 l 131 0 z "},"Ē":{"ha":805,"x_min":131,"x_max":698,"o":"m 131 0 l 131 893 l 698 893 l 698 765 l 279 765 l 279 512 l 673 512 l 673 384 l 279 384 l 279 129 l 698 129 l 698 0 l 131 0 m 169 1153 l 636 1153 l 636 1032 l 169 1032 l 169 1153 z "},"Ŋ":{"ha":983,"x_min":130,"x_max":850,"o":"m 628 -347 q 529 -334 575 -347 q 435 -301 483 -322 l 440 -173 q 516 -205 476 -192 q 593 -217 555 -217 q 677 -186 646 -217 q 708 -82 708 -155 l 703 402 l 850 402 l 850 -85 q 791 -286 850 -226 q 628 -347 731 -347 m 130 893 l 295 893 l 714 228 l 702 228 l 702 893 l 850 893 l 850 0 l 801 -159 l 254 699 l 278 699 l 278 0 l 130 0 l 130 893 z "},"Ę":{"ha":805,"x_min":131,"x_max":698,"o":"m 131 0 l 131 893 l 698 893 l 698 765 l 279 765 l 279 512 l 673 512 l 673 384 l 279 384 l 279 129 l 698 129 l 698 0 l 131 0 m 617 -228 q 526 -264 573 -251 q 434 -277 479 -277 q 315 -244 361 -277 q 268 -151 268 -212 q 306 -52 268 -100 q 419 27 344 -3 l 528 0 q 413 -58 456 -27 q 369 -126 369 -88 q 393 -165 369 -153 q 447 -177 417 -177 q 509 -167 477 -177 q 583 -135 541 -158 l 617 -228 z "},"Ð":{"ha":943,"x_min":31,"x_max":866,"o":"m 31 510 l 469 510 l 469 383 l 31 383 l 31 510 m 133 893 l 414 893 q 651 838 550 893 q 809 683 753 783 q 866 446 866 583 q 809 211 866 311 q 651 55 753 110 q 414 0 550 0 l 133 0 l 133 893 m 281 760 l 281 132 l 414 132 q 570 173 504 132 q 671 285 635 214 q 707 446 707 356 q 671 608 707 538 q 570 719 635 678 q 414 760 504 760 l 281 760 z "},"Ğ":{"ha":927,"x_min":67,"x_max":824,"o":"m 455 -19 q 259 39 347 -19 q 119 199 171 96 q 67 440 67 301 q 99 639 67 551 q 189 786 131 726 q 323 879 247 847 q 488 910 400 910 q 691 859 608 910 q 824 698 774 808 l 675 660 q 589 747 637 717 q 481 776 540 776 q 353 736 411 776 q 260 620 295 695 q 226 440 226 544 q 256 272 226 344 q 340 158 285 199 q 467 117 394 117 q 574 144 527 117 q 649 223 622 171 q 676 349 676 274 l 712 349 q 685 154 712 237 q 602 26 658 72 q 455 -19 545 -19 m 699 0 l 676 201 l 676 353 l 469 358 l 469 453 l 819 453 l 819 0 l 699 0 m 464 1026 q 308 1081 365 1026 q 251 1231 251 1136 l 369 1231 q 395 1151 369 1178 q 463 1123 420 1123 q 533 1151 508 1123 q 558 1231 558 1178 l 676 1231 q 619 1081 676 1136 q 464 1026 562 1026 z "},"Ģ":{"ha":927,"x_min":67,"x_max":824,"o":"m 455 -19 q 259 39 347 -19 q 119 199 171 96 q 67 440 67 301 q 99 639 67 551 q 189 786 131 726 q 323 879 247 847 q 488 910 400 910 q 691 859 608 910 q 824 698 774 808 l 675 660 q 589 747 637 717 q 481 776 540 776 q 353 736 411 776 q 260 620 295 695 q 226 440 226 544 q 256 272 226 344 q 340 158 285 199 q 467 117 394 117 q 574 144 527 117 q 649 223 622 171 q 676 349 676 274 l 712 349 q 685 154 712 237 q 602 26 658 72 q 455 -19 545 -19 m 699 0 l 676 201 l 676 353 l 469 358 l 469 453 l 819 453 l 819 0 l 699 0 m 431 -310 l 359 -273 q 420 -235 394 -256 q 455 -185 445 -214 q 411 -165 428 -181 q 397 -123 394 -149 q 419 -78 398 -96 q 471 -60 440 -60 q 529 -87 508 -60 q 549 -153 551 -113 q 516 -240 547 -196 q 431 -310 485 -283 z "},"Ġ":{"ha":927,"x_min":67,"x_max":824,"o":"m 455 -19 q 259 39 347 -19 q 119 199 171 96 q 67 440 67 301 q 99 639 67 551 q 189 786 131 726 q 323 879 247 847 q 488 910 400 910 q 691 859 608 910 q 824 698 774 808 l 675 660 q 589 747 637 717 q 481 776 540 776 q 353 736 411 776 q 260 620 295 695 q 226 440 226 544 q 256 272 226 344 q 340 158 285 199 q 467 117 394 117 q 574 144 527 117 q 649 223 622 171 q 676 349 676 274 l 712 349 q 685 154 712 237 q 602 26 658 72 q 455 -19 545 -19 m 699 0 l 676 201 l 676 353 l 469 358 l 469 453 l 819 453 l 819 0 l 699 0 z "},"ẞ":{"ha":887,"x_min":133,"x_max":814,"o":"m 711 747 q 693 662 711 696 q 650 603 674 628 q 608 558 626 578 q 590 512 590 537 q 612 464 590 485 q 668 423 635 444 q 735 375 701 402 q 791 309 768 348 q 814 212 814 269 q 778 91 814 142 q 684 11 742 39 q 560 -17 626 -17 q 472 -7 520 -17 q 384 23 423 3 l 385 143 q 464 102 426 115 q 540 89 502 89 q 605 103 580 89 q 640 142 629 118 q 651 195 651 166 q 630 272 651 240 q 578 327 609 303 q 517 374 548 351 q 465 424 485 397 q 444 488 444 451 q 464 553 444 526 q 510 604 483 580 q 556 656 536 628 q 576 725 576 685 q 536 808 576 777 q 431 840 497 840 q 316 791 351 840 q 282 633 282 742 l 282 0 l 133 0 l 133 636 q 169 812 133 741 q 273 920 205 883 q 438 956 341 956 q 585 930 524 956 q 679 856 647 903 q 711 747 711 808 z "},"Ħ":{"ha":965,"x_min":133,"x_max":832,"o":"m 133 893 l 281 893 l 281 474 l 685 474 l 685 893 l 832 893 l 832 0 l 685 0 l 685 345 l 281 345 l 281 0 l 133 0 l 133 893 m 209 581 l 209 692 l 765 692 l 765 581 l 209 581 z "},"İ":{"ha":413,"x_min":112,"x_max":319,"o":"m 133 0 l 133 893 l 281 893 l 281 0 l 133 0 z "},"Ī":{"ha":413,"x_min":52,"x_max":360,"o":"m 133 0 l 133 893 l 281 893 l 281 0 l 133 0 m 52 1153 l 361 1153 l 361 1032 l 52 1032 l 52 1153 z "},"Į":{"ha":413,"x_min":19,"x_max":369,"o":"m 133 0 l 133 893 l 281 893 l 281 0 l 133 0 m 369 -228 q 277 -264 324 -251 q 185 -277 231 -277 q 66 -244 113 -277 q 19 -151 19 -212 q 58 -52 19 -100 q 171 27 96 -3 l 280 0 q 164 -58 207 -27 q 121 -126 121 -88 q 144 -165 121 -153 q 198 -177 168 -177 q 260 -167 228 -177 q 334 -135 292 -158 l 369 -228 z "},"Ķ":{"ha":890,"x_min":133,"x_max":876,"o":"m 648 893 l 851 893 l 267 294 l 267 498 l 648 893 m 433 522 l 876 0 l 685 0 l 330 426 l 433 522 m 133 893 l 282 893 l 282 0 l 133 0 l 133 893 m 412 -310 l 340 -273 q 401 -235 376 -256 q 436 -185 426 -214 q 393 -165 410 -181 q 378 -123 376 -149 q 400 -78 379 -96 q 452 -60 422 -60 q 510 -87 489 -60 q 530 -153 532 -113 q 497 -240 528 -196 q 412 -310 467 -283 z "},"Ĺ":{"ha":676,"x_min":133,"x_max":656,"o":"m 281 893 l 281 129 l 656 129 l 656 0 l 133 0 l 133 893 l 281 893 m 310 996 l 238 1054 l 491 1309 l 590 1228 l 310 996 z "},"Ľ":{"ha":676,"x_min":118,"x_max":656,"o":"m 281 893 l 281 129 l 656 129 l 656 0 l 133 0 l 133 893 l 281 893 m 358 994 l 118 1207 l 206 1276 l 383 1094 l 331 1094 l 510 1276 l 598 1207 l 358 994 z "},"Ļ":{"ha":676,"x_min":133,"x_max":656,"o":"m 281 893 l 281 129 l 656 129 l 656 0 l 133 0 l 133 893 l 281 893 m 305 -310 l 233 -273 q 294 -235 269 -256 q 329 -185 319 -214 q 286 -165 303 -181 q 271 -123 269 -149 q 293 -78 272 -96 q 345 -60 315 -60 q 403 -87 382 -60 q 423 -153 425 -113 q 390 -240 421 -196 q 305 -310 360 -283 z "},"Ł":{"ha":676,"x_min":28,"x_max":656,"o":"m 51 437 l 28 563 l 395 625 l 418 499 l 51 437 m 281 893 l 281 129 l 656 129 l 656 0 l 133 0 l 133 893 l 281 893 z "},"Ń":{"ha":983,"x_min":130,"x_max":850,"o":"m 130 893 l 295 893 l 714 228 l 702 228 l 702 893 l 850 893 l 850 0 l 697 0 l 254 699 l 278 699 l 278 0 l 130 0 l 130 893 m 447 996 l 376 1054 l 628 1309 l 728 1228 l 447 996 z "},"Ň":{"ha":983,"x_min":130,"x_max":850,"o":"m 130 893 l 295 893 l 714 228 l 702 228 l 702 893 l 850 893 l 850 0 l 697 0 l 254 699 l 278 699 l 278 0 l 130 0 l 130 893 m 496 994 l 256 1207 l 344 1276 l 522 1094 l 469 1094 l 649 1276 l 736 1207 l 496 994 z "},"Ņ":{"ha":983,"x_min":130,"x_max":850,"o":"m 130 893 l 295 893 l 714 228 l 702 228 l 702 893 l 850 893 l 850 0 l 697 0 l 254 699 l 278 699 l 278 0 l 130 0 l 130 893 m 458 -310 l 387 -273 q 448 -235 422 -256 q 483 -185 473 -214 q 439 -165 456 -181 q 424 -123 422 -149 q 447 -78 426 -96 q 499 -60 468 -60 q 557 -87 535 -60 q 576 -153 578 -113 q 544 -240 574 -196 q 458 -310 513 -283 z "},"Œ":{"ha":1236,"x_min":67,"x_max":1130,"o":"m 449 -19 q 251 34 338 -19 q 116 190 165 86 q 67 449 67 294 q 116 707 67 604 q 252 860 165 809 q 449 910 338 910 q 603 883 535 910 q 710 804 671 856 l 622 733 q 545 766 588 753 q 456 778 501 778 q 282 691 344 778 q 220 444 220 603 q 282 202 220 288 q 458 116 343 116 q 547 129 506 116 q 627 163 588 142 l 710 69 q 603 7 671 33 q 449 -19 536 -19 m 617 0 l 617 893 l 1130 893 l 1130 765 l 731 765 l 761 799 l 761 478 l 731 512 l 1105 512 l 1105 384 l 731 384 l 761 417 l 761 96 l 731 129 l 1130 129 l 1130 0 l 617 0 z "},"Ő":{"ha":933,"x_min":67,"x_max":867,"o":"m 467 -19 q 260 33 350 -19 q 118 189 169 85 q 67 447 67 292 q 118 706 67 603 q 260 860 169 809 q 467 910 350 910 q 674 859 584 910 q 816 704 765 807 q 867 447 867 601 q 816 187 867 290 q 674 32 765 83 q 467 -19 584 -19 m 467 116 q 647 201 581 116 q 714 448 714 286 q 647 691 714 605 q 467 778 581 778 q 287 691 354 778 q 220 447 220 604 q 287 201 220 285 q 467 116 354 116 m 588 987 l 513 1001 l 535 1233 l 641 1210 l 588 987 m 408 997 l 330 1007 l 339 1242 l 447 1224 l 408 997 z "},"Ō":{"ha":933,"x_min":67,"x_max":867,"o":"m 467 -19 q 260 33 350 -19 q 118 189 169 85 q 67 447 67 292 q 118 706 67 603 q 260 860 169 809 q 467 910 350 910 q 674 859 584 910 q 816 704 765 807 q 867 447 867 601 q 816 187 867 290 q 674 32 765 83 q 467 -19 584 -19 m 467 116 q 647 201 581 116 q 714 448 714 286 q 647 691 714 605 q 467 778 581 778 q 287 691 354 778 q 220 447 220 604 q 287 201 220 285 q 467 116 354 116 m 237 1153 l 704 1153 l 704 1032 l 237 1032 l 237 1153 z "},"Ω":{"ha":933,"x_min":67,"x_max":867,"o":"m 397 28 q 277 55 335 28 q 170 133 218 81 q 95 264 123 185 q 67 447 67 342 q 118 706 67 603 q 260 860 169 809 q 467 910 350 910 q 674 859 584 910 q 816 704 765 807 q 867 447 867 601 q 839 262 867 341 q 763 132 810 183 q 656 54 715 80 q 535 28 597 28 l 535 99 q 618 141 577 99 q 686 261 659 183 q 714 448 714 340 q 647 691 714 605 q 467 778 581 778 q 287 691 354 778 q 220 447 220 604 q 248 261 220 339 q 316 141 275 183 q 397 99 357 99 l 397 28 m 67 -1 l 67 99 l 397 99 l 397 -1 l 67 -1 m 535 -1 l 535 99 l 865 99 l 865 -1 l 535 -1 z "},"Ø":{"ha":933,"x_min":48,"x_max":870,"o":"m 48 0 l 744 894 l 870 894 l 172 0 l 48 0 m 466 -19 q 259 33 349 -19 q 118 189 169 85 q 67 447 67 292 q 118 706 67 603 q 259 860 169 809 q 466 910 349 910 q 674 859 583 910 q 815 704 764 807 q 867 447 867 601 q 815 187 867 290 q 674 32 764 83 q 466 -19 583 -19 m 466 116 q 647 201 580 116 q 713 448 713 286 q 647 691 713 605 q 466 778 580 778 q 287 691 354 778 q 219 447 219 604 q 287 201 219 285 q 466 116 354 116 z "},"Ŕ":{"ha":881,"x_min":133,"x_max":813,"o":"m 133 0 l 133 893 l 457 893 q 699 819 615 893 q 783 622 783 744 q 699 427 783 501 q 457 353 615 353 l 281 353 l 281 0 l 133 0 m 620 0 l 378 415 l 537 415 l 813 0 l 620 0 m 281 453 l 443 453 q 583 497 535 453 q 631 609 631 540 q 587 723 631 680 q 457 765 543 765 l 281 765 l 281 453 m 397 996 l 326 1054 l 578 1309 l 678 1228 l 397 996 z "},"Ř":{"ha":881,"x_min":133,"x_max":813,"o":"m 133 0 l 133 893 l 457 893 q 699 819 615 893 q 783 622 783 744 q 699 427 783 501 q 457 353 615 353 l 281 353 l 281 0 l 133 0 m 620 0 l 378 415 l 537 415 l 813 0 l 620 0 m 281 453 l 443 453 q 583 497 535 453 q 631 609 631 540 q 587 723 631 680 q 457 765 543 765 l 281 765 l 281 453 m 445 994 l 206 1207 l 293 1276 l 471 1094 l 419 1094 l 598 1276 l 685 1207 l 445 994 z "},"Ŗ":{"ha":881,"x_min":133,"x_max":813,"o":"m 133 0 l 133 893 l 457 893 q 699 819 615 893 q 783 622 783 744 q 699 427 783 501 q 457 353 615 353 l 281 353 l 281 0 l 133 0 m 620 0 l 378 415 l 537 415 l 813 0 l 620 0 m 281 453 l 443 453 q 583 497 535 453 q 631 609 631 540 q 587 723 631 680 q 457 765 543 765 l 281 765 l 281 453 m 408 -310 l 336 -273 q 397 -235 372 -256 q 432 -185 422 -214 q 389 -165 406 -181 q 374 -123 372 -149 q 396 -78 375 -96 q 448 -60 417 -60 q 506 -87 485 -60 q 526 -153 528 -113 q 493 -240 524 -196 q 408 -310 463 -283 z "},"Ś":{"ha":872,"x_min":92,"x_max":780,"o":"m 436 -19 q 267 14 344 -19 q 143 111 190 46 q 92 276 95 176 l 237 276 q 264 186 237 222 q 336 134 291 151 q 435 117 381 117 q 530 132 489 117 q 595 174 572 147 q 618 237 618 201 q 589 314 618 285 q 497 363 559 342 l 326 429 q 165 522 221 469 q 110 669 110 575 q 194 843 110 776 q 431 910 278 910 q 657 842 576 910 q 749 655 738 774 l 603 655 q 552 743 594 710 q 431 776 511 776 q 314 745 356 776 q 272 665 272 713 q 298 601 272 624 q 381 556 325 577 l 574 484 q 726 389 672 447 q 780 242 780 331 q 740 105 780 164 q 623 14 700 47 q 436 -19 547 -19 m 392 996 l 321 1054 l 574 1309 l 673 1228 l 392 996 z "},"Š":{"ha":872,"x_min":92,"x_max":780,"o":"m 436 -19 q 267 14 344 -19 q 143 111 190 46 q 92 276 95 176 l 237 276 q 264 186 237 222 q 336 134 291 151 q 435 117 381 117 q 530 132 489 117 q 595 174 572 147 q 618 237 618 201 q 589 314 618 285 q 497 363 559 342 l 326 429 q 165 522 221 469 q 110 669 110 575 q 194 843 110 776 q 431 910 278 910 q 657 842 576 910 q 749 655 738 774 l 603 655 q 552 743 594 710 q 431 776 511 776 q 314 745 356 776 q 272 665 272 713 q 298 601 272 624 q 381 556 325 577 l 574 484 q 726 389 672 447 q 780 242 780 331 q 740 105 780 164 q 623 14 700 47 q 436 -19 547 -19 m 440 994 l 201 1207 l 288 1276 l 466 1094 l 414 1094 l 593 1276 l 681 1207 l 440 994 z "},"Ş":{"ha":872,"x_min":92,"x_max":780,"o":"m 436 -19 q 267 14 344 -19 q 143 111 190 46 q 92 276 95 176 l 237 276 q 264 186 237 222 q 336 134 291 151 q 435 117 381 117 q 530 132 489 117 q 595 174 572 147 q 618 237 618 201 q 589 314 618 285 q 497 363 559 342 l 326 429 q 165 522 221 469 q 110 669 110 575 q 194 843 110 776 q 431 910 278 910 q 657 842 576 910 q 749 655 738 774 l 603 655 q 552 743 594 710 q 431 776 511 776 q 314 745 356 776 q 272 665 272 713 q 298 601 272 624 q 381 556 325 577 l 574 484 q 726 389 672 447 q 780 242 780 331 q 740 105 780 164 q 623 14 700 47 q 436 -19 547 -19 m 301 -253 l 324 -199 q 409 -225 372 -222 q 470 -216 447 -228 q 494 -181 492 -203 q 480 -144 497 -160 q 434 -116 463 -128 q 367 -96 404 -104 l 419 50 l 489 41 l 440 -92 l 418 -51 q 526 -83 484 -62 q 586 -131 567 -103 q 603 -189 606 -158 q 569 -253 601 -229 q 491 -286 538 -278 q 393 -286 444 -294 q 301 -253 343 -278 z "},"Ș":{"ha":872,"x_min":92,"x_max":780,"o":"m 436 -19 q 267 14 344 -19 q 143 111 190 46 q 92 276 95 176 l 237 276 q 264 186 237 222 q 336 134 291 151 q 435 117 381 117 q 530 132 489 117 q 595 174 572 147 q 618 237 618 201 q 589 314 618 285 q 497 363 559 342 l 326 429 q 165 522 221 469 q 110 669 110 575 q 194 843 110 776 q 431 910 278 910 q 657 842 576 910 q 749 655 738 774 l 603 655 q 552 743 594 710 q 431 776 511 776 q 314 745 356 776 q 272 665 272 713 q 298 601 272 624 q 381 556 325 577 l 574 484 q 726 389 672 447 q 780 242 780 331 q 740 105 780 164 q 623 14 700 47 q 436 -19 547 -19 m 407 -310 l 335 -273 q 396 -235 371 -256 q 431 -185 422 -214 q 388 -165 405 -181 q 373 -123 371 -149 q 395 -78 374 -96 q 447 -60 417 -60 q 506 -87 484 -60 q 525 -153 527 -113 q 492 -240 523 -196 q 407 -310 462 -283 z "},"Ŧ":{"ha":726,"x_min":8,"x_max":718,"o":"m 8 765 l 8 893 l 718 893 l 718 765 l 404 765 l 437 799 l 437 0 l 289 0 l 289 799 l 322 765 l 8 765 m 113 358 l 113 478 l 591 478 l 591 358 l 113 358 z "},"Ť":{"ha":726,"x_min":8,"x_max":718,"o":"m 8 765 l 8 893 l 718 893 l 718 765 l 404 765 l 437 799 l 437 0 l 289 0 l 289 799 l 322 765 l 8 765 m 367 994 l 128 1207 l 215 1276 l 393 1094 l 341 1094 l 520 1276 l 608 1207 l 367 994 z "},"Ţ":{"ha":726,"x_min":8,"x_max":718,"o":"m 8 765 l 8 893 l 718 893 l 718 765 l 404 765 l 437 799 l 437 0 l 289 0 l 289 799 l 322 765 l 8 765 m 189 -251 l 211 -197 q 297 -223 259 -220 q 357 -214 335 -226 q 382 -178 380 -201 q 367 -142 384 -158 q 321 -114 351 -126 q 254 -94 292 -102 l 307 52 l 376 43 l 328 -90 l 306 -49 q 413 -81 372 -60 q 474 -128 455 -101 q 491 -187 493 -156 q 457 -251 488 -227 q 378 -284 425 -276 q 281 -284 331 -292 q 189 -251 231 -276 z "},"Ț":{"ha":726,"x_min":8,"x_max":718,"o":"m 8 765 l 8 893 l 718 893 l 718 765 l 404 765 l 437 799 l 437 0 l 289 0 l 289 799 l 322 765 l 8 765 m 295 -308 l 224 -271 q 284 -233 259 -253 q 319 -183 310 -212 q 276 -163 293 -179 q 261 -121 259 -147 q 284 -76 263 -94 q 335 -58 305 -58 q 394 -85 372 -58 q 413 -151 415 -111 q 381 -237 411 -194 q 295 -308 350 -281 z "},"Þ":{"ha":796,"x_min":128,"x_max":751,"o":"m 128 0 l 128 893 l 278 893 l 278 714 l 244 747 l 436 747 q 668 673 585 747 q 751 465 751 599 q 668 258 751 333 q 436 184 585 184 l 244 184 l 278 217 l 278 0 l 128 0 m 278 281 l 244 313 l 436 313 q 557 356 516 313 q 599 465 599 398 q 557 576 599 533 q 436 619 516 619 l 244 619 l 278 653 l 278 281 z "},"Ű":{"ha":944,"x_min":117,"x_max":828,"o":"m 117 893 l 265 893 l 265 333 q 323 168 265 219 q 473 117 381 117 q 622 168 565 117 q 680 333 680 219 l 680 893 l 828 893 l 828 333 q 785 142 828 221 q 663 22 742 63 q 473 -19 583 -19 q 282 22 362 -19 q 160 142 203 63 q 117 333 117 221 l 117 893 m 589 987 l 514 1001 l 537 1233 l 642 1210 l 589 987 m 409 997 l 331 1007 l 340 1242 l 448 1224 l 409 997 z "},"Ū":{"ha":944,"x_min":117,"x_max":828,"o":"m 117 893 l 265 893 l 265 333 q 323 168 265 219 q 473 117 381 117 q 622 168 565 117 q 680 333 680 219 l 680 893 l 828 893 l 828 333 q 785 142 828 221 q 663 22 742 63 q 473 -19 583 -19 q 282 22 362 -19 q 160 142 203 63 q 117 333 117 221 l 117 893 m 238 1153 l 706 1153 l 706 1032 l 238 1032 l 238 1153 z "},"Ų":{"ha":944,"x_min":117,"x_max":828,"o":"m 117 893 l 265 893 l 265 333 q 323 168 265 219 q 473 117 381 117 q 622 168 565 117 q 680 333 680 219 l 680 893 l 828 893 l 828 333 q 785 142 828 221 q 663 22 742 63 q 473 -19 583 -19 q 282 22 362 -19 q 160 142 203 63 q 117 333 117 221 l 117 893 m 669 -228 q 577 -264 624 -251 q 485 -277 531 -277 q 366 -244 413 -277 q 319 -151 319 -212 q 358 -52 319 -100 q 471 27 396 -3 l 580 0 q 464 -58 507 -27 q 421 -126 421 -88 q 444 -165 421 -153 q 498 -177 468 -177 q 560 -167 528 -177 q 634 -135 592 -158 l 669 -228 z "},"Ů":{"ha":944,"x_min":117,"x_max":828,"o":"m 117 893 l 265 893 l 265 333 q 323 168 265 219 q 473 117 381 117 q 622 168 565 117 q 680 333 680 219 l 680 893 l 828 893 l 828 333 q 785 142 828 221 q 663 22 742 63 q 473 -19 583 -19 q 282 22 362 -19 q 160 142 203 63 q 117 333 117 221 l 117 893 m 472 967 q 393 989 429 967 q 336 1045 358 1010 q 315 1124 315 1081 q 336 1204 315 1168 q 393 1261 358 1240 q 472 1283 429 1283 q 552 1261 516 1283 q 609 1204 588 1240 q 631 1124 631 1168 q 609 1045 631 1081 q 552 989 588 1010 q 472 967 516 967 m 472 1067 q 513 1084 497 1067 q 530 1124 530 1101 q 513 1166 530 1149 q 472 1182 497 1182 q 432 1166 449 1182 q 415 1124 415 1149 q 432 1084 415 1101 q 472 1067 449 1067 z "},"Ẃ":{"ha":1294,"x_min":15,"x_max":1277,"o":"m 15 893 l 181 893 l 401 131 l 363 131 l 583 824 l 683 824 l 908 140 l 873 140 l 1111 893 l 1277 893 l 968 0 l 813 0 l 629 549 l 646 549 l 460 0 l 305 0 l 15 893 m 600 1003 l 528 1061 l 781 1316 l 881 1235 l 600 1003 z "},"Ŵ":{"ha":1294,"x_min":15,"x_max":1277,"o":"m 15 893 l 181 893 l 401 131 l 363 131 l 583 824 l 683 824 l 908 140 l 873 140 l 1111 893 l 1277 893 l 968 0 l 813 0 l 629 549 l 646 549 l 460 0 l 305 0 l 15 893 m 491 989 l 403 1058 l 643 1272 l 883 1058 l 796 989 l 617 1156 l 669 1156 l 491 989 z "},"Ẅ":{"ha":1294,"x_min":15,"x_max":1277,"o":"m 15 893 l 181 893 l 401 131 l 363 131 l 583 824 l 683 824 l 908 140 l 873 140 l 1111 893 l 1277 893 l 968 0 l 813 0 l 629 549 l 646 549 l 460 0 l 305 0 l 15 893 m 772 1021 q 708 1045 734 1021 q 681 1106 681 1070 q 708 1168 681 1143 q 772 1193 734 1193 q 836 1168 810 1193 q 863 1106 863 1143 q 836 1045 863 1070 q 772 1021 810 1021 m 515 1021 q 450 1045 475 1021 q 424 1105 424 1070 q 450 1167 424 1143 q 515 1192 475 1192 q 580 1167 554 1192 q 606 1105 606 1143 q 580 1045 606 1070 q 515 1021 554 1021 z "},"Ẁ":{"ha":1294,"x_min":15,"x_max":1277,"o":"m 15 893 l 181 893 l 401 131 l 363 131 l 583 824 l 683 824 l 908 140 l 873 140 l 1111 893 l 1277 893 l 968 0 l 813 0 l 629 549 l 646 549 l 460 0 l 305 0 l 15 893 m 748 1006 l 467 1238 l 567 1319 l 819 1064 l 748 1006 z "},"Ý":{"ha":799,"x_min":10,"x_max":788,"o":"m 10 893 l 187 893 l 412 495 l 381 495 l 613 893 l 788 893 l 469 368 l 469 0 l 321 0 l 321 368 l 10 893 m 356 996 l 285 1054 l 538 1309 l 637 1228 l 356 996 z "},"Ŷ":{"ha":799,"x_min":10,"x_max":788,"o":"m 10 893 l 187 893 l 412 495 l 381 495 l 613 893 l 788 893 l 469 368 l 469 0 l 321 0 l 321 368 l 10 893 m 247 982 l 160 1051 l 399 1265 l 640 1051 l 552 982 l 373 1149 l 425 1149 l 247 982 z "},"Ÿ":{"ha":799,"x_min":10,"x_max":788,"o":"m 10 893 l 187 893 l 412 495 l 381 495 l 613 893 l 788 893 l 469 368 l 469 0 l 321 0 l 321 368 l 10 893 m 528 1013 q 464 1038 490 1013 q 438 1099 438 1063 q 464 1160 438 1135 q 528 1185 490 1185 q 593 1160 567 1185 q 619 1099 619 1135 q 593 1038 619 1063 q 528 1013 567 1013 m 271 1013 q 206 1038 231 1013 q 181 1097 181 1063 q 206 1160 181 1135 q 271 1184 231 1184 q 336 1160 310 1184 q 363 1097 363 1135 q 336 1038 363 1063 q 271 1013 310 1013 z "},"Ỳ":{"ha":799,"x_min":10,"x_max":788,"o":"m 10 893 l 187 893 l 412 495 l 381 495 l 613 893 l 788 893 l 469 368 l 469 0 l 321 0 l 321 368 l 10 893 m 504 998 l 224 1230 l 324 1311 l 576 1056 l 504 998 z "},"Ź":{"ha":858,"x_min":101,"x_max":772,"o":"m 101 0 l 101 129 l 628 810 l 628 756 l 101 758 l 101 893 l 772 893 l 772 765 l 272 117 l 267 138 l 772 135 l 772 0 l 101 0 m 406 996 l 334 1054 l 587 1309 l 686 1228 l 406 996 z "},"Ž":{"ha":858,"x_min":101,"x_max":772,"o":"m 101 0 l 101 129 l 628 810 l 628 756 l 101 758 l 101 893 l 772 893 l 772 765 l 272 117 l 267 138 l 772 135 l 772 0 l 101 0 m 453 994 l 214 1207 l 301 1276 l 479 1094 l 427 1094 l 606 1276 l 694 1207 l 453 994 z "},"Ż":{"ha":858,"x_min":101,"x_max":772,"o":"m 101 0 l 101 129 l 628 810 l 628 756 l 101 758 l 101 893 l 772 893 l 772 765 l 272 117 l 267 138 l 772 135 l 772 0 l 101 0 z "},"ă":{"ha":799,"x_min":78,"x_max":685,"o":"m 556 0 l 538 158 l 538 433 q 506 545 538 510 q 403 581 474 581 q 332 569 363 581 q 284 534 301 557 q 267 476 267 510 l 105 476 q 141 599 105 552 q 245 668 178 646 q 403 690 312 690 q 551 662 488 690 q 650 577 615 635 q 685 428 685 519 l 685 0 l 556 0 m 334 -19 q 192 11 249 -19 q 107 90 135 41 q 78 194 78 138 q 112 302 78 259 q 207 366 146 345 q 348 388 267 388 q 452 378 403 388 q 551 355 502 369 l 551 267 q 465 288 512 281 q 377 296 417 296 q 276 273 316 296 q 236 194 236 249 q 268 124 236 153 q 369 95 300 95 q 459 118 422 95 q 517 176 497 141 q 538 245 538 210 l 573 245 q 545 114 573 174 q 465 18 518 54 q 334 -19 411 -19 m 399 805 q 244 860 301 805 q 187 1010 187 915 l 305 1010 q 330 930 305 958 q 399 902 356 902 q 468 930 443 902 q 493 1010 493 958 l 611 1010 q 554 860 611 915 q 399 805 497 805 z "},"́":{"ha":0,"x_min":67,"x_max":419,"o":"m 138 777 l 67 835 l 319 1090 l 419 1009 l 138 777 z "},"æ":{"ha":1191,"x_min":78,"x_max":1128,"o":"m 549 210 l 529 210 l 529 433 q 497 544 529 508 q 397 581 464 581 q 329 569 358 581 q 284 534 300 557 q 267 476 267 510 l 105 476 q 141 599 105 552 q 237 668 177 646 q 369 690 297 690 q 520 657 460 690 q 612 561 581 624 q 642 408 642 499 l 642 299 l 549 210 m 329 -19 q 193 10 249 -19 q 108 88 138 39 q 78 195 78 136 q 111 302 78 259 q 203 366 144 344 q 340 388 263 388 q 443 378 392 388 q 543 355 495 369 l 543 267 q 455 288 504 281 q 371 296 406 296 q 275 273 313 296 q 236 197 236 249 q 266 125 236 154 q 357 95 297 95 q 449 117 410 95 q 508 174 488 140 q 529 245 529 209 l 625 245 q 591 120 625 181 q 491 20 557 60 q 329 -19 425 -19 m 847 -19 q 684 28 756 -19 q 573 155 613 74 q 532 338 532 236 q 573 520 532 441 q 683 644 613 599 q 843 690 753 690 q 976 658 920 690 q 1068 571 1033 626 q 1116 449 1103 517 q 1118 308 1128 381 l 647 308 l 647 390 l 1015 390 l 983 369 q 980 440 985 405 q 958 506 974 476 q 914 553 942 535 q 841 572 885 572 q 751 544 788 572 q 695 471 714 517 q 676 369 676 425 l 676 309 q 693 202 676 249 q 748 128 711 155 q 840 101 785 101 q 927 125 891 101 q 972 200 963 149 l 1122 200 q 1073 85 1112 135 q 976 9 1035 36 q 847 -19 917 -19 z "},"ā":{"ha":799,"x_min":78,"x_max":685,"o":"m 556 0 l 538 158 l 538 433 q 506 545 538 510 q 403 581 474 581 q 332 569 363 581 q 284 534 301 557 q 267 476 267 510 l 105 476 q 141 599 105 552 q 245 668 178 646 q 403 690 312 690 q 551 662 488 690 q 650 577 615 635 q 685 428 685 519 l 685 0 l 556 0 m 334 -19 q 192 11 249 -19 q 107 90 135 41 q 78 194 78 138 q 112 302 78 259 q 207 366 146 345 q 348 388 267 388 q 452 378 403 388 q 551 355 502 369 l 551 267 q 465 288 512 281 q 377 296 417 296 q 276 273 316 296 q 236 194 236 249 q 268 124 236 153 q 369 95 300 95 q 459 118 422 95 q 517 176 497 141 q 538 245 538 210 l 573 245 q 545 114 573 174 q 465 18 518 54 q 334 -19 411 -19 m 165 933 l 633 933 l 633 811 l 165 811 l 165 933 z "},"ą":{"ha":799,"x_min":78,"x_max":774,"o":"m 556 0 l 538 158 l 538 433 q 506 545 538 510 q 403 581 474 581 q 332 569 363 581 q 284 534 301 557 q 267 476 267 510 l 105 476 q 141 599 105 552 q 245 668 178 646 q 403 690 312 690 q 551 662 488 690 q 650 577 615 635 q 685 428 685 519 l 685 0 l 556 0 m 334 -19 q 192 11 249 -19 q 107 90 135 41 q 78 194 78 138 q 112 302 78 259 q 207 366 146 345 q 348 388 267 388 q 452 378 403 388 q 551 355 502 369 l 551 267 q 465 288 512 281 q 377 296 417 296 q 276 273 316 296 q 236 194 236 249 q 268 124 236 153 q 369 95 300 95 q 459 118 422 95 q 517 176 497 141 q 538 245 538 210 l 573 245 q 545 114 573 174 q 465 18 518 54 q 334 -19 411 -19 m 774 -228 q 683 -264 730 -251 q 591 -277 636 -277 q 472 -244 518 -277 q 425 -151 425 -212 q 463 -52 425 -100 q 576 27 501 -3 l 685 0 q 569 -58 613 -27 q 526 -126 526 -88 q 550 -165 526 -153 q 603 -177 574 -177 q 666 -167 634 -177 q 740 -135 698 -158 l 774 -228 z "},"≈":{"ha":769,"x_min":90,"x_max":680,"o":"m 165 353 l 90 394 q 153 524 113 478 q 254 569 192 569 q 313 560 281 569 q 394 532 344 551 q 467 505 442 514 q 513 497 493 497 q 565 514 542 497 q 605 571 587 532 l 680 524 q 610 403 655 444 q 508 363 566 363 q 451 372 481 363 q 371 400 422 381 q 325 417 347 409 q 284 430 303 425 q 251 434 265 434 q 203 415 224 434 q 165 353 182 397 m 165 90 l 90 131 q 153 261 113 216 q 254 307 192 307 q 313 298 281 307 q 394 269 344 288 q 467 243 442 251 q 513 234 493 234 q 565 252 542 234 q 605 308 587 269 l 680 260 q 610 140 655 181 q 508 100 565 100 q 451 109 481 100 q 371 137 422 118 q 325 155 347 147 q 284 167 303 163 q 251 172 265 172 q 203 153 224 172 q 165 90 182 134 z "},"å":{"ha":799,"x_min":78,"x_max":685,"o":"m 556 0 l 538 158 l 538 433 q 506 545 538 510 q 403 581 474 581 q 332 569 363 581 q 284 534 301 557 q 267 476 267 510 l 105 476 q 141 599 105 552 q 245 668 178 646 q 403 690 312 690 q 551 662 488 690 q 650 577 615 635 q 685 428 685 519 l 685 0 l 556 0 m 334 -19 q 192 11 249 -19 q 107 90 135 41 q 78 194 78 138 q 112 302 78 259 q 207 366 146 345 q 348 388 267 388 q 452 378 403 388 q 551 355 502 369 l 551 267 q 465 288 512 281 q 377 296 417 296 q 276 273 316 296 q 236 194 236 249 q 268 124 236 153 q 369 95 300 95 q 459 118 422 95 q 517 176 497 141 q 538 245 538 210 l 573 245 q 545 114 573 174 q 465 18 518 54 q 334 -19 411 -19 m 399 747 q 320 768 356 747 q 263 825 285 789 q 242 903 242 860 q 263 983 242 947 q 320 1040 285 1019 q 399 1062 356 1062 q 479 1040 443 1062 q 536 983 515 1019 q 558 903 558 947 q 536 825 558 860 q 479 768 515 789 q 399 747 443 747 m 399 847 q 440 863 424 847 q 457 903 457 880 q 440 945 457 928 q 399 961 424 961 q 359 945 376 961 q 342 903 342 928 q 359 863 342 880 q 399 847 376 847 z "},"˘":{"ha":558,"x_min":67,"x_max":491,"o":"m 279 805 q 124 860 181 805 q 67 1010 67 915 l 185 1010 q 210 930 185 958 q 278 902 235 902 q 348 930 323 902 q 373 1010 373 958 l 491 1010 q 434 860 491 915 q 279 805 377 805 z "},"̆":{"ha":0,"x_min":67,"x_max":491,"o":"m 279 805 q 124 860 181 805 q 67 1010 67 915 l 185 1010 q 210 930 185 958 q 278 902 235 902 q 348 930 323 902 q 373 1010 373 958 l 491 1010 q 434 860 491 915 q 279 805 377 805 z "},"¦":{"ha":413,"x_min":133,"x_max":281,"o":"m 133 513 l 133 1062 l 281 1062 l 281 513 l 133 513 m 133 -169 l 133 379 l 281 379 l 281 -169 l 133 -169 z "},"•":{"ha":431,"x_min":38,"x_max":424,"o":"z "},"ć":{"ha":730,"x_min":67,"x_max":660,"o":"m 381 -19 q 227 25 299 -19 q 111 149 155 69 q 67 336 67 228 q 111 528 67 449 q 227 649 155 608 q 381 690 299 690 q 493 669 444 690 q 577 615 542 649 q 633 539 612 581 q 660 453 653 497 l 510 448 q 464 526 497 496 q 380 557 431 557 q 301 533 338 557 q 240 461 263 510 q 217 336 217 413 q 238 215 217 265 q 297 141 260 166 q 380 115 334 115 q 479 148 447 115 q 510 235 510 180 l 660 235 q 628 107 660 165 q 533 15 595 49 q 381 -19 470 -19 m 338 774 l 266 833 l 519 1088 l 618 1006 l 338 774 z "},"ˇ":{"ha":613,"x_min":67,"x_max":547,"o":"m 306 774 l 67 986 l 154 1056 l 332 873 l 280 873 l 459 1056 l 547 986 l 306 774 z "},"̌":{"ha":0,"x_min":67,"x_max":547,"o":"m 306 774 l 67 986 l 154 1056 l 332 873 l 280 873 l 459 1056 l 547 986 l 306 774 z "},"č":{"ha":730,"x_min":67,"x_max":660,"o":"m 381 -19 q 227 25 299 -19 q 111 149 155 69 q 67 336 67 228 q 111 528 67 449 q 227 649 155 608 q 381 690 299 690 q 493 669 444 690 q 577 615 542 649 q 633 539 612 581 q 660 453 653 497 l 510 448 q 464 526 497 496 q 380 557 431 557 q 301 533 338 557 q 240 461 263 510 q 217 336 217 413 q 238 215 217 265 q 297 141 260 166 q 380 115 334 115 q 479 148 447 115 q 510 235 510 180 l 660 235 q 628 107 660 165 q 533 15 595 49 q 381 -19 470 -19 m 385 774 l 146 986 l 233 1056 l 411 873 l 359 873 l 538 1056 l 626 986 l 385 774 z "},"ç":{"ha":730,"x_min":67,"x_max":660,"o":"m 381 -19 q 227 25 299 -19 q 111 149 155 69 q 67 336 67 228 q 111 528 67 449 q 227 649 155 608 q 381 690 299 690 q 493 669 444 690 q 577 615 542 649 q 633 539 612 581 q 660 453 653 497 l 510 448 q 464 526 497 496 q 380 557 431 557 q 301 533 338 557 q 240 461 263 510 q 217 336 217 413 q 238 215 217 265 q 297 141 260 166 q 380 115 334 115 q 479 148 447 115 q 510 235 510 180 l 660 235 q 628 107 660 165 q 533 15 595 49 q 381 -19 470 -19 m 241 -251 l 263 -197 q 349 -224 311 -221 q 409 -215 387 -227 q 434 -179 432 -202 q 419 -142 436 -158 q 373 -115 403 -126 q 306 -94 344 -103 l 359 51 l 428 42 l 380 -91 l 358 -49 q 465 -82 424 -61 q 526 -129 507 -102 q 543 -187 545 -156 q 509 -252 540 -228 q 430 -285 477 -276 q 333 -285 383 -293 q 241 -251 283 -276 z "},"ċ":{"ha":730,"x_min":67,"x_max":660,"o":"m 381 -19 q 227 25 299 -19 q 111 149 155 69 q 67 336 67 228 q 111 528 67 449 q 227 649 155 608 q 381 690 299 690 q 493 669 444 690 q 577 615 542 649 q 633 539 612 581 q 660 453 653 497 l 510 448 q 464 526 497 496 q 380 557 431 557 q 301 533 338 557 q 240 461 263 510 q 217 336 217 413 q 238 215 217 265 q 297 141 260 166 q 380 115 334 115 q 479 148 447 115 q 510 235 510 180 l 660 235 q 628 107 660 165 q 533 15 595 49 q 381 -19 470 -19 z "},"¸":{"ha":435,"x_min":67,"x_max":371,"o":"m 67 -253 l 89 -199 q 175 -225 137 -222 q 235 -216 213 -228 q 260 -181 258 -203 q 245 -144 262 -160 q 199 -116 228 -128 q 132 -96 169 -104 l 185 50 l 254 41 l 206 -92 l 183 -51 q 291 -83 249 -62 q 352 -131 333 -103 q 369 -189 371 -158 q 334 -253 366 -229 q 256 -286 303 -278 q 159 -286 209 -294 q 67 -253 108 -278 z "},"̧":{"ha":0,"x_min":67,"x_max":371,"o":"m 67 -253 l 89 -199 q 175 -225 137 -222 q 235 -216 213 -228 q 260 -181 258 -203 q 245 -144 262 -160 q 199 -116 228 -128 q 132 -96 169 -104 l 185 50 l 254 41 l 206 -92 l 183 -51 q 291 -83 249 -62 q 352 -131 333 -103 q 369 -189 371 -158 q 334 -253 366 -229 q 256 -286 303 -278 q 159 -286 209 -294 q 67 -253 108 -278 z "},"¢":{"ha":728,"x_min":67,"x_max":660,"o":"m 317 -149 l 317 24 l 440 24 l 440 -149 l 317 -149 m 317 653 l 317 809 l 440 809 l 440 653 l 317 653 m 381 -19 q 227 25 299 -19 q 111 149 155 69 q 67 336 67 228 q 111 528 67 449 q 227 649 155 608 q 381 690 299 690 q 493 669 444 690 q 577 615 542 649 q 633 539 612 581 q 660 453 653 497 l 510 448 q 464 526 497 496 q 380 557 431 557 q 301 533 338 557 q 240 461 263 510 q 217 336 217 413 q 238 215 217 265 q 297 141 260 166 q 380 115 334 115 q 479 148 447 115 q 510 235 510 180 l 660 235 q 628 107 660 165 q 533 15 595 49 q 381 -19 470 -19 z "},"̂":{"ha":0,"x_min":67,"x_max":547,"o":"m 154 767 l 67 836 l 306 1049 l 547 836 l 459 767 l 280 933 l 332 933 l 154 767 z "},"̦":{"ha":0,"x_min":67,"x_max":258,"o":"m 138 -310 l 67 -273 q 127 -235 102 -256 q 163 -185 153 -214 q 119 -165 136 -181 q 104 -123 102 -149 q 127 -78 106 -96 q 178 -60 148 -60 q 237 -87 215 -60 q 256 -153 258 -113 q 224 -240 254 -196 q 138 -310 193 -283 z "},"̒":{"ha":0,"x_min":65,"x_max":257,"o":"m 185 969 l 257 932 q 196 894 222 915 q 161 844 171 873 q 205 824 188 840 q 219 782 222 808 q 197 737 218 755 q 145 719 176 719 q 87 746 108 719 q 67 813 65 772 q 100 899 69 855 q 185 969 131 942 z "},"©":{"ha":978,"x_min":33,"x_max":945,"o":"m 490 -8 q 313 27 395 -8 q 167 125 230 63 q 69 270 104 188 q 33 447 33 353 q 69 624 33 542 q 167 769 104 706 q 313 868 230 832 q 490 903 395 903 q 666 868 583 903 q 811 769 749 832 q 910 624 874 706 q 945 447 945 542 q 910 270 945 353 q 811 125 874 188 q 666 27 749 63 q 490 -8 583 -8 m 490 67 q 638 96 569 67 q 759 178 706 126 q 841 300 811 231 q 870 447 870 369 q 841 595 870 526 q 759 716 811 664 q 638 799 706 769 q 490 828 569 828 q 342 799 411 828 q 220 716 273 769 q 138 595 168 664 q 108 447 108 526 q 138 300 108 369 q 220 178 168 231 q 342 96 273 126 q 490 67 411 67 m 488 164 q 363 199 416 164 q 281 298 310 233 q 252 450 252 362 q 283 604 252 542 q 366 699 313 667 q 488 731 419 731 q 634 685 581 731 q 703 567 687 640 l 608 549 q 563 622 594 594 q 488 650 532 650 q 418 627 449 650 q 367 560 386 605 q 349 450 349 516 q 365 342 349 388 q 411 272 381 297 q 488 247 442 247 q 576 277 544 247 q 608 354 608 307 l 703 354 q 645 214 703 264 q 488 164 587 164 z "},"¤":{"ha":833,"x_min":89,"x_max":744,"o":"m 417 152 q 271 191 337 152 q 165 297 205 231 q 126 443 126 363 q 165 590 126 524 q 271 694 205 656 q 417 733 337 733 q 563 694 497 733 q 667 590 628 656 q 706 443 706 524 q 667 297 706 363 q 563 191 628 231 q 417 152 497 152 m 417 285 q 496 307 460 285 q 553 364 532 328 q 574 443 574 399 q 553 523 574 488 q 496 580 532 559 q 417 601 460 601 q 337 580 373 601 q 280 523 301 559 q 259 443 259 488 q 280 364 259 399 q 337 307 301 328 q 417 285 373 285 m 591 553 l 526 618 l 678 770 l 744 706 l 591 553 m 235 560 l 89 705 l 153 770 l 299 625 l 235 560 m 599 326 l 744 181 l 680 115 l 535 261 l 599 326 m 235 326 l 299 261 l 153 115 l 89 181 l 235 326 z "},"†":{"ha":717,"x_min":62,"x_max":656,"o":"m 288 -175 l 270 893 l 447 893 l 428 -175 l 288 -175 m 62 537 l 62 638 l 359 649 l 656 638 l 656 537 l 359 525 l 62 537 z "},"‡":{"ha":717,"x_min":62,"x_max":656,"o":"m 288 -175 l 270 893 l 447 893 l 428 -175 l 288 -175 m 62 537 l 62 638 l 359 649 l 656 638 l 656 537 l 359 525 l 62 537 m 62 292 l 62 392 l 359 404 l 656 392 l 656 292 l 359 280 l 62 292 z "},"ď":{"ha":974,"x_min":74,"x_max":934,"o":"m 827 715 l 753 752 q 811 790 787 769 q 842 840 835 811 q 798 860 816 844 q 779 902 779 876 q 799 946 779 928 q 849 965 818 965 q 910 937 887 965 q 934 872 934 910 q 907 784 934 827 q 827 715 879 742 m 378 -19 q 225 26 294 -19 q 115 150 156 70 q 74 339 74 231 q 114 525 74 446 q 220 647 153 603 q 368 690 287 690 q 497 654 442 690 q 582 549 552 618 q 611 380 611 480 l 563 380 q 540 476 563 437 q 480 536 517 515 q 400 557 443 557 q 309 530 349 557 q 247 454 269 503 q 224 339 224 405 q 247 220 224 271 q 310 143 270 170 q 399 115 349 115 q 477 137 440 115 q 539 199 515 159 q 563 294 563 240 l 611 294 q 580 121 611 191 q 495 16 548 51 q 378 -19 442 -19 m 590 0 l 563 163 l 563 951 l 712 951 l 712 0 l 590 0 z "},"đ":{"ha":844,"x_min":74,"x_max":813,"o":"m 378 -19 q 225 26 294 -19 q 115 150 156 70 q 74 339 74 231 q 114 525 74 446 q 220 647 153 603 q 368 690 287 690 q 497 654 442 690 q 582 549 552 618 q 611 380 611 480 l 563 380 q 540 476 563 437 q 480 536 517 515 q 400 557 443 557 q 309 530 349 557 q 247 454 269 503 q 224 339 224 405 q 247 220 224 271 q 310 143 270 170 q 399 115 349 115 q 477 137 440 115 q 539 199 515 159 q 563 294 563 240 l 611 294 q 580 121 611 191 q 495 16 548 51 q 378 -19 442 -19 m 590 0 l 563 163 l 563 951 l 712 951 l 712 0 l 590 0 m 414 759 l 414 860 l 813 860 l 813 759 l 414 759 z "},"°":{"ha":520,"x_min":58,"x_max":462,"o":"m 260 671 q 159 698 205 671 q 85 771 113 725 q 58 873 58 817 q 85 975 58 929 q 159 1047 113 1020 q 260 1074 205 1074 q 362 1047 316 1074 q 435 975 408 1020 q 462 873 462 929 q 435 771 462 817 q 362 698 408 725 q 260 671 316 671 m 260 770 q 333 800 303 770 q 363 873 363 831 q 333 945 363 915 q 260 975 303 975 q 188 945 218 975 q 158 873 158 915 q 188 800 158 831 q 260 770 218 770 z "},"̈":{"ha":0,"x_min":67,"x_max":505,"o":"m 414 792 q 350 817 376 792 q 324 878 324 842 q 350 940 324 915 q 414 965 376 965 q 479 940 453 965 q 505 878 505 915 q 479 817 505 842 q 414 792 453 792 m 157 792 q 92 817 117 792 q 67 876 67 842 q 92 939 67 915 q 157 963 117 963 q 223 939 197 963 q 249 876 249 915 q 223 817 249 842 q 157 792 197 792 z "},"÷":{"ha":721,"x_min":99,"x_max":622,"o":"m 99 310 l 99 440 l 622 440 l 622 310 l 99 310 m 359 67 q 297 91 322 67 q 272 151 272 115 q 297 210 272 186 q 359 235 322 235 q 424 210 398 235 q 449 151 449 186 q 424 91 449 115 q 359 67 398 67 m 359 512 q 297 535 322 512 q 272 596 272 559 q 297 655 272 631 q 359 680 322 680 q 424 655 398 680 q 449 596 449 631 q 424 535 449 559 q 359 512 398 512 z "},"˙":{"ha":337,"x_min":67,"x_max":275,"o":"z "},"̇":{"ha":0,"x_min":67,"x_max":275,"o":"m 67 898 q 96 969 67 940 q 169 998 125 998 q 244 969 214 998 q 275 898 275 940 q 244 828 275 856 q 169 800 214 800 q 96 829 125 800 q 67 898 67 857 z "},"ě":{"ha":730,"x_min":67,"x_max":667,"o":"m 378 -19 q 221 26 292 -19 q 109 150 151 70 q 67 335 67 230 q 108 525 67 446 q 220 647 150 605 q 378 690 291 690 q 514 658 457 690 q 606 572 572 626 q 654 449 641 517 q 657 308 667 381 l 185 308 l 185 390 l 553 390 l 522 369 q 518 440 524 405 q 497 506 513 476 q 453 553 481 535 q 380 572 424 572 q 289 544 326 572 q 233 471 252 517 q 214 369 214 425 l 214 309 q 232 202 214 249 q 286 128 250 155 q 378 101 323 101 q 466 126 431 101 q 510 200 501 151 l 660 200 q 612 85 650 135 q 514 9 574 36 q 378 -19 454 -19 m 369 774 l 130 986 l 217 1056 l 395 873 l 343 873 l 522 1056 l 610 986 l 369 774 z "},"ė":{"ha":730,"x_min":67,"x_max":667,"o":"m 378 -19 q 221 26 292 -19 q 109 150 151 70 q 67 335 67 230 q 108 525 67 446 q 220 647 150 605 q 378 690 291 690 q 514 658 457 690 q 606 572 572 626 q 654 449 641 517 q 657 308 667 381 l 185 308 l 185 390 l 553 390 l 522 369 q 518 440 524 405 q 497 506 513 476 q 453 553 481 535 q 380 572 424 572 q 289 544 326 572 q 233 471 252 517 q 214 369 214 425 l 214 309 q 232 202 214 249 q 286 128 250 155 q 378 101 323 101 q 466 126 431 101 q 510 200 501 151 l 660 200 q 612 85 650 135 q 514 9 574 36 q 378 -19 454 -19 m 269 897 q 298 968 269 939 q 372 997 327 997 q 447 968 417 997 q 477 897 477 939 q 447 827 477 855 q 372 800 417 800 q 298 828 327 800 q 269 897 269 856 z "},"₈":{"ha":590,"x_min":70,"x_max":519,"o":"m 294 -19 q 132 26 194 -19 q 70 138 70 70 q 116 228 70 196 q 228 261 161 261 q 258 259 244 261 q 290 251 272 256 l 290 229 q 198 204 234 229 q 163 146 163 179 q 201 84 163 106 q 294 63 240 63 q 394 81 361 63 q 427 128 427 99 q 410 167 427 151 q 365 194 394 183 l 213 253 q 156 282 185 263 q 108 329 128 301 q 89 395 89 357 q 143 501 89 461 q 294 541 197 541 q 399 521 353 541 q 473 467 446 501 q 500 388 500 433 q 462 305 500 340 q 355 269 424 269 q 328 271 341 269 q 299 278 315 274 l 299 305 q 375 326 343 305 q 408 382 408 348 q 376 438 408 417 q 294 460 345 460 q 214 440 247 460 q 181 392 181 421 q 197 355 181 369 q 241 329 213 340 l 397 269 q 488 216 456 247 q 519 133 519 186 q 461 24 519 67 q 294 -19 402 -19 z "},"⁸":{"ha":590,"x_min":71,"x_max":519,"o":"m 295 351 q 177 371 227 351 q 99 427 127 392 q 71 507 71 462 q 91 573 71 546 q 148 616 112 601 q 228 630 184 630 q 258 628 244 630 q 290 621 272 625 l 290 598 q 224 587 253 598 q 179 556 195 575 q 163 515 163 538 q 181 471 163 489 q 228 442 198 452 q 295 432 258 432 q 394 450 361 432 q 427 498 427 469 q 411 537 427 521 q 365 564 394 553 l 213 622 q 157 651 185 632 q 109 698 128 670 q 89 765 89 726 q 113 841 89 809 q 184 892 138 874 q 295 910 230 910 q 400 890 353 910 q 473 836 446 871 q 500 758 500 802 q 483 699 500 726 q 434 655 466 671 q 355 638 401 638 q 328 641 341 638 q 300 648 315 643 l 300 674 q 354 684 329 674 q 393 711 378 694 q 408 752 408 728 q 393 792 408 775 q 354 820 379 810 q 295 830 328 830 q 237 820 263 830 q 197 796 212 811 q 182 761 182 781 q 197 724 182 738 q 242 699 213 710 l 397 638 q 488 586 456 616 q 520 502 520 555 q 493 424 520 458 q 417 370 467 389 q 295 351 366 351 z "},"…":{"ha":869,"x_min":35,"x_max":831,"o":"m 35 87 q 65 159 35 130 q 140 189 94 189 q 216 159 185 189 q 247 87 247 130 q 216 16 247 44 q 140 -12 185 -12 q 65 16 94 -12 q 35 87 35 45 m 335 87 q 364 159 335 130 q 439 189 394 189 q 516 159 485 189 q 547 87 547 130 q 516 16 547 44 q 439 -12 485 -12 q 364 16 394 -12 q 335 87 335 45 m 620 87 q 650 159 620 130 q 724 189 679 189 q 801 159 770 189 q 832 87 832 130 q 801 16 832 44 q 724 -12 770 -12 q 650 16 679 -12 q 620 87 620 45 z "},"ē":{"ha":730,"x_min":67,"x_max":667,"o":"m 378 -19 q 221 26 292 -19 q 109 150 151 70 q 67 335 67 230 q 108 525 67 446 q 220 647 150 605 q 378 690 291 690 q 514 658 457 690 q 606 572 572 626 q 654 449 641 517 q 657 308 667 381 l 185 308 l 185 390 l 553 390 l 522 369 q 518 440 524 405 q 497 506 513 476 q 453 553 481 535 q 380 572 424 572 q 289 544 326 572 q 233 471 252 517 q 214 369 214 425 l 214 309 q 232 202 214 249 q 286 128 250 155 q 378 101 323 101 q 466 126 431 101 q 510 200 501 151 l 660 200 q 612 85 650 135 q 514 9 574 36 q 378 -19 454 -19 m 132 933 l 599 933 l 599 811 l 132 811 l 132 933 z "},"∅":{"ha":833,"x_min":76,"x_max":757,"o":"m 417 98 q 270 137 337 98 q 165 243 204 176 q 126 389 126 309 q 165 535 126 469 q 270 641 204 601 q 417 680 337 680 q 564 641 498 680 q 669 535 629 601 q 708 389 708 469 q 669 243 708 309 q 564 137 629 176 q 417 98 498 98 m 417 190 q 517 217 472 190 q 589 289 562 244 q 616 389 616 334 q 589 489 616 444 q 517 560 562 533 q 417 588 472 588 q 317 560 363 588 q 245 489 272 533 q 218 389 218 444 q 245 289 218 334 q 317 217 272 244 q 417 190 363 190 m 701 729 l 757 673 l 133 48 l 76 103 l 701 729 z "},"ŋ":{"ha":879,"x_min":133,"x_max":746,"o":"m 523 -347 q 425 -334 471 -347 q 331 -301 378 -322 l 335 -173 q 411 -205 372 -192 q 489 -217 450 -217 q 570 -186 542 -217 q 599 -82 599 -155 l 599 357 l 746 357 l 746 -85 q 686 -286 746 -226 q 523 -347 627 -347 m 598 0 l 598 393 q 559 516 598 474 q 456 557 520 557 q 364 528 403 557 q 302 443 324 499 q 281 305 281 387 l 230 305 q 262 517 230 432 q 353 646 294 603 q 494 690 413 690 q 632 653 576 690 q 717 549 688 616 q 745 393 745 483 l 745 0 l 598 0 m 133 0 l 133 671 l 261 671 l 281 532 l 281 0 l 133 0 z "},"ę":{"ha":730,"x_min":67,"x_max":667,"o":"m 378 -19 q 221 26 292 -19 q 109 150 151 70 q 67 335 67 230 q 108 525 67 446 q 220 647 150 605 q 378 690 291 690 q 514 658 457 690 q 606 572 572 626 q 654 449 641 517 q 657 308 667 381 l 185 308 l 185 390 l 553 390 l 522 369 q 518 440 524 405 q 497 506 513 476 q 453 553 481 535 q 380 572 424 572 q 289 544 326 572 q 233 471 252 517 q 214 369 214 425 l 214 309 q 232 202 214 249 q 286 128 250 155 q 378 101 323 101 q 466 126 431 101 q 510 200 501 151 l 660 200 q 612 85 650 135 q 514 9 574 36 q 378 -19 454 -19 m 544 -228 q 452 -264 499 -251 q 360 -277 406 -277 q 241 -244 288 -277 q 194 -151 194 -212 q 233 -52 194 -100 q 346 27 271 -3 l 455 0 q 339 -58 382 -27 q 296 -126 296 -88 q 319 -165 296 -153 q 373 -177 343 -177 q 435 -167 403 -177 q 509 -135 467 -158 l 544 -228 z "},"ð":{"ha":785,"x_min":74,"x_max":722,"o":"m 381 -19 q 228 26 298 -19 q 116 151 158 70 q 74 340 74 231 q 114 524 74 446 q 220 646 154 603 q 364 690 286 690 q 503 646 444 690 q 594 528 562 603 q 627 359 627 453 l 578 359 q 551 470 578 426 q 483 536 524 515 q 399 557 442 557 q 309 530 349 557 q 247 454 269 503 q 224 338 224 405 q 247 220 224 270 q 309 143 269 171 q 401 115 349 115 q 494 146 456 115 q 553 228 532 176 q 577 345 574 281 q 568 551 581 453 q 518 738 554 649 q 420 906 483 826 q 265 1058 358 986 l 387 1142 q 535 982 472 1067 q 640 805 599 896 q 701 620 681 713 q 722 440 722 528 q 694 245 722 330 q 619 101 667 160 q 510 12 572 42 q 381 -19 449 -19 m 296 773 l 253 864 l 676 1074 l 719 983 l 296 773 z "},"€":{"ha":872,"x_min":30,"x_max":831,"o":"m 478 -19 q 275 38 361 -19 q 142 200 190 95 q 94 449 94 305 q 144 703 94 600 q 281 858 194 806 q 478 910 368 910 q 716 836 628 910 q 830 642 803 761 l 672 613 q 598 731 649 686 q 478 776 548 776 q 366 740 417 776 q 285 631 315 704 q 254 449 254 558 q 280 274 254 349 q 356 158 306 199 q 478 117 406 117 q 620 166 568 117 q 672 293 672 215 l 831 293 q 787 125 831 194 q 665 18 744 56 q 478 -19 585 -19 m 30 328 l 30 415 l 518 415 l 518 328 l 30 328 m 30 478 l 30 564 l 518 564 l 518 478 l 30 478 z "},"¡":{"ha":401,"x_min":100,"x_max":311,"o":"m 142 604 l 125 -15 l 285 -15 l 267 604 l 142 604 m 205 903 q 130 875 159 903 q 100 803 100 847 q 130 731 100 760 q 205 702 159 702 q 281 731 250 702 q 311 803 311 760 q 281 875 311 847 q 205 903 250 903 z "},"ﬁ":{"ha":944,"x_min":68,"x_max":812,"o":"m 170 0 l 170 759 q 198 875 170 830 q 272 941 226 919 q 372 962 317 962 q 438 957 403 962 q 505 945 472 953 l 476 831 q 439 841 458 838 q 401 845 419 845 q 362 838 381 845 q 331 810 343 830 q 319 756 319 791 l 319 0 l 170 0 m 68 572 l 68 671 l 447 671 l 447 572 l 68 572 m 719 804 q 650 828 675 804 q 626 892 626 851 q 650 956 626 932 q 719 980 675 980 q 787 956 762 980 q 812 892 812 932 q 787 828 812 851 q 719 804 762 804 m 645 0 l 645 673 l 793 673 l 793 0 l 645 0 z "},"⅝":{"ha":1519,"x_min":83,"x_max":1449,"o":"m 277 398 q 178 418 222 398 q 109 475 134 438 q 83 567 83 513 l 172 567 q 203 501 172 524 q 277 479 233 479 q 356 510 326 479 q 386 587 386 542 q 269 676 386 676 l 110 676 l 135 947 l 450 947 l 450 866 l 207 866 l 224 892 l 208 725 l 199 733 q 247 740 219 738 q 293 742 274 742 q 428 702 378 742 q 478 587 478 663 q 453 491 478 534 q 383 423 428 448 q 277 398 338 398 m 1224 -19 q 1062 26 1124 -19 q 1001 138 1001 70 q 1046 228 1001 196 q 1158 261 1091 261 q 1188 259 1174 261 q 1220 252 1201 256 l 1220 229 q 1128 205 1164 229 q 1092 146 1092 180 q 1131 85 1092 107 q 1224 63 1169 63 q 1324 81 1291 63 q 1357 128 1357 100 q 1340 167 1357 151 q 1294 194 1324 183 l 1143 253 q 1086 282 1115 263 q 1038 329 1058 301 q 1019 395 1019 357 q 1073 501 1019 461 q 1224 541 1127 541 q 1330 521 1283 541 q 1403 467 1376 501 q 1430 388 1430 433 q 1392 305 1430 340 q 1285 269 1354 269 q 1258 272 1271 269 q 1229 278 1245 274 l 1229 305 q 1306 326 1274 305 q 1338 383 1338 348 q 1307 439 1338 417 q 1224 460 1275 460 q 1144 441 1177 460 q 1111 392 1111 421 q 1127 355 1111 369 q 1172 329 1143 341 l 1327 269 q 1418 216 1386 247 q 1449 133 1449 186 q 1390 24 1449 67 q 1224 -19 1331 -19 z "},"₅":{"ha":540,"x_min":83,"x_max":478,"o":"m 278 -19 q 178 1 222 -19 q 109 58 134 21 q 83 150 83 96 l 173 150 q 203 84 173 106 q 278 63 234 63 q 357 94 327 63 q 386 170 386 125 q 269 258 386 258 l 111 258 l 135 531 l 451 531 l 451 449 l 207 449 l 224 476 l 208 308 l 200 317 q 247 323 220 321 q 294 326 274 326 q 428 286 378 326 q 478 170 478 246 q 453 74 478 117 q 384 6 428 31 q 278 -19 339 -19 z "},"⁵":{"ha":540,"x_min":83,"x_max":478,"o":"m 277 344 q 178 363 221 344 q 109 421 134 383 q 82 513 83 459 l 172 513 q 203 447 172 469 q 277 425 233 425 q 356 456 326 425 q 386 532 386 487 q 269 621 386 621 l 110 621 l 135 893 l 451 893 l 451 811 l 207 811 l 224 838 l 208 670 l 200 679 q 247 686 220 684 q 294 688 274 688 q 428 648 378 688 q 478 532 478 608 q 453 437 478 480 q 383 369 428 394 q 277 344 338 344 z "},"ﬂ":{"ha":914,"x_min":68,"x_max":781,"o":"m 170 0 l 170 759 q 198 875 170 830 q 272 941 226 919 q 372 962 317 962 q 438 957 403 962 q 505 945 472 953 l 476 831 q 439 841 458 838 q 401 845 419 845 q 362 838 381 845 q 331 810 343 830 q 319 756 319 791 l 319 0 l 170 0 m 68 572 l 68 671 l 447 671 l 447 572 l 68 572 m 633 0 l 633 951 l 781 951 l 781 0 l 633 0 z "},"ƒ":{"ha":492,"x_min":-110,"x_max":497,"o":"m 13 572 l 20 671 l 399 671 l 392 572 l 13 572 m -110 -293 l -73 -178 q -36 -188 -55 -184 q 1 -192 -17 -192 q 40 -184 21 -192 q 73 -157 60 -176 q 89 -103 86 -138 l 149 759 q 185 875 154 830 q 263 941 215 919 q 365 962 310 962 q 431 957 397 962 q 497 945 465 953 l 460 831 q 423 841 442 838 q 386 845 404 845 q 347 838 366 845 q 314 810 328 830 q 298 756 301 791 l 238 -106 q 202 -222 233 -176 q 124 -288 171 -267 q 22 -309 77 -309 q -44 -305 -10 -309 q -110 -293 -78 -300 z "},"₄":{"ha":511,"x_min":32,"x_max":488,"o":"m 310 544 l 395 544 l 395 199 l 488 199 l 488 122 l 395 122 l 395 0 l 307 0 l 307 122 l 32 122 l 32 190 l 310 544 m 311 410 l 138 190 l 311 190 l 311 410 z "},"⁴":{"ha":511,"x_min":33,"x_max":488,"o":"m 310 904 l 395 904 l 395 558 l 489 558 l 489 482 l 395 482 l 395 360 l 307 360 l 307 482 l 32 482 l 32 550 l 310 904 m 311 770 l 138 550 l 311 550 l 311 770 z "},"⁄":{"ha":390,"x_min":-197,"x_max":593,"o":"m -159 12 l 112 1104 l 228 1158 l -45 65 l -159 12 z "},"ğ":{"ha":801,"x_min":26,"x_max":775,"o":"m 385 -347 q 193 -316 273 -347 q 69 -234 113 -285 q 26 -123 26 -183 q 80 -10 26 -50 q 215 29 133 29 l 318 -13 q 210 -41 248 -13 q 172 -116 172 -68 q 228 -197 172 -166 q 385 -228 284 -228 q 514 -207 459 -228 q 598 -150 568 -185 q 628 -76 628 -115 q 610 -31 628 -49 q 553 -13 592 -13 l 318 -13 q 196 8 250 -13 q 111 66 142 30 q 80 146 80 102 q 103 218 80 188 q 167 265 127 249 q 256 281 207 281 l 291 231 q 251 223 271 231 q 220 198 232 215 q 208 158 208 182 q 232 110 208 128 q 318 92 256 92 l 553 92 q 716 52 657 92 q 775 -67 775 13 q 728 -201 775 -137 q 593 -306 681 -265 q 385 -347 506 -347 m 397 204 q 253 234 317 204 q 150 319 188 265 q 111 447 111 374 q 150 575 111 520 q 253 660 188 630 q 397 690 317 690 q 538 660 474 690 q 641 575 602 630 q 681 447 681 520 q 641 319 681 374 q 538 234 602 265 q 397 204 474 204 m 397 308 q 500 348 465 308 q 535 447 535 388 q 500 547 535 509 q 397 585 465 585 q 294 547 331 585 q 258 447 258 509 q 294 348 258 388 q 397 308 331 308 m 629 582 l 561 619 q 588 724 561 678 q 660 794 614 769 q 763 819 706 819 l 754 676 q 661 653 694 676 q 629 582 629 630 m 401 805 q 246 860 303 805 q 189 1010 189 915 l 307 1010 q 332 930 307 958 q 401 902 358 902 q 470 930 445 902 q 495 1010 495 958 l 613 1010 q 556 860 613 915 q 401 805 499 805 z "},"ģ":{"ha":801,"x_min":26,"x_max":775,"o":"m 385 -347 q 193 -316 273 -347 q 69 -234 113 -285 q 26 -123 26 -183 q 80 -10 26 -50 q 215 29 133 29 l 318 -13 q 210 -41 248 -13 q 172 -116 172 -68 q 228 -197 172 -166 q 385 -228 284 -228 q 514 -207 459 -228 q 598 -150 568 -185 q 628 -76 628 -115 q 610 -31 628 -49 q 553 -13 592 -13 l 318 -13 q 196 8 250 -13 q 111 66 142 30 q 80 146 80 102 q 103 218 80 188 q 167 265 127 249 q 256 281 207 281 l 291 231 q 251 223 271 231 q 220 198 232 215 q 208 158 208 182 q 232 110 208 128 q 318 92 256 92 l 553 92 q 716 52 657 92 q 775 -67 775 13 q 728 -201 775 -137 q 593 -306 681 -265 q 385 -347 506 -347 m 397 204 q 253 234 317 204 q 150 319 188 265 q 111 447 111 374 q 150 575 111 520 q 253 660 188 630 q 397 690 317 690 q 538 660 474 690 q 641 575 602 630 q 681 447 681 520 q 641 319 681 374 q 538 234 602 265 q 397 204 474 204 m 397 308 q 500 348 465 308 q 535 447 535 388 q 500 547 535 509 q 397 585 465 585 q 294 547 331 585 q 258 447 258 509 q 294 348 258 388 q 397 308 331 308 m 629 582 l 561 619 q 588 724 561 678 q 660 794 614 769 q 763 819 706 819 l 754 676 q 661 653 694 676 q 629 582 629 630 m 422 969 l 494 932 q 433 894 458 915 q 398 844 408 873 q 441 824 424 840 q 456 782 458 808 q 434 737 455 755 q 382 719 413 719 q 324 746 345 719 q 304 813 302 772 q 337 899 306 855 q 422 969 367 942 z "},"ġ":{"ha":801,"x_min":26,"x_max":775,"o":"m 385 -347 q 193 -316 273 -347 q 69 -234 113 -285 q 26 -123 26 -183 q 80 -10 26 -50 q 215 29 133 29 l 318 -13 q 210 -41 248 -13 q 172 -116 172 -68 q 228 -197 172 -166 q 385 -228 284 -228 q 514 -207 459 -228 q 598 -150 568 -185 q 628 -76 628 -115 q 610 -31 628 -49 q 553 -13 592 -13 l 318 -13 q 196 8 250 -13 q 111 66 142 30 q 80 146 80 102 q 103 218 80 188 q 167 265 127 249 q 256 281 207 281 l 291 231 q 251 223 271 231 q 220 198 232 215 q 208 158 208 182 q 232 110 208 128 q 318 92 256 92 l 553 92 q 716 52 657 92 q 775 -67 775 13 q 728 -201 775 -137 q 593 -306 681 -265 q 385 -347 506 -347 m 397 204 q 253 234 317 204 q 150 319 188 265 q 111 447 111 374 q 150 575 111 520 q 253 660 188 630 q 397 690 317 690 q 538 660 474 690 q 641 575 602 630 q 681 447 681 520 q 641 319 681 374 q 538 234 602 265 q 397 204 474 204 m 397 308 q 500 348 465 308 q 535 447 535 388 q 500 547 535 509 q 397 585 465 585 q 294 547 331 585 q 258 447 258 509 q 294 348 258 388 q 397 308 331 308 m 629 582 l 561 619 q 588 724 561 678 q 660 794 614 769 q 763 819 706 819 l 754 676 q 661 653 694 676 q 629 582 629 630 m 306 897 q 335 968 306 939 q 408 997 363 997 q 483 968 453 997 q 513 897 513 939 q 483 827 513 855 q 408 800 453 800 q 335 828 363 800 q 306 897 306 856 z "},"ß":{"ha":887,"x_min":133,"x_max":814,"o":"m 711 747 q 693 662 711 696 q 650 603 674 628 q 608 558 626 578 q 590 512 590 537 q 612 464 590 485 q 668 423 635 444 q 735 375 701 402 q 791 309 768 348 q 814 212 814 269 q 778 91 814 142 q 684 11 742 39 q 560 -17 626 -17 q 472 -7 520 -17 q 384 23 423 3 l 385 143 q 464 102 426 115 q 540 89 502 89 q 605 103 580 89 q 640 142 629 118 q 651 195 651 166 q 630 272 651 240 q 578 327 609 303 q 517 374 548 351 q 465 424 485 397 q 444 488 444 451 q 464 553 444 526 q 510 604 483 580 q 556 656 536 628 q 576 725 576 685 q 536 808 576 777 q 431 840 497 840 q 316 791 351 840 q 282 633 282 742 l 282 0 l 133 0 l 133 636 q 169 812 133 741 q 273 920 205 883 q 438 956 341 956 q 585 930 524 956 q 679 856 647 903 q 711 747 711 808 z "},"̀":{"ha":0,"x_min":66,"x_max":418,"o":"m 347 777 l 66 1009 l 166 1090 l 418 835 l 347 777 z "},"≥":{"ha":695,"x_min":100,"x_max":593,"o":"m 132 194 l 100 313 l 507 449 l 507 397 l 100 534 l 132 653 l 588 478 l 588 367 l 132 194 m 117 0 l 117 112 l 593 112 l 593 0 l 117 0 z "},"«":{"ha":844,"x_min":67,"x_max":778,"o":"m 206 352 l 456 598 l 353 672 l 67 373 l 353 74 l 456 148 l 206 394 l 206 352 m 528 352 l 778 598 l 676 672 l 389 373 l 676 74 l 778 148 l 528 394 l 528 352 z "},"»":{"ha":844,"x_min":67,"x_max":778,"o":"m 639 352 l 389 598 l 491 672 l 778 373 l 491 74 l 389 148 l 639 394 l 639 352 m 317 352 l 67 598 l 169 672 l 456 373 l 169 74 l 67 148 l 317 394 l 317 352 z "},"‹":{"ha":522,"x_min":67,"x_max":456,"o":"m 206 352 l 456 598 l 353 672 l 67 373 l 353 74 l 456 148 l 206 394 l 206 352 z "},"›":{"ha":522,"x_min":67,"x_max":456,"o":"m 169 74 l 67 148 l 317 394 l 317 352 l 67 598 l 169 672 l 456 373 l 169 74 z "},"ħ":{"ha":858,"x_min":44,"x_max":745,"o":"m 598 0 l 598 393 q 559 516 598 474 q 456 557 520 557 q 364 528 403 557 q 302 443 324 499 q 281 305 281 387 l 230 305 q 262 517 230 432 q 353 646 294 603 q 494 690 413 690 q 632 653 576 690 q 717 549 688 616 q 745 393 745 483 l 745 0 l 598 0 m 133 0 l 133 951 l 281 951 l 281 0 l 133 0 m 44 745 l 44 844 l 397 844 l 397 745 l 44 745 z "},"˝":{"ha":444,"x_min":67,"x_max":378,"o":"m 324 766 l 249 780 l 272 1012 l 378 989 l 324 766 m 144 776 l 67 786 l 76 1021 l 183 1003 l 144 776 z "},"̋":{"ha":0,"x_min":67,"x_max":378,"o":"m 324 766 l 249 780 l 272 1012 l 378 989 l 324 766 m 144 776 l 67 786 l 76 1021 l 183 1003 l 144 776 z "},"ı":{"ha":444,"x_min":144,"x_max":292,"o":"m 144 0 l 144 673 l 292 673 l 292 0 l 144 0 z "},"ī":{"ha":444,"x_min":64,"x_max":372,"o":"m 144 0 l 144 673 l 292 673 l 292 0 l 144 0 m 64 933 l 372 933 l 372 811 l 64 811 l 64 933 z "},"∞":{"ha":939,"x_min":32,"x_max":906,"o":"m 254 133 q 150 156 201 133 q 66 226 99 178 q 32 348 32 274 q 66 471 32 423 q 150 541 99 519 q 254 564 201 564 q 338 549 294 564 q 419 500 381 535 q 485 403 458 465 l 453 403 q 519 500 481 465 q 602 549 558 535 q 685 564 645 564 q 789 541 738 564 q 873 471 840 519 q 906 348 906 423 q 873 226 906 274 q 789 156 840 178 q 685 133 738 133 q 602 147 645 133 q 520 196 558 161 q 453 292 481 231 l 486 292 q 420 196 459 231 q 338 147 381 161 q 254 133 294 133 m 277 229 q 376 264 329 229 q 457 375 422 299 l 457 322 q 376 433 422 398 q 277 467 329 467 q 217 456 247 467 q 168 417 188 444 q 148 348 148 391 q 168 280 148 306 q 217 241 188 253 q 277 229 247 229 m 661 229 q 722 241 692 229 q 771 280 751 253 q 790 348 790 306 q 771 417 790 391 q 722 456 751 444 q 661 467 692 467 q 563 433 610 467 q 482 322 517 398 l 482 375 q 563 264 517 299 q 661 229 610 229 z "},"∫":{"ha":671,"x_min":32,"x_max":638,"o":"m 32 -293 l 69 -178 q 106 -188 88 -184 q 142 -192 124 -192 q 182 -184 163 -192 q 215 -157 201 -176 q 231 -103 228 -138 l 291 759 q 326 875 296 830 q 405 941 357 919 q 506 962 452 962 q 572 957 538 962 q 638 945 606 953 l 601 831 q 565 841 584 838 q 528 845 546 845 q 489 838 508 845 q 456 810 469 830 q 440 756 442 791 l 380 -106 q 344 -222 375 -176 q 266 -288 313 -267 q 164 -309 219 -309 q 99 -305 133 -309 q 32 -293 65 -300 z "},"į":{"ha":444,"x_min":31,"x_max":380,"o":"m 144 0 l 144 673 l 292 673 l 292 0 l 144 0 m 122 897 q 151 968 122 939 q 224 997 180 997 q 300 968 269 997 q 330 897 330 939 q 300 827 330 855 q 224 800 269 800 q 151 828 180 800 q 122 897 122 856 m 380 -228 q 289 -264 335 -251 q 197 -277 242 -277 q 77 -244 124 -277 q 31 -151 31 -212 q 69 -52 31 -100 q 182 27 107 -3 l 291 0 q 175 -58 218 -27 q 132 -126 132 -88 q 156 -165 132 -153 q 209 -177 179 -177 q 272 -167 240 -177 q 345 -135 303 -158 l 380 -228 z "},"ȷ":{"ha":457,"x_min":-110,"x_max":305,"o":"m 83 -347 q -16 -334 30 -347 q -110 -301 -62 -322 l -106 -173 q -30 -205 -69 -192 q 48 -217 10 -217 q 130 -186 101 -217 q 158 -82 158 -155 l 158 674 l 305 674 l 305 -85 q 245 -286 305 -226 q 83 -347 186 -347 z "},"ķ":{"ha":810,"x_min":133,"x_max":781,"o":"m 133 0 l 133 951 l 281 951 l 281 0 l 133 0 m 260 408 l 563 671 l 765 671 l 260 253 l 260 408 m 600 0 l 295 426 l 438 459 l 781 0 l 600 0 m 372 -310 l 301 -273 q 361 -235 336 -256 q 397 -185 387 -214 q 353 -165 370 -181 q 338 -123 336 -149 q 361 -78 340 -96 q 413 -60 382 -60 q 471 -87 449 -60 q 490 -153 492 -113 q 458 -240 488 -196 q 372 -310 427 -283 z "},"ĺ":{"ha":413,"x_min":92,"x_max":443,"o":"m 133 0 l 133 951 l 281 951 l 281 0 l 133 0 m 163 1069 l 91 1128 l 344 1383 l 443 1301 l 163 1069 z "},"ľ":{"ha":413,"x_min":-28,"x_max":451,"o":"m 133 0 l 133 951 l 281 951 l 281 0 l 133 0 m 210 1069 l -29 1281 l 58 1351 l 236 1168 l 184 1168 l 363 1351 l 451 1281 l 210 1069 z "},"ļ":{"ha":413,"x_min":102,"x_max":294,"o":"m 133 0 l 133 951 l 281 951 l 281 0 l 133 0 m 174 -310 l 102 -273 q 163 -235 138 -256 q 198 -185 188 -214 q 155 -165 172 -181 q 140 -123 138 -149 q 162 -78 141 -96 q 214 -60 183 -60 q 272 -87 251 -60 q 292 -153 294 -113 q 259 -240 290 -196 q 174 -310 228 -283 z "},"≤":{"ha":695,"x_min":102,"x_max":595,"o":"m 565 194 l 107 367 l 107 478 l 565 653 l 595 534 l 188 397 l 188 449 l 595 313 l 565 194 m 102 0 l 102 112 l 578 112 l 578 0 l 102 0 z "},"¬":{"ha":833,"x_min":154,"x_max":642,"o":"m 154 461 l 642 461 l 642 206 l 542 206 l 542 383 l 574 349 l 154 349 l 154 461 z "},"◊":{"ha":785,"x_min":67,"x_max":718,"o":"m 67 447 l 334 893 l 453 893 l 718 447 l 453 0 l 334 0 l 67 447 m 214 419 l 214 474 l 411 131 l 376 131 l 572 474 l 572 419 l 376 761 l 411 761 l 214 419 z "},"ł":{"ha":413,"x_min":24,"x_max":410,"o":"m 43 502 l 24 597 l 392 659 l 410 564 l 43 502 m 133 0 l 133 951 l 281 951 l 281 0 l 133 0 z "},"¯":{"ha":601,"x_min":67,"x_max":534,"o":"m 67 933 l 534 933 l 534 811 l 67 811 l 67 933 z "},"̄":{"ha":0,"x_min":185,"x_max":652,"o":"m 185 933 l 652 933 l 652 811 l 185 811 l 185 933 z "},"µ":{"ha":863,"x_min":117,"x_max":730,"o":"z "},"μ":{"ha":863,"x_min":117,"x_max":730,"o":"m 582 673 l 730 673 l 730 0 l 582 0 l 582 673 m 117 673 l 265 673 l 265 259 q 300 153 265 189 q 397 117 335 117 q 491 144 449 117 q 558 224 533 172 q 582 351 582 276 l 625 351 q 593 150 625 231 q 504 28 561 69 q 372 -12 447 -12 q 241 14 299 -12 q 150 97 183 40 q 117 245 117 153 l 117 673 m 117 -278 l 117 674 l 265 674 l 265 -278 l 117 -278 z "},"×":{"ha":749,"x_min":85,"x_max":665,"o":"m 189 67 l 85 172 l 270 358 l 85 541 l 189 647 l 374 461 l 560 647 l 665 541 l 478 358 l 665 172 l 560 67 l 374 252 l 189 67 z "},"ń":{"ha":858,"x_min":133,"x_max":745,"o":"m 598 0 l 598 393 q 559 516 598 474 q 456 557 520 557 q 364 528 403 557 q 302 443 324 499 q 281 305 281 387 l 230 305 q 262 517 230 432 q 353 646 294 603 q 494 690 413 690 q 632 653 576 690 q 717 549 688 616 q 745 393 745 483 l 745 0 l 598 0 m 133 0 l 133 671 l 261 671 l 281 532 l 281 0 l 133 0 m 397 781 l 326 839 l 578 1094 l 678 1013 l 397 781 z "},"ň":{"ha":858,"x_min":133,"x_max":745,"o":"m 598 0 l 598 393 q 559 516 598 474 q 456 557 520 557 q 364 528 403 557 q 302 443 324 499 q 281 305 281 387 l 230 305 q 262 517 230 432 q 353 646 294 603 q 494 690 413 690 q 632 653 576 690 q 717 549 688 616 q 745 393 745 483 l 745 0 l 598 0 m 133 0 l 133 671 l 261 671 l 281 532 l 281 0 l 133 0 m 445 780 l 206 992 l 293 1062 l 471 879 l 419 879 l 598 1062 l 685 992 l 445 780 z "},"ņ":{"ha":858,"x_min":133,"x_max":745,"o":"m 598 0 l 598 393 q 559 516 598 474 q 456 557 520 557 q 364 528 403 557 q 302 443 324 499 q 281 305 281 387 l 230 305 q 262 517 230 432 q 353 646 294 603 q 494 690 413 690 q 632 653 576 690 q 717 549 688 616 q 745 393 745 483 l 745 0 l 598 0 m 133 0 l 133 671 l 261 671 l 281 532 l 281 0 l 133 0 m 396 -310 l 324 -273 q 385 -235 360 -256 q 420 -185 410 -214 q 377 -165 394 -181 q 362 -123 360 -149 q 384 -78 363 -96 q 436 -60 406 -60 q 494 -87 473 -60 q 514 -153 516 -113 q 481 -240 512 -196 q 396 -310 451 -283 z "},"₉":{"ha":560,"x_min":79,"x_max":494,"o":"m 276 -19 q 178 3 222 -19 q 109 63 135 25 q 83 151 83 101 l 176 151 q 205 86 178 110 q 274 63 231 63 q 374 122 344 63 q 404 279 404 181 q 404 305 404 292 q 401 332 403 317 q 348 233 390 264 q 249 202 306 202 q 127 250 175 202 q 79 372 79 297 q 132 494 79 448 q 269 541 185 541 q 384 507 333 541 q 464 413 435 474 q 494 271 494 352 q 440 60 494 138 q 276 -19 386 -19 m 269 276 q 340 302 310 276 q 369 367 369 328 q 340 434 369 410 q 269 459 310 459 q 199 434 228 459 q 171 367 171 410 q 200 300 171 324 q 269 276 228 276 z "},"⁹":{"ha":560,"x_min":78,"x_max":494,"o":"m 276 351 q 178 372 222 351 q 109 433 135 394 q 84 521 84 471 l 177 521 q 205 456 179 480 q 274 432 232 432 q 349 459 320 432 q 391 535 378 486 q 404 648 404 583 q 404 675 404 662 q 401 702 403 687 q 372 627 394 656 q 319 585 350 598 q 249 571 287 571 q 161 593 200 571 q 101 653 123 615 q 79 741 79 691 q 103 830 79 792 q 170 889 127 868 q 269 910 213 910 q 358 891 317 910 q 429 836 399 872 q 477 751 460 800 q 494 640 494 701 q 470 486 494 551 q 398 386 446 422 q 276 351 350 351 m 270 646 q 320 658 297 646 q 356 690 342 670 q 369 737 369 710 q 340 804 369 779 q 269 829 311 829 q 199 804 228 829 q 171 737 171 779 q 200 670 171 694 q 270 646 228 646 z "},"≠":{"ha":695,"x_min":110,"x_max":585,"o":"m 110 269 l 585 269 l 585 142 l 110 142 l 110 269 m 110 554 l 585 554 l 585 426 l 110 426 l 110 554 m 191 51 l 409 658 l 506 658 l 290 51 l 191 51 z "},"œ":{"ha":1174,"x_min":67,"x_max":1111,"o":"m 375 -19 q 218 21 288 -19 q 108 139 149 60 q 67 335 67 217 q 108 533 67 454 q 218 650 149 611 q 375 690 288 690 q 531 650 461 690 q 641 533 600 611 q 681 335 681 454 q 641 139 681 217 q 531 21 600 60 q 375 -19 461 -19 m 371 110 q 459 136 421 110 q 519 213 498 163 q 540 335 540 263 q 498 503 540 445 q 380 562 456 562 q 291 536 329 562 q 231 459 252 510 q 210 335 210 409 q 252 168 210 226 q 371 110 295 110 m 836 -19 q 687 26 754 -19 q 580 150 620 70 q 540 335 540 230 q 580 525 540 446 q 686 647 619 605 q 836 690 754 690 q 966 658 912 690 q 1054 572 1021 626 q 1099 449 1087 517 q 1102 308 1111 381 l 653 308 l 653 390 l 1004 390 l 973 369 q 970 440 975 405 q 950 506 964 476 q 908 553 935 535 q 838 572 880 572 q 752 544 787 572 q 698 471 716 517 q 680 369 680 425 l 680 309 q 697 202 680 249 q 749 128 714 155 q 836 101 784 101 q 920 126 886 101 q 962 200 953 151 l 1105 200 q 1059 85 1095 135 q 966 9 1023 36 q 836 -19 909 -19 z "},"˛":{"ha":483,"x_min":67,"x_max":416,"o":"m 416 -253 q 325 -290 372 -277 q 233 -303 278 -303 q 113 -270 160 -303 q 67 -177 67 -237 q 105 -77 67 -126 q 218 1 143 -29 l 327 -26 q 211 -83 254 -53 q 168 -151 168 -114 q 192 -191 168 -179 q 245 -203 215 -203 q 308 -193 276 -203 q 381 -161 340 -183 l 416 -253 z "},"̨":{"ha":0,"x_min":67,"x_max":416,"o":"m 416 -253 q 325 -290 372 -277 q 233 -303 278 -303 q 113 -270 160 -303 q 67 -177 67 -237 q 105 -77 67 -126 q 218 1 143 -29 l 327 -26 q 211 -83 254 -53 q 168 -151 168 -114 q 192 -191 168 -179 q 245 -203 215 -203 q 308 -193 276 -203 q 381 -161 340 -183 l 416 -253 z "},"ő":{"ha":778,"x_min":67,"x_max":712,"o":"m 390 -19 q 226 21 299 -19 q 110 139 153 60 q 67 335 67 217 q 110 533 67 454 q 226 650 153 611 q 390 690 299 690 q 553 650 481 690 q 669 533 626 611 q 712 335 712 454 q 669 139 712 217 q 553 21 626 60 q 390 -19 481 -19 m 385 110 q 479 136 439 110 q 541 213 519 163 q 563 335 563 263 q 519 503 563 445 q 395 562 475 562 q 301 536 342 562 q 239 459 261 510 q 217 335 217 409 q 261 168 217 226 q 385 110 306 110 m 506 766 l 431 780 l 454 1012 l 560 989 l 506 766 m 326 776 l 249 786 l 258 1021 l 365 1003 l 326 776 z "},"ō":{"ha":778,"x_min":67,"x_max":712,"o":"m 390 -19 q 226 21 299 -19 q 110 139 153 60 q 67 335 67 217 q 110 533 67 454 q 226 650 153 611 q 390 690 299 690 q 553 650 481 690 q 669 533 626 611 q 712 335 712 454 q 669 139 712 217 q 553 21 626 60 q 390 -19 481 -19 m 385 110 q 479 136 439 110 q 541 213 519 163 q 563 335 563 263 q 519 503 563 445 q 395 562 475 562 q 301 536 342 562 q 239 459 261 510 q 217 335 217 409 q 261 168 217 226 q 385 110 306 110 m 156 933 l 624 933 l 624 811 l 156 811 l 156 933 z "},"⅛":{"ha":1348,"x_min":60,"x_max":1278,"o":"m 168 958 l 236 958 l 236 417 l 147 417 l 147 851 q 104 834 126 840 q 60 828 83 828 l 60 914 q 115 927 88 917 q 168 958 142 938 m 210 12 l 482 1104 l 598 1158 l 325 65 l 210 12 m 1053 -19 q 891 26 953 -19 q 830 138 830 70 q 875 228 830 196 q 988 261 920 261 q 1017 259 1003 261 q 1049 252 1031 256 l 1049 229 q 957 205 993 229 q 922 146 922 180 q 960 85 922 107 q 1053 63 999 63 q 1153 81 1120 63 q 1186 128 1186 100 q 1169 167 1186 151 q 1124 194 1153 183 l 972 253 q 916 282 944 263 q 867 329 887 301 q 848 395 848 357 q 902 501 848 461 q 1053 541 956 541 q 1159 521 1113 541 q 1232 467 1205 501 q 1259 388 1259 433 q 1221 305 1259 340 q 1114 269 1183 269 q 1087 272 1100 269 q 1058 278 1074 274 l 1058 305 q 1135 326 1103 305 q 1167 383 1167 348 q 1136 439 1167 417 q 1053 460 1104 460 q 973 441 1006 460 q 940 392 940 421 q 956 355 940 369 q 1001 329 972 341 l 1156 269 q 1247 216 1215 247 q 1278 133 1278 186 q 1219 24 1278 67 q 1053 -19 1160 -19 z "},"½":{"ha":1324,"x_min":60,"x_max":1247,"o":"m 168 958 l 236 958 l 236 417 l 147 417 l 147 851 q 104 834 126 840 q 60 828 83 828 l 60 914 q 115 927 88 917 q 168 958 142 938 m 210 12 l 482 1104 l 598 1158 l 325 65 l 210 12 m 844 0 l 844 89 q 876 194 844 157 q 968 255 908 232 l 1076 298 q 1132 335 1114 313 q 1150 392 1150 358 q 1126 448 1150 426 q 1058 471 1102 471 q 985 450 1014 471 q 953 390 957 429 l 854 390 q 882 477 856 442 q 954 531 909 513 q 1056 549 999 549 q 1153 528 1110 549 q 1221 472 1196 508 q 1247 388 1247 435 q 1213 285 1247 325 q 1112 219 1179 245 l 1001 176 q 950 145 966 163 q 934 101 934 128 l 934 82 l 1243 82 l 1243 0 l 844 0 z "},"₁":{"ha":369,"x_min":60,"x_max":236,"o":"m 167 541 l 236 541 l 236 0 l 147 0 l 147 435 q 104 417 126 424 q 60 411 83 411 l 60 497 q 115 510 88 500 q 167 541 142 521 z "},"¼":{"ha":1271,"x_min":60,"x_max":1248,"o":"m 168 958 l 236 958 l 236 417 l 147 417 l 147 851 q 104 834 126 840 q 60 828 83 828 l 60 914 q 115 927 88 917 q 168 958 142 938 m 210 12 l 482 1104 l 598 1158 l 325 65 l 210 12 m 1069 544 l 1154 544 l 1154 199 l 1248 199 l 1248 122 l 1154 122 l 1154 0 l 1067 0 l 1067 122 l 792 122 l 792 190 l 1069 544 m 1070 410 l 898 190 l 1070 190 l 1070 410 z "},"¹":{"ha":369,"x_min":60,"x_max":236,"o":"m 168 898 l 236 898 l 236 357 l 147 357 l 147 792 q 104 774 126 780 q 61 768 82 769 l 61 854 q 115 868 89 857 q 168 898 141 878 z "},"ª":{"ha":799,"x_min":78,"x_max":685,"o":"m 556 0 l 538 158 l 538 433 q 506 545 538 510 q 403 581 474 581 q 332 569 363 581 q 284 534 301 557 q 267 476 267 510 l 105 476 q 141 599 105 552 q 245 668 178 646 q 403 690 312 690 q 551 662 488 690 q 650 577 615 635 q 685 428 685 519 l 685 0 l 556 0 m 334 -19 q 192 11 249 -19 q 107 90 135 41 q 78 194 78 138 q 112 302 78 259 q 207 366 146 345 q 348 388 267 388 q 452 378 403 388 q 551 355 502 369 l 551 267 q 465 288 512 281 q 377 296 417 296 q 276 273 316 296 q 236 194 236 249 q 268 124 236 153 q 369 95 300 95 q 459 118 422 95 q 517 176 497 141 q 538 245 538 210 l 573 245 q 545 114 573 174 q 465 18 518 54 q 334 -19 411 -19 z "},"º":{"ha":778,"x_min":67,"x_max":712,"o":"m 390 -19 q 226 21 299 -19 q 110 139 153 60 q 67 335 67 217 q 110 533 67 454 q 226 650 153 611 q 390 690 299 690 q 553 650 481 690 q 669 533 626 611 q 712 335 712 454 q 669 139 712 217 q 553 21 626 60 q 390 -19 481 -19 m 385 110 q 479 136 439 110 q 541 213 519 163 q 563 335 563 263 q 519 503 563 445 q 395 562 475 562 q 301 536 342 562 q 239 459 261 510 q 217 335 217 409 q 261 168 217 226 q 385 110 306 110 z "},"ø":{"ha":778,"x_min":65,"x_max":768,"o":"m 390 -19 q 226 21 299 -19 q 110 139 153 60 q 67 335 67 217 q 110 533 67 454 q 226 650 153 611 q 390 690 299 690 q 553 650 481 690 q 669 533 626 611 q 712 335 712 454 q 669 139 712 217 q 553 21 626 60 q 390 -19 481 -19 m 385 110 q 479 136 439 110 q 541 213 519 163 q 563 335 563 263 q 519 503 563 445 q 395 562 475 562 q 301 536 342 562 q 239 459 261 510 q 217 335 217 409 q 261 168 217 226 q 385 110 306 110 m 87 16 l 410 769 l 548 801 l 223 48 l 87 16 z "},"¶":{"ha":833,"x_min":58,"x_max":696,"o":"m 373 330 q 141 404 223 330 q 58 612 58 478 q 141 819 58 744 q 373 893 223 893 l 674 893 l 674 760 l 454 760 l 454 330 l 373 330 m 380 -175 l 380 893 l 491 893 l 491 -175 l 380 -175 m 585 -175 l 585 893 l 696 893 l 696 -175 l 585 -175 z "},"∂":{"ha":776,"x_min":74,"x_max":722,"o":"m 381 -19 q 228 26 298 -19 q 116 151 158 70 q 74 340 74 231 q 114 524 74 446 q 220 646 154 603 q 364 690 286 690 q 503 646 444 690 q 594 528 562 603 q 627 359 627 453 l 578 359 q 551 470 578 426 q 483 536 524 515 q 399 557 442 557 q 309 530 349 557 q 247 454 269 503 q 224 338 224 405 q 247 220 224 270 q 309 143 269 171 q 401 115 349 115 q 494 146 456 115 q 553 228 532 176 q 577 345 574 281 q 568 551 581 453 q 518 738 554 649 q 420 906 483 826 q 265 1058 358 986 l 387 1142 q 535 982 472 1067 q 640 805 599 896 q 701 620 681 713 q 722 440 722 528 q 694 245 722 330 q 619 101 667 160 q 510 12 572 42 q 381 -19 449 -19 z "},"·":{"ha":284,"x_min":35,"x_max":247,"o":"m 35 365 q 65 438 35 408 q 140 467 94 467 q 216 438 185 467 q 247 365 247 408 q 216 294 247 323 q 140 266 185 266 q 65 295 94 266 q 35 365 35 324 z "},"‰":{"ha":1703,"x_min":67,"x_max":1638,"o":"m 915 -19 q 756 51 817 -19 q 694 261 694 120 q 756 472 694 403 q 915 541 817 541 q 1073 472 1012 541 q 1134 261 1134 403 q 1073 51 1134 120 q 915 -19 1012 -19 m 915 63 q 1009 114 976 63 q 1042 261 1042 166 q 1009 409 1042 357 q 915 460 976 460 q 820 409 853 460 q 787 261 787 357 q 820 114 787 166 q 915 63 853 63 m 1417 -19 q 1258 51 1319 -19 q 1197 261 1197 120 q 1258 472 1197 403 q 1417 541 1319 541 q 1576 472 1515 541 q 1637 261 1637 403 q 1576 51 1637 120 q 1417 -19 1515 -19 m 1417 63 q 1511 114 1478 63 q 1544 261 1544 166 q 1511 409 1544 357 q 1417 460 1478 460 q 1323 409 1356 460 q 1290 261 1290 357 q 1323 114 1290 166 q 1417 63 1356 63 m 247 12 l 519 1104 l 635 1158 l 361 65 l 247 12 z "},"π":{"ha":867,"x_min":33,"x_max":845,"o":"m 760 -6 q 631 28 684 -6 q 549 125 577 62 q 521 278 521 189 l 521 672 l 669 672 l 669 278 q 706 162 669 198 q 799 126 744 126 l 760 -6 m 195 0 l 195 671 l 343 671 l 343 0 l 195 0 m 33 544 l 33 673 l 845 673 l 845 544 l 33 544 z "},"±":{"ha":695,"x_min":90,"x_max":605,"o":"m 289 753 l 406 753 l 406 535 l 605 535 l 605 439 l 406 439 l 406 222 l 289 222 l 289 439 l 90 439 l 90 535 l 289 535 l 289 753 m 104 112 l 592 112 l 592 0 l 104 0 l 104 112 z "},"∏":{"ha":912,"x_min":133,"x_max":778,"o":"m 133 -328 l 133 893 l 778 893 l 778 -328 l 631 -328 l 631 806 l 670 765 l 240 765 l 279 806 l 279 -328 l 133 -328 z "},"¿":{"ha":710,"x_min":35,"x_max":660,"o":"m 452 630 l 452 572 q 438 473 452 512 q 394 407 424 434 q 313 353 364 379 q 243 311 269 331 q 208 269 218 291 q 198 218 198 247 q 236 140 198 171 q 340 109 274 109 q 457 142 416 109 q 506 231 498 175 l 660 231 q 572 45 652 115 q 345 -25 492 -25 q 180 8 249 -25 q 73 96 110 40 q 35 219 35 151 q 72 341 35 292 q 186 431 108 391 q 258 475 232 455 q 294 521 283 496 q 304 585 304 546 l 304 630 l 452 630 m 374 904 q 450 875 421 904 q 479 805 479 847 q 450 733 479 763 q 375 703 421 703 q 298 733 329 703 q 267 804 267 762 q 298 875 267 846 q 374 904 329 904 z "},"„":{"ha":685,"x_min":50,"x_max":623,"o":"m 474 -178 l 365 -123 q 442 -73 409 -101 q 485 -7 475 -44 q 424 22 449 -1 q 399 81 399 44 q 427 146 399 119 q 501 172 456 172 q 590 132 557 172 q 622 38 622 92 q 583 -84 622 -24 q 474 -178 544 -143 m 160 -178 l 50 -123 q 127 -73 94 -101 q 171 -7 160 -44 q 109 22 135 -1 q 84 81 84 44 q 113 146 84 119 q 187 172 142 172 q 275 132 242 172 q 308 38 308 92 q 269 -84 308 -24 q 160 -178 230 -143 z "},"“":{"ha":647,"x_min":50,"x_max":584,"o":"m 448 542 q 384 561 412 542 q 342 612 357 581 q 326 681 326 644 q 368 802 326 744 q 481 895 410 860 l 584 838 q 508 788 540 817 q 462 722 475 760 q 525 694 500 716 q 551 635 551 673 q 522 570 551 597 q 448 542 493 542 m 172 542 q 108 561 135 542 q 65 612 81 581 q 50 681 50 644 q 92 802 50 744 q 204 895 134 860 l 308 838 q 231 788 264 817 q 185 722 199 760 q 249 694 224 716 q 274 635 274 673 q 245 570 274 597 q 172 542 217 542 z "},"”":{"ha":638,"x_min":50,"x_max":576,"o":"m 424 542 l 320 600 q 397 650 364 622 q 442 716 431 678 q 378 744 403 722 q 353 803 353 767 q 383 869 353 843 q 458 895 413 895 q 522 876 495 895 q 563 826 549 857 q 576 757 576 794 q 535 636 576 693 q 424 542 493 579 m 153 542 l 50 600 q 127 650 94 622 q 172 716 160 678 q 108 744 133 722 q 83 803 83 767 q 113 869 83 843 q 188 895 143 895 q 252 876 225 895 q 292 826 278 857 q 306 757 306 794 q 265 636 306 693 q 153 542 223 579 z "},"‚":{"ha":370,"x_min":50,"x_max":308,"o":"m 160 -178 l 50 -123 q 127 -73 94 -101 q 171 -7 160 -44 q 109 22 135 -1 q 84 81 84 44 q 113 146 84 119 q 187 172 142 172 q 275 132 242 172 q 308 38 308 92 q 269 -84 308 -24 q 160 -178 230 -143 z "},"ŕ":{"ha":533,"x_min":133,"x_max":567,"o":"m 133 0 l 133 673 l 281 673 l 281 0 l 133 0 m 242 297 q 270 514 242 428 q 348 641 299 599 q 460 683 397 683 q 495 681 479 683 q 526 674 511 678 l 523 526 q 483 534 504 531 q 444 538 461 538 q 352 509 389 538 q 298 427 316 481 q 281 297 281 374 l 242 297 m 286 774 l 215 833 l 467 1088 l 567 1006 l 286 774 z "},"√":{"ha":837,"x_min":7,"x_max":830,"o":"m 321 1 l 173 330 l 225 272 l 45 217 l 7 303 l 283 410 l 423 96 l 360 96 l 705 1169 l 830 1169 l 440 1 l 321 1 z "},"ř":{"ha":533,"x_min":95,"x_max":574,"o":"m 133 0 l 133 673 l 281 673 l 281 0 l 133 0 m 242 297 q 270 514 242 428 q 348 641 299 599 q 460 683 397 683 q 495 681 479 683 q 526 674 511 678 l 523 526 q 483 534 504 531 q 444 538 461 538 q 352 509 389 538 q 298 427 316 481 q 281 297 281 374 l 242 297 m 334 774 l 94 986 l 182 1056 l 360 873 l 308 873 l 487 1056 l 574 986 l 334 774 z "},"ŗ":{"ha":533,"x_min":133,"x_max":526,"o":"m 133 0 l 133 673 l 281 673 l 281 0 l 133 0 m 242 297 q 270 514 242 428 q 348 641 299 599 q 460 683 397 683 q 495 681 479 683 q 526 674 511 678 l 523 526 q 483 534 504 531 q 444 538 461 538 q 352 509 389 538 q 298 427 316 481 q 281 297 281 374 l 242 297 m 315 -306 l 243 -269 q 304 -231 278 -252 q 339 -181 329 -210 q 295 -161 313 -178 q 281 -119 278 -145 q 303 -75 282 -92 q 355 -57 324 -57 q 413 -83 392 -57 q 433 -150 435 -110 q 400 -236 431 -192 q 315 -306 369 -280 z "},"®":{"ha":978,"x_min":33,"x_max":945,"o":"m 490 -8 q 313 27 395 -8 q 167 125 230 63 q 69 270 104 188 q 33 447 33 353 q 69 624 33 542 q 167 769 104 706 q 313 868 230 832 q 490 903 395 903 q 666 868 583 903 q 811 769 749 832 q 910 624 874 706 q 945 447 945 542 q 910 270 945 353 q 811 125 874 188 q 666 27 749 63 q 490 -8 583 -8 m 490 67 q 638 96 569 67 q 759 178 706 126 q 841 300 811 231 q 870 447 870 369 q 841 595 870 526 q 759 716 811 664 q 638 799 706 769 q 490 828 569 828 q 342 799 411 828 q 220 716 273 769 q 138 595 168 664 q 108 447 108 526 q 138 300 108 369 q 220 178 168 231 q 342 96 273 126 q 490 67 411 67 m 597 199 l 458 436 l 549 436 l 706 199 l 597 199 m 317 199 l 317 710 l 503 710 q 642 667 594 710 q 690 555 690 625 q 642 444 690 487 q 503 401 594 401 l 401 401 l 401 199 l 317 199 m 401 458 l 495 458 q 576 483 549 458 q 603 548 603 508 q 578 613 603 588 q 503 638 553 638 l 401 638 l 401 458 z "},"˚":{"ha":449,"x_min":67,"x_max":383,"o":"m 224 908 q 145 930 181 908 q 88 986 110 951 q 67 1065 67 1022 q 88 1145 67 1109 q 145 1202 110 1181 q 224 1224 181 1224 q 304 1202 268 1224 q 361 1145 340 1181 q 383 1065 383 1109 q 361 986 383 1022 q 304 930 340 951 q 224 908 268 908 m 224 1008 q 265 1025 249 1008 q 282 1065 282 1042 q 265 1107 282 1090 q 224 1123 249 1123 q 184 1107 201 1123 q 167 1065 167 1090 q 184 1025 167 1042 q 224 1008 201 1008 z "},"̊":{"ha":0,"x_min":67,"x_max":383,"o":"m 224 908 q 145 930 181 908 q 88 986 110 951 q 67 1065 67 1022 q 88 1145 67 1109 q 145 1202 110 1181 q 224 1224 181 1224 q 304 1202 268 1224 q 361 1145 340 1181 q 383 1065 383 1109 q 361 986 383 1022 q 304 930 340 951 q 224 908 268 908 m 224 1008 q 265 1025 249 1008 q 282 1065 282 1042 q 265 1107 282 1090 q 224 1123 249 1123 q 184 1107 201 1123 q 167 1065 167 1090 q 184 1025 167 1042 q 224 1008 201 1008 z "},"₨":{"ha":829,"x_min":119,"x_max":743,"o":"m 119 808 l 119 893 l 743 893 l 743 808 l 119 808 m 119 588 l 119 674 l 743 674 l 743 588 l 119 588 m 119 428 l 238 428 l 688 0 l 481 0 l 119 342 l 119 428 m 168 428 l 212 428 q 390 483 334 428 q 446 619 446 538 q 390 755 446 701 q 212 808 334 808 l 168 808 l 168 869 l 212 869 q 430 838 342 869 q 562 749 518 806 q 606 619 606 692 q 567 478 606 541 q 441 379 528 415 q 212 342 354 342 l 168 342 l 168 428 z "},"ś":{"ha":732,"x_min":73,"x_max":658,"o":"m 380 -19 q 215 8 283 -19 q 110 85 147 35 q 73 203 74 135 l 210 203 q 253 124 213 149 q 363 99 294 99 q 431 110 401 99 q 478 141 461 122 q 495 185 495 161 q 472 235 495 217 q 399 268 449 253 l 258 317 q 134 392 177 345 q 91 503 91 438 q 166 638 91 587 q 367 690 242 690 q 565 635 495 690 q 636 497 634 580 l 495 497 q 460 553 492 533 q 367 574 428 574 q 279 550 311 574 q 247 495 247 526 q 340 415 247 441 l 491 359 q 615 291 572 333 q 658 185 658 249 q 624 86 658 133 q 526 10 589 40 q 380 -19 463 -19 m 322 774 l 251 833 l 503 1088 l 603 1006 l 322 774 z "},"š":{"ha":732,"x_min":73,"x_max":658,"o":"m 380 -19 q 215 8 283 -19 q 110 85 147 35 q 73 203 74 135 l 210 203 q 253 124 213 149 q 363 99 294 99 q 431 110 401 99 q 478 141 461 122 q 495 185 495 161 q 472 235 495 217 q 399 268 449 253 l 258 317 q 134 392 177 345 q 91 503 91 438 q 166 638 91 587 q 367 690 242 690 q 565 635 495 690 q 636 497 634 580 l 495 497 q 460 553 492 533 q 367 574 428 574 q 279 550 311 574 q 247 495 247 526 q 340 415 247 441 l 491 359 q 615 291 572 333 q 658 185 658 249 q 624 86 658 133 q 526 10 589 40 q 380 -19 463 -19 m 370 774 l 131 986 l 218 1056 l 396 873 l 344 873 l 523 1056 l 610 986 l 370 774 z "},"ş":{"ha":732,"x_min":73,"x_max":658,"o":"m 380 -19 q 215 8 283 -19 q 110 85 147 35 q 73 203 74 135 l 210 203 q 253 124 213 149 q 363 99 294 99 q 431 110 401 99 q 478 141 461 122 q 495 185 495 161 q 472 235 495 217 q 399 268 449 253 l 258 317 q 134 392 177 345 q 91 503 91 438 q 166 638 91 587 q 367 690 242 690 q 565 635 495 690 q 636 497 634 580 l 495 497 q 460 553 492 533 q 367 574 428 574 q 279 550 311 574 q 247 495 247 526 q 340 415 247 441 l 491 359 q 615 291 572 333 q 658 185 658 249 q 624 86 658 133 q 526 10 589 40 q 380 -19 463 -19 m 232 -252 l 254 -198 q 340 -225 302 -222 q 400 -215 378 -228 q 425 -180 423 -203 q 410 -143 427 -159 q 364 -115 394 -127 q 297 -95 335 -103 l 350 51 l 419 42 l 371 -92 l 349 -50 q 456 -82 415 -62 q 517 -130 498 -103 q 534 -188 536 -157 q 500 -253 531 -228 q 421 -285 468 -277 q 324 -285 374 -294 q 232 -252 274 -277 z "},"ș":{"ha":732,"x_min":73,"x_max":658,"o":"m 380 -19 q 215 8 283 -19 q 110 85 147 35 q 73 203 74 135 l 210 203 q 253 124 213 149 q 363 99 294 99 q 431 110 401 99 q 478 141 461 122 q 495 185 495 161 q 472 235 495 217 q 399 268 449 253 l 258 317 q 134 392 177 345 q 91 503 91 438 q 166 638 91 587 q 367 690 242 690 q 565 635 495 690 q 636 497 634 580 l 495 497 q 460 553 492 533 q 367 574 428 574 q 279 550 311 574 q 247 495 247 526 q 340 415 247 441 l 491 359 q 615 291 572 333 q 658 185 658 249 q 624 86 658 133 q 526 10 589 40 q 380 -19 463 -19 m 338 -309 l 266 -272 q 327 -234 301 -255 q 362 -184 352 -213 q 318 -164 335 -181 q 303 -122 301 -148 q 326 -77 305 -95 q 378 -60 347 -60 q 436 -86 415 -60 q 456 -153 458 -112 q 423 -239 453 -195 q 338 -309 392 -283 z "},"§":{"ha":833,"x_min":99,"x_max":734,"o":"m 439 319 q 507 331 477 319 q 554 362 537 342 q 571 408 571 382 q 547 456 571 438 q 475 488 523 474 l 333 538 q 210 611 253 565 q 167 722 167 658 q 241 858 167 807 q 441 910 316 910 q 640 855 572 910 q 712 717 709 799 l 571 717 q 535 774 568 754 q 448 794 502 794 q 355 770 386 794 q 323 715 323 746 q 415 635 323 663 l 567 580 q 690 511 647 553 q 734 409 734 470 q 699 308 734 355 q 602 231 665 260 q 456 202 539 202 l 439 319 m 394 519 q 306 494 338 519 q 274 436 274 469 q 366 356 274 385 l 517 301 q 641 233 597 275 q 685 130 685 192 q 651 29 685 76 q 553 -47 617 -18 q 394 -76 488 -76 q 241 -50 308 -76 q 137 27 174 -23 q 99 146 99 77 l 237 146 q 280 67 238 92 q 383 41 321 41 q 485 66 448 41 q 522 129 522 91 q 498 177 522 159 q 425 210 474 195 l 284 260 q 160 334 202 287 q 117 445 117 381 q 192 584 117 534 q 394 633 267 633 l 394 519 z "},"⅞":{"ha":1411,"x_min":33,"x_max":1342,"o":"m 53 417 l 303 869 l 33 869 l 33 955 l 408 955 l 408 870 l 173 417 l 53 417 m 273 12 l 545 1104 l 661 1158 l 388 65 l 273 12 m 1117 -19 q 955 26 1016 -19 q 893 138 893 70 q 938 228 893 196 q 1051 261 983 261 q 1080 259 1067 261 q 1113 252 1094 256 l 1113 229 q 1020 205 1056 229 q 985 146 985 180 q 1023 85 985 107 q 1117 63 1062 63 q 1216 81 1183 63 q 1249 128 1249 100 q 1233 167 1249 151 q 1187 194 1216 183 l 1035 253 q 979 282 1008 263 q 931 329 950 301 q 911 395 911 357 q 965 501 911 461 q 1117 541 1019 541 q 1222 521 1176 541 q 1295 467 1268 501 q 1322 388 1322 433 q 1284 305 1322 340 q 1177 269 1247 269 q 1150 272 1163 269 q 1122 278 1138 274 l 1122 305 q 1198 326 1166 305 q 1231 383 1231 348 q 1199 439 1231 417 q 1117 460 1167 460 q 1036 441 1069 460 q 1003 392 1003 421 q 1019 355 1003 369 q 1064 329 1035 341 l 1219 269 q 1310 216 1278 247 q 1342 133 1342 186 q 1283 24 1342 67 q 1117 -19 1224 -19 z "},"₇":{"ha":433,"x_min":33,"x_max":408,"o":"m 53 0 l 303 452 l 33 452 l 33 538 l 408 538 l 408 453 l 173 0 l 53 0 z "},"⁷":{"ha":433,"x_min":33,"x_max":408,"o":"m 54 355 l 303 807 l 33 807 l 33 893 l 408 893 l 408 808 l 173 355 l 54 355 z "},"₆":{"ha":555,"x_min":67,"x_max":483,"o":"m 291 -19 q 174 16 224 -19 q 95 113 124 51 q 67 252 67 174 q 130 465 67 390 q 297 541 193 541 q 424 499 375 541 q 478 386 474 456 l 383 386 q 357 440 377 420 q 300 460 338 460 q 195 402 234 460 q 156 243 156 344 q 157 214 156 230 q 160 183 158 197 q 188 265 166 235 q 243 308 210 295 q 313 320 276 320 q 435 273 387 320 q 483 151 483 225 q 430 28 483 75 q 291 -19 377 -19 m 291 63 q 362 88 333 63 q 391 154 391 113 q 362 222 391 198 q 291 246 333 246 q 222 220 250 246 q 193 154 193 195 q 222 88 193 113 q 291 63 250 63 z "},"⁶":{"ha":555,"x_min":67,"x_max":483,"o":"m 291 351 q 174 386 225 351 q 95 482 124 421 q 67 621 67 543 q 96 778 67 713 q 176 876 125 842 q 298 910 228 910 q 389 891 350 910 q 452 837 429 871 q 478 755 476 802 l 383 755 q 358 810 378 790 q 301 830 338 830 q 195 771 234 830 q 157 612 157 713 q 157 583 157 599 q 160 552 158 566 q 189 635 166 604 q 244 677 211 665 q 312 690 276 690 q 401 668 362 690 q 462 608 440 646 q 483 520 483 570 q 459 431 483 469 q 392 372 435 393 q 291 351 348 351 m 291 432 q 362 457 333 432 q 391 523 391 482 q 362 591 391 567 q 291 616 333 616 q 242 604 264 616 q 206 571 220 592 q 193 523 193 550 q 222 457 193 482 q 291 432 250 432 z "},"­":{"ha":833,"x_min":60,"x_max":447,"o":"m 60 350 l 60 479 l 447 479 l 447 350 l 60 350 z "},"∑":{"ha":780,"x_min":67,"x_max":713,"o":"m 393 283 l 67 765 l 67 893 l 713 893 l 713 765 l 113 765 l 195 806 l 554 283 l 393 283 m 393 283 l 554 283 l 195 -241 l 113 -201 l 713 -201 l 713 -328 l 67 -328 l 67 -201 l 393 283 z "},"ŧ":{"ha":540,"x_min":45,"x_max":503,"o":"m 353 -19 q 248 3 295 -19 q 172 70 200 25 q 143 183 143 115 l 143 851 l 291 851 l 291 188 q 375 99 291 99 q 425 104 400 99 q 482 122 450 110 l 503 17 q 429 -8 465 2 q 353 -19 393 -19 m 45 572 l 45 671 l 482 671 l 482 572 l 45 572 m 51 367 l 51 478 l 451 478 l 451 367 l 51 367 z "},"ť":{"ha":540,"x_min":32,"x_max":512,"o":"m 353 -19 q 248 3 295 -19 q 172 70 200 25 q 143 183 143 115 l 143 851 l 291 851 l 291 188 q 375 99 291 99 q 425 104 400 99 q 482 122 450 110 l 503 17 q 429 -8 465 2 q 353 -19 393 -19 m 45 572 l 45 671 l 482 671 l 482 572 l 45 572 m 272 907 l 32 1119 l 119 1189 l 297 1006 l 245 1006 l 424 1189 l 512 1119 l 272 907 z "},"ţ":{"ha":540,"x_min":45,"x_max":503,"o":"m 353 -19 q 248 3 295 -19 q 172 70 200 25 q 143 183 143 115 l 143 851 l 291 851 l 291 188 q 375 99 291 99 q 425 104 400 99 q 482 122 450 110 l 503 17 q 429 -8 465 2 q 353 -19 393 -19 m 45 572 l 45 671 l 482 671 l 482 572 l 45 572 m 170 -249 l 192 -195 q 278 -222 240 -219 q 339 -212 316 -225 q 363 -177 361 -200 q 349 -140 365 -156 q 302 -112 332 -124 q 235 -92 273 -101 l 288 53 l 358 44 l 309 -89 l 287 -47 q 394 -80 353 -59 q 455 -127 436 -100 q 472 -185 474 -154 q 438 -250 469 -226 q 359 -283 406 -274 q 262 -283 313 -291 q 170 -249 212 -274 z "},"ț":{"ha":540,"x_min":45,"x_max":503,"o":"m 353 -19 q 248 3 295 -19 q 172 70 200 25 q 143 183 143 115 l 143 851 l 291 851 l 291 188 q 375 99 291 99 q 425 104 400 99 q 482 122 450 110 l 503 17 q 429 -8 465 2 q 353 -19 393 -19 m 45 572 l 45 671 l 482 671 l 482 572 l 45 572 m 276 -306 l 205 -269 q 266 -231 240 -252 q 301 -181 291 -210 q 257 -161 274 -178 q 242 -119 240 -145 q 265 -75 244 -92 q 317 -57 286 -57 q 375 -83 353 -57 q 394 -150 397 -110 q 362 -236 392 -192 q 276 -306 331 -280 z "},"þ":{"ha":833,"x_min":133,"x_max":770,"o":"m 460 -19 q 333 14 385 -19 q 252 110 280 46 q 224 272 224 175 l 281 272 q 303 187 281 222 q 361 134 325 152 q 439 115 398 115 q 524 140 483 115 q 593 213 566 164 q 620 336 620 262 q 597 455 620 405 q 533 531 574 504 q 442 557 492 557 q 361 537 399 557 q 302 479 324 517 q 281 386 281 441 l 224 386 q 257 557 224 490 q 344 657 290 624 q 465 690 399 690 q 614 647 544 690 q 727 526 683 605 q 770 336 770 447 q 726 145 770 224 q 612 24 683 66 q 460 -19 541 -19 m 133 -328 l 133 893 l 281 893 l 281 -328 l 133 -328 z "},"⅜":{"ha":1547,"x_min":66,"x_max":1478,"o":"m 284 398 q 178 418 228 398 q 97 479 128 439 q 66 576 66 519 l 158 576 q 196 505 161 531 q 284 479 231 479 q 367 505 338 479 q 397 567 397 530 q 369 626 397 604 q 281 648 342 648 l 213 648 l 213 718 l 267 718 q 349 740 319 718 q 378 799 378 761 q 353 855 378 832 q 280 877 328 877 q 211 861 241 877 q 171 805 181 845 l 78 805 q 142 922 87 885 q 276 958 197 958 q 418 916 363 958 q 474 808 474 875 q 451 737 474 767 q 384 691 428 706 q 463 642 433 675 q 494 560 494 610 q 436 443 494 489 q 284 398 379 398 m 410 12 l 681 1104 l 797 1158 l 524 65 l 410 12 m 1253 -19 q 1091 26 1152 -19 q 1029 138 1029 70 q 1074 228 1029 196 q 1187 261 1119 261 q 1216 259 1203 261 q 1249 252 1230 256 l 1249 229 q 1157 205 1192 229 q 1121 146 1121 180 q 1159 85 1121 107 q 1253 63 1198 63 q 1352 81 1319 63 q 1385 128 1385 100 q 1369 167 1385 151 q 1323 194 1352 183 l 1172 253 q 1115 282 1144 263 q 1067 329 1086 301 q 1047 395 1047 357 q 1101 501 1047 461 q 1253 541 1156 541 q 1358 521 1312 541 q 1431 467 1404 501 q 1458 388 1458 433 q 1420 305 1458 340 q 1313 269 1383 269 q 1286 272 1299 269 q 1258 278 1274 274 l 1258 305 q 1334 326 1302 305 q 1367 383 1367 348 q 1335 439 1367 417 q 1253 460 1303 460 q 1173 441 1206 460 q 1140 392 1140 421 q 1156 355 1140 369 q 1200 329 1172 341 l 1356 269 q 1446 216 1415 247 q 1478 133 1478 186 q 1419 24 1478 67 q 1253 -19 1360 -19 z "},"₃":{"ha":569,"x_min":66,"x_max":494,"o":"m 284 -19 q 178 2 228 -19 q 97 62 128 22 q 66 160 66 101 l 158 160 q 196 89 161 115 q 284 63 231 63 q 367 88 338 63 q 397 151 397 113 q 369 209 397 188 q 281 231 342 231 l 213 231 l 213 301 l 267 301 q 349 323 319 301 q 378 381 378 344 q 353 438 378 415 q 280 460 328 460 q 211 444 241 460 q 171 388 181 428 l 78 388 q 142 505 87 469 q 276 541 197 541 q 418 499 363 541 q 474 392 474 458 q 451 320 474 350 q 384 274 428 290 q 463 225 433 258 q 494 142 494 192 q 436 26 494 72 q 284 -19 379 -19 z "},"¾":{"ha":1470,"x_min":66,"x_max":1447,"o":"m 284 398 q 178 418 228 398 q 97 479 128 439 q 66 576 66 519 l 158 576 q 196 505 161 531 q 284 479 231 479 q 367 505 338 479 q 397 567 397 530 q 369 626 397 604 q 281 648 342 648 l 213 648 l 213 718 l 267 718 q 349 740 319 718 q 378 799 378 761 q 353 855 378 832 q 280 877 328 877 q 211 861 241 877 q 171 805 181 845 l 78 805 q 142 922 87 885 q 276 958 197 958 q 418 916 363 958 q 474 808 474 875 q 451 737 474 767 q 384 691 428 706 q 463 642 433 675 q 494 560 494 610 q 436 443 494 489 q 284 398 379 398 m 410 12 l 681 1104 l 797 1158 l 524 65 l 410 12 m 1269 544 l 1353 544 l 1353 199 l 1447 199 l 1447 122 l 1353 122 l 1353 0 l 1266 0 l 1266 122 l 991 122 l 991 190 l 1269 544 m 1269 410 l 1097 190 l 1269 190 l 1269 410 z "},"³":{"ha":569,"x_min":65,"x_max":494,"o":"m 284 351 q 203 362 242 351 q 133 396 164 374 q 83 452 101 419 q 65 530 65 486 l 158 530 q 176 477 160 499 q 220 444 193 455 q 284 432 248 432 q 367 457 337 432 q 397 520 397 482 q 384 563 397 545 q 347 590 372 581 q 280 600 321 600 l 212 600 l 212 671 l 267 671 q 348 692 319 671 q 378 751 378 714 q 353 807 378 784 q 280 830 328 830 q 210 814 241 830 q 170 758 180 798 l 78 758 q 110 845 83 812 q 180 895 137 879 q 276 910 223 910 q 378 891 333 910 q 448 839 422 872 q 474 761 474 805 q 451 689 474 719 q 383 644 428 659 q 463 595 433 627 q 493 512 493 562 q 467 428 493 465 q 394 371 442 392 q 284 351 347 351 z "},"̃":{"ha":0,"x_min":32,"x_max":500,"o":"m 92 781 l 32 817 q 86 941 49 897 q 174 985 123 985 q 214 978 193 985 q 275 951 235 971 q 330 924 313 931 q 364 916 347 916 q 403 933 384 916 q 438 985 423 949 l 500 944 q 469 859 490 896 q 422 802 449 822 q 367 781 394 781 q 319 791 343 781 q 254 821 295 800 q 204 846 219 840 q 174 852 188 852 q 131 837 151 852 q 92 781 111 822 z "},"™":{"ha":965,"x_min":4,"x_max":899,"o":"m 4 1056 l 4 1119 l 360 1119 l 360 1056 l 202 1056 l 219 1072 l 219 673 l 145 673 l 145 1072 l 162 1056 l 4 1056 m 429 1119 l 535 1119 l 669 836 l 663 836 l 796 1119 l 899 1119 l 899 673 l 824 673 l 824 1036 l 835 1036 l 690 724 l 641 724 l 496 1034 l 503 1034 l 503 673 l 429 673 l 429 1119 z "},"₂":{"ha":565,"x_min":85,"x_max":487,"o":"m 85 0 l 85 89 q 117 194 85 157 q 208 256 149 232 l 317 298 q 373 335 355 313 q 391 391 391 358 q 367 448 391 426 q 298 471 342 471 q 226 450 255 471 q 193 390 198 429 l 94 390 q 123 477 97 442 q 194 531 149 513 q 297 549 240 549 q 393 528 351 549 q 461 472 436 508 q 487 387 487 435 q 453 285 487 325 q 352 219 419 245 l 242 176 q 191 145 207 163 q 174 101 174 128 l 174 82 l 483 82 l 483 0 l 85 0 z "},"²":{"ha":565,"x_min":85,"x_max":487,"o":"m 85 362 l 85 450 q 99 527 85 496 q 141 580 114 559 q 208 617 168 602 l 317 659 q 373 697 354 674 q 391 753 391 719 q 367 809 391 787 q 298 832 342 832 q 226 812 255 832 q 193 751 198 791 l 94 751 q 123 839 96 804 q 194 892 149 875 q 297 910 239 910 q 393 890 350 910 q 462 833 436 869 q 487 749 487 797 q 472 676 487 707 q 427 621 457 645 q 352 581 397 598 l 242 537 q 190 507 207 524 q 174 462 174 489 l 174 443 l 483 443 l 483 362 l 85 362 z "},"ű":{"ha":863,"x_min":117,"x_max":730,"o":"m 582 673 l 730 673 l 730 0 l 582 0 l 582 673 m 117 673 l 265 673 l 265 259 q 300 153 265 189 q 397 117 335 117 q 491 144 449 117 q 558 224 533 172 q 582 351 582 276 l 625 351 q 593 150 625 231 q 504 28 561 69 q 372 -12 447 -12 q 241 14 299 -12 q 150 97 183 40 q 117 245 117 153 l 117 673 m 560 766 l 485 780 l 508 1012 l 613 989 l 560 766 m 380 776 l 302 786 l 311 1021 l 419 1003 l 380 776 z "},"ū":{"ha":863,"x_min":117,"x_max":730,"o":"m 582 673 l 730 673 l 730 0 l 582 0 l 582 673 m 117 673 l 265 673 l 265 259 q 300 153 265 189 q 397 117 335 117 q 491 144 449 117 q 558 224 533 172 q 582 351 582 276 l 625 351 q 593 150 625 231 q 504 28 561 69 q 372 -12 447 -12 q 241 14 299 -12 q 150 97 183 40 q 117 245 117 153 l 117 673 m 209 933 l 676 933 l 676 811 l 209 811 l 209 933 z "},"ų":{"ha":863,"x_min":117,"x_max":819,"o":"m 582 673 l 730 673 l 730 0 l 582 0 l 582 673 m 117 673 l 265 673 l 265 259 q 300 153 265 189 q 397 117 335 117 q 491 144 449 117 q 558 224 533 172 q 582 351 582 276 l 625 351 q 593 150 625 231 q 504 28 561 69 q 372 -12 447 -12 q 241 14 299 -12 q 150 97 183 40 q 117 245 117 153 l 117 673 m 819 -228 q 727 -264 774 -251 q 635 -277 681 -277 q 516 -244 563 -277 q 469 -151 469 -212 q 508 -52 469 -100 q 621 27 546 -3 l 730 0 q 614 -58 657 -27 q 571 -126 571 -88 q 594 -165 571 -153 q 648 -177 618 -177 q 710 -167 678 -177 q 784 -135 742 -158 l 819 -228 z "},"ů":{"ha":863,"x_min":117,"x_max":730,"o":"m 582 673 l 730 673 l 730 0 l 582 0 l 582 673 m 117 673 l 265 673 l 265 259 q 300 153 265 189 q 397 117 335 117 q 491 144 449 117 q 558 224 533 172 q 582 351 582 276 l 625 351 q 593 150 625 231 q 504 28 561 69 q 372 -12 447 -12 q 241 14 299 -12 q 150 97 183 40 q 117 245 117 153 l 117 673 m 443 747 q 364 768 400 747 q 307 825 328 789 q 285 903 285 860 q 307 983 285 947 q 364 1040 328 1019 q 443 1062 400 1062 q 523 1040 487 1062 q 580 983 558 1019 q 601 903 601 947 q 580 825 601 860 q 523 768 558 789 q 443 747 487 747 m 443 847 q 484 863 467 847 q 501 903 501 880 q 484 945 501 928 q 443 961 467 961 q 403 945 419 961 q 386 903 386 928 q 403 863 386 880 q 443 847 419 847 z "},"ẃ":{"ha":1040,"x_min":19,"x_max":1017,"o":"m 19 671 l 173 671 l 326 147 l 310 147 l 456 636 l 588 636 l 733 146 l 717 146 l 869 671 l 1017 671 l 797 0 l 651 0 l 507 460 l 530 460 l 388 0 l 242 0 l 19 671 m 476 774 l 404 833 l 657 1088 l 756 1006 l 476 774 z "},"ŵ":{"ha":1040,"x_min":19,"x_max":1017,"o":"m 19 671 l 173 671 l 326 147 l 310 147 l 456 636 l 588 636 l 733 146 l 717 146 l 869 671 l 1017 671 l 797 0 l 651 0 l 507 460 l 530 460 l 388 0 l 242 0 l 19 671 m 367 760 l 279 830 l 519 1043 l 759 830 l 672 760 l 492 927 l 544 927 l 367 760 z "},"ẅ":{"ha":1040,"x_min":19,"x_max":1017,"o":"m 19 671 l 173 671 l 326 147 l 310 147 l 456 636 l 588 636 l 733 146 l 717 146 l 869 671 l 1017 671 l 797 0 l 651 0 l 507 460 l 530 460 l 388 0 l 242 0 l 19 671 m 647 792 q 583 817 610 792 q 557 878 557 842 q 583 940 557 915 q 647 965 610 965 q 712 940 686 965 q 738 878 738 915 q 712 817 738 842 q 647 792 686 792 m 390 792 q 325 817 351 792 q 300 876 300 842 q 325 939 300 915 q 390 963 351 963 q 456 939 430 963 q 482 876 482 915 q 456 817 482 842 q 390 792 430 792 z "},"ẁ":{"ha":1040,"x_min":19,"x_max":1017,"o":"m 19 671 l 173 671 l 326 147 l 310 147 l 456 636 l 588 636 l 733 146 l 717 146 l 869 671 l 1017 671 l 797 0 l 651 0 l 507 460 l 530 460 l 388 0 l 242 0 l 19 671 m 624 777 l 343 1009 l 443 1090 l 695 835 l 624 777 z "},"ý":{"ha":684,"x_min":-2,"x_max":666,"o":"m 28 671 l 195 671 l 385 129 l 357 129 l 515 671 l 666 671 l 410 -126 q 316 -293 373 -240 q 177 -347 260 -347 q 87 -335 131 -347 q -2 -301 43 -324 l -2 -169 q 71 -206 35 -194 q 142 -217 106 -217 q 203 -197 178 -217 q 248 -143 229 -177 q 278 -66 266 -108 l 299 0 l 28 671 m 299 774 l 227 833 l 480 1088 l 579 1006 l 299 774 z "},"ŷ":{"ha":684,"x_min":-2,"x_max":666,"o":"m 28 671 l 195 671 l 385 129 l 357 129 l 515 671 l 666 671 l 410 -126 q 316 -293 373 -240 q 177 -347 260 -347 q 87 -335 131 -347 q -2 -301 43 -324 l -2 -169 q 71 -206 35 -194 q 142 -217 106 -217 q 203 -197 178 -217 q 248 -143 229 -177 q 278 -66 266 -108 l 299 0 l 28 671 m 190 760 l 102 830 l 342 1043 l 582 830 l 494 760 l 315 927 l 367 927 l 190 760 z "},"ÿ":{"ha":684,"x_min":-2,"x_max":666,"o":"m 28 671 l 195 671 l 385 129 l 357 129 l 515 671 l 666 671 l 410 -126 q 316 -293 373 -240 q 177 -347 260 -347 q 87 -335 131 -347 q -2 -301 43 -324 l -2 -169 q 71 -206 35 -194 q 142 -217 106 -217 q 203 -197 178 -217 q 248 -143 229 -177 q 278 -66 266 -108 l 299 0 l 28 671 m 470 792 q 406 817 433 792 q 380 878 380 842 q 406 940 380 915 q 470 965 433 965 q 535 940 509 965 q 561 878 561 915 q 535 817 561 842 q 470 792 509 792 m 213 792 q 148 817 174 792 q 123 876 123 842 q 148 939 123 915 q 213 963 174 963 q 279 939 253 963 q 305 876 305 915 q 279 817 305 842 q 213 792 253 792 z "},"¥":{"ha":799,"x_min":10,"x_max":788,"o":"m 321 0 l 321 368 l 10 893 l 187 893 l 412 495 l 381 495 l 613 893 l 788 893 l 469 368 l 469 0 l 321 0 m 156 124 l 156 209 l 637 209 l 637 124 l 156 124 m 156 270 l 156 355 l 637 355 l 637 270 l 156 270 z "},"ỳ":{"ha":684,"x_min":-2,"x_max":666,"o":"m 28 671 l 195 671 l 385 129 l 357 129 l 515 671 l 666 671 l 410 -126 q 316 -293 373 -240 q 177 -347 260 -347 q 87 -335 131 -347 q -2 -301 43 -324 l -2 -169 q 71 -206 35 -194 q 142 -217 106 -217 q 203 -197 178 -217 q 248 -143 229 -177 q 278 -66 266 -108 l 299 0 l 28 671 m 447 777 l 166 1009 l 266 1090 l 518 835 l 447 777 z "},"ź":{"ha":679,"x_min":78,"x_max":603,"o":"m 78 0 l 78 120 l 440 551 l 78 551 l 78 671 l 603 671 l 603 551 l 251 120 l 603 120 l 603 0 l 78 0 m 296 774 l 224 833 l 477 1088 l 576 1006 l 296 774 z "},"ž":{"ha":679,"x_min":78,"x_max":603,"o":"m 78 0 l 78 120 l 440 551 l 78 551 l 78 671 l 603 671 l 603 551 l 251 120 l 603 120 l 603 0 l 78 0 m 344 774 l 104 986 l 192 1056 l 369 873 l 317 873 l 497 1056 l 584 986 l 344 774 z "},"ż":{"ha":679,"x_min":78,"x_max":603,"o":"m 78 0 l 78 120 l 440 551 l 78 551 l 78 671 l 603 671 l 603 551 l 251 120 l 603 120 l 603 0 l 78 0 m 244 897 q 273 968 244 939 q 347 997 302 997 q 422 968 392 997 q 452 897 452 939 q 422 827 452 855 q 347 800 392 800 q 273 828 302 800 q 244 897 244 856 z "},"₀":{"ha":590,"x_min":67,"x_max":523,"o":"m 295 -19 q 130 53 193 -19 q 67 272 67 125 q 130 490 67 419 q 295 562 193 562 q 459 490 396 562 q 523 272 523 419 q 459 53 523 125 q 295 -19 396 -19 m 295 66 q 393 119 358 66 q 428 272 428 172 q 393 425 428 372 q 295 478 358 478 q 197 425 231 478 q 163 272 163 372 q 197 119 163 172 q 295 66 231 66 z "},"⁰":{"ha":590,"x_min":67,"x_max":523,"o":"m 295 330 q 176 362 227 330 q 96 458 124 394 q 67 620 67 523 q 96 783 67 718 q 176 879 124 847 q 295 911 227 911 q 414 879 362 911 q 494 783 465 847 q 523 620 523 718 q 494 458 523 523 q 414 362 465 394 q 295 330 362 330 m 295 415 q 393 468 359 415 q 427 620 427 521 q 393 773 427 720 q 295 827 359 827 q 197 773 232 827 q 163 620 163 720 q 197 468 163 521 q 295 415 232 415 z "}}}
